<svg width="68" height="108" viewBox="0 0 68 108" fill="none" xmlns="http://www.w3.org/2000/svg">
<path d="M46.3823 4.40583L46.1772 4.29139L38.5046 0L0 22.494L7.50998 27.093L46.3823 4.40583Z" fill="#002D57"/>
<path d="M15.2746 74.849L7.50999 27.093L4.76837e-06 22.494V93.6524L15.2746 102.636V74.849Z" fill="#002D57"/>
<path d="M50.0383 6.6516L49.8332 6.54432L42.1606 2.25293L3.65599 24.747L11.166 29.3388L50.0383 6.6516Z" fill="url(#paint0_linear)"/>
<path d="M55.0237 53.0702L20.8752 72.9608L16.2363 55.4663L41.7504 40.568L55.0237 53.0702Z" fill="url(#paint1_linear)"/>
<path d="M27.8902 52.1547L40.725 44.6591L49.0977 52.5552L36.2487 60.0365L27.8902 52.1547Z" fill="#45108A"/>
<path d="M14.2067 61.6244L23.9796 55.9169L30.3582 61.9248L20.5711 67.6252L14.2067 61.6244Z" fill="url(#paint2_linear)"/>
<path d="M33.7171 51.8185L33.3989 51.5181C33.2994 51.4222 33.1715 51.3619 33.0349 51.3464C32.8982 51.3309 32.7603 51.3611 32.6423 51.4323L30.5208 52.6768C30.4679 52.7084 30.4229 52.7519 30.3895 52.804C30.3561 52.8562 30.3351 52.9155 30.3282 52.9772C30.3214 53.039 30.3288 53.1015 30.35 53.1598C30.3711 53.2182 30.4054 53.2707 30.4501 53.3134L30.7683 53.6066C30.863 53.6926 30.9814 53.7476 31.1076 53.7642C31.2339 53.7808 31.3621 53.7583 31.4755 53.6996L33.5969 52.4551C33.6535 52.4282 33.7029 52.3881 33.7412 52.3382C33.7796 52.2883 33.8056 52.2299 33.8174 52.1678C33.8291 52.1057 33.8261 52.0417 33.8087 51.981C33.7913 51.9203 33.7599 51.8646 33.7171 51.8185Z" fill="url(#paint3_linear)"/>
<path d="M35.3931 53.3921L35.0749 53.0917C34.9759 52.9974 34.8493 52.9381 34.7142 52.9226C34.5791 52.9071 34.4426 52.9364 34.3253 53.0059L32.2038 54.2504C32.151 54.2811 32.106 54.324 32.0726 54.3755C32.0391 54.427 32.0181 54.4858 32.0112 54.547C32.0043 54.6083 32.0118 54.6703 32.033 54.7281C32.0541 54.7859 32.0884 54.8379 32.1331 54.8798L32.4513 55.1802C32.5503 55.2745 32.6769 55.3338 32.812 55.3493C32.9471 55.3647 33.0836 55.3355 33.2009 55.266L35.3224 54.0215C35.3752 53.9908 35.4202 53.9479 35.4536 53.8964C35.4871 53.8449 35.5081 53.7861 35.515 53.7249C35.5219 53.6636 35.5144 53.6016 35.4933 53.5438C35.4721 53.486 35.4378 53.434 35.3931 53.3921Z" fill="url(#paint4_linear)"/>
<path d="M37.062 54.9584L36.7438 54.658C36.6448 54.5637 36.5182 54.5044 36.3831 54.4889C36.248 54.4734 36.1115 54.5026 35.9942 54.5722L33.8727 55.8167C33.8186 55.8471 33.7724 55.8902 33.7381 55.9424C33.7037 55.9945 33.6822 56.0542 33.6753 56.1165C33.6683 56.1788 33.6762 56.2418 33.6983 56.3004C33.7203 56.359 33.7559 56.4114 33.802 56.4532L34.1132 56.7465C34.2125 56.8399 34.3384 56.8992 34.473 56.9159C34.6077 56.9326 34.744 56.9058 34.8627 56.8394L36.9842 55.5949C37.0376 55.564 37.0832 55.521 37.1173 55.4691C37.1514 55.4173 37.1731 55.3582 37.1807 55.2964C37.1882 55.2346 37.1814 55.1719 37.1608 55.1132C37.1402 55.0545 37.1064 55.0015 37.062 54.9584Z" fill="url(#paint5_linear)"/>
<path d="M38.7379 56.5033L38.4127 56.2029C38.3162 56.1198 38.1977 56.0673 38.0719 56.052C37.9461 56.0367 37.8186 56.0594 37.7055 56.1171L35.584 57.3616C35.5311 57.3931 35.4861 57.4366 35.4527 57.4888C35.4193 57.5409 35.3983 57.6002 35.3914 57.662C35.3846 57.7237 35.392 57.7862 35.4132 57.8446C35.4343 57.9029 35.4686 57.9555 35.5133 57.9981L35.8315 58.2985C35.9305 58.3928 36.0571 58.4521 36.1922 58.4676C36.3273 58.4831 36.4638 58.4539 36.5811 58.3843L38.7026 57.1398C38.7531 57.1053 38.7951 57.0594 38.8253 57.0057C38.8554 56.952 38.8728 56.892 38.8763 56.8304C38.8797 56.7688 38.869 56.7072 38.845 56.6505C38.821 56.5937 38.7844 56.5433 38.7379 56.5033Z" fill="url(#paint6_linear)"/>
<path d="M36.6165 50.0662L36.2983 49.7586C36.1987 49.6679 36.0737 49.6109 35.9406 49.5955C35.8075 49.5801 35.6729 49.6071 35.5557 49.6728L34.6789 50.1949C34.6259 50.2264 34.581 50.27 34.5475 50.3221C34.5141 50.3743 34.4932 50.4336 34.4863 50.4953C34.4794 50.5571 34.4869 50.6196 34.508 50.6779C34.5292 50.7363 34.5635 50.7888 34.6082 50.8315L34.9264 51.1247C35.0254 51.219 35.1519 51.2783 35.287 51.2938C35.4222 51.3093 35.5586 51.2801 35.676 51.2105L36.5458 50.6956C36.5998 50.666 36.646 50.6236 36.6805 50.572C36.7149 50.5205 36.7365 50.4613 36.7434 50.3995C36.7504 50.3377 36.7424 50.2752 36.7203 50.2171C36.6982 50.1591 36.6626 50.1073 36.6165 50.0662Z" fill="url(#paint7_linear)"/>
<path d="M38.2995 51.6397L37.9813 51.3393C37.8823 51.245 37.7557 51.1857 37.6206 51.1702C37.4855 51.1547 37.349 51.1839 37.2317 51.2534L36.3619 51.7684C36.3077 51.7989 36.2616 51.842 36.2272 51.8941C36.1929 51.9463 36.1714 52.006 36.1644 52.0683C36.1575 52.1305 36.1654 52.1936 36.1875 52.2522C36.2095 52.3107 36.2451 52.3631 36.2912 52.405L36.6023 52.7054C36.7024 52.7976 36.8288 52.8556 36.9634 52.871C37.098 52.8864 37.2339 52.8585 37.3519 52.7912L38.2288 52.2762C38.2817 52.2447 38.3267 52.2011 38.3601 52.149C38.3935 52.0969 38.4145 52.0376 38.4214 51.9758C38.4282 51.9141 38.4208 51.8515 38.3996 51.7932C38.3785 51.7349 38.3442 51.6823 38.2995 51.6397Z" fill="url(#paint8_linear)"/>
<path d="M39.9613 53.2061L39.6431 52.9271C39.5467 52.844 39.4281 52.7915 39.3023 52.7762C39.1765 52.761 39.0491 52.7836 38.9359 52.8413L38.0591 53.3634C38.0062 53.3941 37.9613 53.437 37.9278 53.4885C37.8943 53.54 37.8733 53.5988 37.8665 53.6601C37.8596 53.7213 37.867 53.7833 37.8882 53.8411C37.9094 53.8989 37.9437 53.9509 37.9883 53.9928L38.3066 54.2932C38.4032 54.3741 38.5218 54.4235 38.6468 54.435C38.7717 54.4465 38.8971 54.4195 39.0067 54.3576L39.8835 53.8426C39.9382 53.8128 39.985 53.7702 40.02 53.7184C40.055 53.6665 40.0773 53.607 40.0849 53.5447C40.0925 53.4823 40.0852 53.4191 40.0638 53.3602C40.0423 53.3013 40.0071 53.2484 39.9613 53.2061Z" fill="url(#paint9_linear)"/>
<path d="M41.6373 54.7796L41.319 54.4792C41.22 54.3849 41.0935 54.3255 40.9584 54.3101C40.8233 54.2946 40.6868 54.3238 40.5695 54.3933L39.6997 54.9083C39.6462 54.9392 39.6006 54.9823 39.5665 55.0341C39.5324 55.0859 39.5108 55.1451 39.5032 55.2069C39.4957 55.2687 39.5024 55.3314 39.523 55.3901C39.5436 55.4487 39.5775 55.5017 39.6219 55.5449L39.9401 55.8452C40.0402 55.9375 40.1666 55.9955 40.3012 56.0109C40.4357 56.0263 40.5717 55.9984 40.6897 55.9311L41.5666 55.4161C41.6195 55.3846 41.6645 55.341 41.6979 55.2889C41.7313 55.2367 41.7523 55.1775 41.7591 55.1157C41.766 55.054 41.7586 54.9914 41.7374 54.9331C41.7163 54.8748 41.682 54.8222 41.6373 54.7796Z" fill="url(#paint10_linear)"/>
<path d="M38.9006 48.7288L38.5824 48.4284C38.483 48.335 38.3571 48.2757 38.2225 48.259C38.0879 48.2423 37.9515 48.269 37.8328 48.3354L36.963 48.8575C36.91 48.8891 36.8651 48.9326 36.8317 48.9848C36.7982 49.0369 36.7773 49.0962 36.7704 49.1579C36.7635 49.2197 36.771 49.2822 36.7921 49.3406C36.8133 49.3989 36.8476 49.4515 36.8923 49.4941L37.2105 49.7873C37.305 49.874 37.4238 49.9289 37.5505 49.9443C37.6772 49.9596 37.8055 49.9348 37.9176 49.8732L38.8299 49.351C38.8814 49.3201 38.9252 49.2775 38.9578 49.2266C38.9904 49.1757 39.0109 49.1179 39.0178 49.0577C39.0246 48.9974 39.0176 48.9364 38.9973 48.8793C38.977 48.8223 38.9439 48.7708 38.9006 48.7288Z" fill="url(#paint11_linear)"/>
<path d="M40.5765 50.2951L40.2583 49.9947C40.1593 49.9004 40.0328 49.841 39.8977 49.8256C39.7625 49.8101 39.6261 49.8393 39.5087 49.9088L38.6319 50.4238C38.5789 50.4553 38.534 50.4989 38.5005 50.551C38.4671 50.6032 38.4461 50.6625 38.4393 50.7242C38.4324 50.786 38.4399 50.8485 38.461 50.9068C38.4822 50.9652 38.5164 51.0177 38.5611 51.0604L38.8794 51.3608C38.9784 51.455 39.1049 51.5144 39.24 51.5298C39.3752 51.5453 39.5116 51.5161 39.629 51.4466L40.5058 50.9316C40.5588 50.9001 40.6037 50.8565 40.6371 50.8044C40.6706 50.7522 40.6915 50.693 40.6984 50.6312C40.7053 50.5695 40.6978 50.5069 40.6767 50.4486C40.6555 50.3902 40.6212 50.3377 40.5765 50.2951Z" fill="url(#paint12_linear)"/>
<path d="M42.2454 51.8615L41.9272 51.5611C41.8242 51.4732 41.6968 51.4198 41.5625 51.4082C41.4283 51.3967 41.2938 51.4276 41.1776 51.4967L40.3078 52.0189C40.2549 52.0504 40.2099 52.094 40.1765 52.1461C40.1431 52.1982 40.1221 52.2575 40.1152 52.3193C40.1084 52.381 40.1158 52.4435 40.137 52.5019C40.1581 52.5602 40.1924 52.6128 40.2371 52.6554L40.5553 52.9487C40.6526 53.0434 40.778 53.1032 40.9122 53.1187C41.0464 53.1342 41.1819 53.1046 41.2978 53.0345L42.1747 52.5195C42.2316 52.4888 42.2803 52.4445 42.3164 52.3905C42.3525 52.3364 42.375 52.2743 42.382 52.2094C42.389 52.1446 42.3802 52.079 42.3564 52.0183C42.3326 51.9577 42.2945 51.9039 42.2454 51.8615Z" fill="url(#paint13_linear)"/>
<path d="M43.9214 53.435L43.6032 53.1346C43.5042 53.0403 43.3776 52.9809 43.2425 52.9655C43.1074 52.95 42.9709 52.9792 42.8536 53.0487L41.9767 53.5637C41.9238 53.5952 41.8788 53.6388 41.8454 53.6909C41.812 53.7431 41.791 53.8024 41.7841 53.8641C41.7773 53.9259 41.7847 53.9884 41.8059 54.0467C41.827 54.1051 41.8613 54.1576 41.906 54.2003L42.2242 54.5006C42.3243 54.5929 42.4507 54.6509 42.5853 54.6663C42.7199 54.6817 42.8558 54.6538 42.9738 54.5865L43.8436 54.0715C43.897 54.0406 43.9426 53.9975 43.9767 53.9457C44.0108 53.8939 44.0325 53.8347 44.0401 53.7729C44.0476 53.7111 44.0408 53.6484 44.0202 53.5898C43.9996 53.5311 43.9658 53.4781 43.9214 53.435Z" fill="url(#paint14_linear)"/>
<path d="M41.1847 47.384L40.8665 47.0837C40.7675 46.9894 40.6409 46.93 40.5058 46.9146C40.3707 46.8991 40.2342 46.9283 40.1169 46.9978L39.2471 47.5128C39.1941 47.5443 39.1492 47.5879 39.1158 47.64C39.0823 47.6922 39.0614 47.7515 39.0545 47.8132C39.0476 47.875 39.0551 47.9375 39.0762 47.9958C39.0974 48.0542 39.1317 48.1067 39.1764 48.1493L39.4946 48.4426C39.5919 48.5374 39.7173 48.5971 39.8515 48.6126C39.9857 48.6281 40.1212 48.5985 40.2371 48.5284L41.1281 48.0135C41.18 47.9815 41.2237 47.9377 41.2558 47.8855C41.288 47.8334 41.3076 47.7743 41.3131 47.7132C41.3186 47.652 41.3098 47.5903 41.2875 47.5332C41.2652 47.476 41.23 47.425 41.1847 47.384Z" fill="url(#paint15_linear)"/>
<path d="M42.8607 48.9504L42.5424 48.6357C42.4451 48.5409 42.3197 48.4812 42.1855 48.4657C42.0513 48.4502 41.9158 48.4798 41.7999 48.5499L40.923 49.0648C40.8701 49.0964 40.8251 49.1399 40.7917 49.1921C40.7583 49.2442 40.7373 49.3035 40.7305 49.3653C40.7236 49.427 40.731 49.4895 40.7522 49.5479C40.7733 49.6062 40.8076 49.6588 40.8523 49.7014L41.1706 50.0018C41.2696 50.0961 41.3961 50.1554 41.5312 50.1709C41.6663 50.1864 41.8028 50.1571 41.9201 50.0876L42.7899 49.5727C42.8404 49.5408 42.8831 49.4978 42.9149 49.4469C42.9466 49.396 42.9667 49.3385 42.9735 49.2788C42.9802 49.219 42.9736 49.1584 42.9541 49.1016C42.9346 49.0447 42.9026 48.9931 42.8607 48.9504Z" fill="url(#paint16_linear)"/>
<path d="M44.5295 50.524L44.2113 50.2164C44.1107 50.1251 43.9844 50.0678 43.8501 50.0524C43.7157 50.037 43.58 50.0643 43.4617 50.1306L42.5919 50.6527C42.5378 50.6832 42.4916 50.7263 42.4573 50.7784C42.4229 50.8306 42.4014 50.8903 42.3945 50.9526C42.3876 51.0148 42.3954 51.0779 42.4175 51.1364C42.4395 51.195 42.4751 51.2474 42.5212 51.2893L42.8324 51.5825C42.9314 51.6768 43.0579 51.7361 43.193 51.7516C43.3282 51.7671 43.4646 51.7379 43.5819 51.6683L44.4588 51.1534C44.5117 51.1226 44.5566 51.0798 44.5901 51.0283C44.6235 50.9767 44.6445 50.918 44.6514 50.8567C44.6583 50.7955 44.6509 50.7335 44.6297 50.6757C44.6085 50.6178 44.5742 50.5659 44.5295 50.524Z" fill="url(#paint17_linear)"/>
<path d="M46.1984 52.0903L45.8802 51.7899C45.7857 51.7032 45.6668 51.6484 45.5402 51.633C45.4135 51.6176 45.2852 51.6424 45.173 51.7041L44.2962 52.219C44.2432 52.2506 44.1983 52.2941 44.1648 52.3463C44.1314 52.3984 44.1105 52.4577 44.1036 52.5195C44.0967 52.5812 44.1042 52.6437 44.1253 52.7021C44.1465 52.7604 44.1808 52.813 44.2255 52.8556L44.5437 53.156C44.6432 53.2493 44.7697 53.3079 44.9045 53.3233C45.0394 53.3388 45.1756 53.3102 45.2933 53.2418L46.1631 52.7269C46.2149 52.6933 46.2581 52.6478 46.2891 52.594C46.3201 52.5403 46.3381 52.4799 46.3415 52.4177C46.345 52.3556 46.3338 52.2935 46.3089 52.2366C46.2841 52.1797 46.2462 52.1295 46.1984 52.0903Z" fill="url(#paint18_linear)"/>
<path d="M33.7171 51.5754L33.3989 51.275C33.2982 51.1811 33.1706 51.1222 33.0345 51.1067C32.8984 51.0913 32.761 51.1202 32.6423 51.1891L30.5208 52.4336C30.4679 52.4652 30.4229 52.5087 30.3895 52.5609C30.3561 52.613 30.3351 52.6723 30.3282 52.734C30.3214 52.7958 30.3288 52.8583 30.35 52.9167C30.3711 52.975 30.4054 53.0276 30.4501 53.0702L30.7683 53.3706C30.8647 53.4537 30.9833 53.5062 31.1091 53.5215C31.2349 53.5367 31.3623 53.5141 31.4755 53.4564L33.5969 52.2119C33.6535 52.185 33.7029 52.145 33.7412 52.095C33.7796 52.0451 33.8056 51.9867 33.8174 51.9246C33.8291 51.8625 33.8261 51.7985 33.8087 51.7378C33.7913 51.6771 33.7599 51.6214 33.7171 51.5754Z" fill="url(#paint19_linear)"/>
<path d="M35.3931 53.1488L35.0749 52.8484C34.9759 52.7541 34.8493 52.6948 34.7142 52.6793C34.5791 52.6639 34.4426 52.6931 34.3253 52.7626L32.2038 54.0071C32.151 54.0378 32.106 54.0807 32.0726 54.1322C32.0391 54.1837 32.0181 54.2425 32.0112 54.3037C32.0043 54.365 32.0118 54.427 32.033 54.4848C32.0541 54.5426 32.0884 54.5946 32.1331 54.6365L32.4513 54.9369C32.5503 55.0312 32.6769 55.0905 32.812 55.106C32.9471 55.1215 33.0836 55.0922 33.2009 55.0227L35.3224 53.7782C35.3752 53.7475 35.4202 53.7047 35.4536 53.6531C35.4871 53.6016 35.5081 53.5428 35.515 53.4816C35.5219 53.4203 35.5144 53.3583 35.4933 53.3005C35.4721 53.2427 35.4378 53.1907 35.3931 53.1488Z" fill="url(#paint20_linear)"/>
<path d="M37.062 54.7152L36.7438 54.4148C36.6415 54.325 36.5134 54.2709 36.3783 54.2606C36.2433 54.2503 36.1086 54.2843 35.9942 54.3576L33.8727 55.6021C33.8186 55.6326 33.7724 55.6757 33.7381 55.7278C33.7037 55.78 33.6822 55.8397 33.6753 55.902C33.6683 55.9642 33.6762 56.0273 33.6983 56.0858C33.7203 56.1444 33.7559 56.1968 33.802 56.2387L34.1131 56.5391C34.2138 56.6304 34.34 56.6877 34.4744 56.7031C34.6087 56.7185 34.7445 56.6911 34.8627 56.6249L36.9842 55.3804C37.043 55.3507 37.0935 55.3067 37.1313 55.2524C37.1691 55.198 37.1929 55.135 37.2006 55.069C37.2084 55.0031 37.1997 54.9362 37.1755 54.8744C37.1513 54.8126 37.1123 54.7579 37.062 54.7152Z" fill="url(#paint21_linear)"/>
<path d="M38.7379 56.2888L38.4126 55.9884C38.3181 55.9017 38.1993 55.8468 38.0726 55.8315C37.9459 55.8161 37.8176 55.8409 37.7055 55.9026L35.584 57.1471C35.5312 57.1778 35.4862 57.2206 35.4528 57.2722C35.4193 57.3237 35.3983 57.3824 35.3914 57.4437C35.3845 57.5049 35.392 57.567 35.4131 57.6248C35.4343 57.6826 35.4686 57.7345 35.5133 57.7765L35.8315 58.0769C35.9305 58.1712 36.0571 58.2305 36.1922 58.246C36.3273 58.2614 36.4638 58.2322 36.5811 58.1627L38.7026 56.9182C38.753 56.8844 38.795 56.8392 38.8252 56.7861C38.8553 56.733 38.8728 56.6736 38.8763 56.6125C38.8797 56.5513 38.869 56.4903 38.845 56.4341C38.8209 56.3779 38.7843 56.3281 38.7379 56.2888Z" fill="url(#paint22_linear)"/>
<path d="M36.6165 49.8301L36.2983 49.5297C36.201 49.435 36.0756 49.3752 35.9414 49.3597C35.8072 49.3442 35.6717 49.3738 35.5557 49.4439L34.6789 49.9589C34.6259 49.9904 34.581 50.034 34.5475 50.0861C34.5141 50.1383 34.4932 50.1975 34.4863 50.2593C34.4794 50.3211 34.4869 50.3836 34.508 50.4419C34.5292 50.5003 34.5635 50.5528 34.6082 50.5954L34.9264 50.8887C35.0257 50.9821 35.1517 51.0414 35.2863 51.0581C35.4209 51.0748 35.5573 51.048 35.676 50.9817L36.5458 50.4596C36.5998 50.4299 36.646 50.3876 36.6805 50.336C36.7149 50.2845 36.7365 50.2253 36.7434 50.1635C36.7504 50.1017 36.7424 50.0391 36.7203 49.9811C36.6982 49.9231 36.6626 49.8713 36.6165 49.8301Z" fill="url(#paint23_linear)"/>
<path d="M38.2995 51.3965L37.9813 51.0961C37.8823 51.0018 37.7557 50.9425 37.6206 50.927C37.4855 50.9115 37.349 50.9408 37.2317 51.0103L36.3619 51.5324C36.3078 51.562 36.2616 51.6044 36.2272 51.6559C36.1928 51.7075 36.1712 51.7666 36.1643 51.8284C36.1573 51.8902 36.1652 51.9528 36.1873 52.0109C36.2094 52.0689 36.245 52.1207 36.2912 52.1618L36.6023 52.4622C36.7013 52.5565 36.8279 52.6158 36.963 52.6313C37.0981 52.6468 37.2346 52.6175 37.3519 52.548L38.2288 52.0331C38.2817 52.0015 38.3267 51.958 38.3601 51.9058C38.3935 51.8537 38.4145 51.7944 38.4214 51.7326C38.4282 51.6709 38.4208 51.6084 38.3996 51.55C38.3785 51.4917 38.3442 51.4391 38.2995 51.3965Z" fill="url(#paint24_linear)"/>
<path d="M39.9613 52.9701L39.6431 52.6697C39.5481 52.5839 39.4293 52.5297 39.3029 52.5144C39.1764 52.499 39.0483 52.5233 38.9359 52.5839L38.0591 53.0989C38.0061 53.1304 37.9612 53.174 37.9277 53.2261C37.8943 53.2782 37.8733 53.3375 37.8665 53.3993C37.8596 53.461 37.8671 53.5236 37.8882 53.5819C37.9094 53.6402 37.9436 53.6928 37.9884 53.7354L38.3066 54.0287C38.4013 54.1147 38.5196 54.1696 38.6459 54.1862C38.7721 54.2028 38.9004 54.1803 39.0137 54.1217L39.8906 53.5995C39.9447 53.5699 39.9909 53.5276 40.0253 53.476C40.0597 53.4245 40.0813 53.3653 40.0882 53.3035C40.0952 53.2417 40.0873 53.1791 40.0652 53.1211C40.0431 53.063 40.0074 53.0112 39.9613 52.9701Z" fill="url(#paint25_linear)"/>
<path d="M41.6373 54.5364L41.319 54.236C41.22 54.1417 41.0935 54.0824 40.9584 54.0669C40.8233 54.0514 40.6868 54.0806 40.5695 54.1502L39.6997 54.6651C39.6462 54.696 39.6006 54.7391 39.5665 54.7909C39.5324 54.8428 39.5108 54.9019 39.5032 54.9637C39.4957 55.0255 39.5024 55.0882 39.523 55.1469C39.5436 55.2056 39.5775 55.2586 39.6219 55.3017L39.9401 55.6021C40.0391 55.6964 40.1656 55.7557 40.3008 55.7712C40.4359 55.7866 40.5723 55.7574 40.6897 55.6879L41.5666 55.1729C41.6195 55.1414 41.6645 55.0979 41.6979 55.0457C41.7313 54.9936 41.7523 54.9343 41.7591 54.8725C41.766 54.8108 41.7586 54.7483 41.7374 54.6899C41.7163 54.6316 41.682 54.579 41.6373 54.5364Z" fill="url(#paint26_linear)"/>
<path d="M38.9006 48.4856L38.5824 48.1852C38.4834 48.0909 38.3568 48.0316 38.2217 48.0161C38.0866 48.0007 37.9501 48.0299 37.8328 48.0994L36.963 48.6144C36.91 48.6459 36.8651 48.6894 36.8317 48.7416C36.7982 48.7937 36.7773 48.853 36.7704 48.9148C36.7635 48.9765 36.771 49.039 36.7921 49.0974C36.8133 49.1557 36.8476 49.2083 36.8923 49.2509L37.2105 49.5513C37.3069 49.6344 37.4255 49.6869 37.5513 49.7022C37.6771 49.7175 37.8045 49.6948 37.9176 49.6371L38.7945 49.115C38.8499 49.0876 38.898 49.0473 38.935 48.9973C38.9719 48.9474 38.9966 48.8893 39.0069 48.8278C39.0173 48.7663 39.0131 48.7032 38.9946 48.6437C38.9761 48.5842 38.9439 48.53 38.9006 48.4856Z" fill="url(#paint27_linear)"/>
<path d="M40.5765 50.0662L40.2583 49.7658C40.1593 49.6715 40.0328 49.6122 39.8977 49.5967C39.7625 49.5812 39.6261 49.6104 39.5087 49.68L38.6319 50.2021C38.579 50.2328 38.5341 50.2756 38.5006 50.3272C38.4671 50.3787 38.4461 50.4374 38.4392 50.4987C38.4324 50.5599 38.4398 50.622 38.461 50.6798C38.4822 50.7376 38.5165 50.7895 38.5611 50.8315L38.8794 51.1319C38.9784 51.2262 39.1049 51.2855 39.24 51.301C39.3752 51.3164 39.5116 51.2872 39.629 51.2177L40.5058 50.7027C40.5588 50.6712 40.6037 50.6276 40.6371 50.5755C40.6706 50.5234 40.6915 50.4641 40.6984 50.4023C40.7053 50.3406 40.6978 50.2781 40.6767 50.2197C40.6555 50.1614 40.6212 50.1088 40.5765 50.0662Z" fill="url(#paint28_linear)"/>
<path d="M42.2454 51.6254L41.9272 51.325C41.8282 51.2307 41.7017 51.1714 41.5665 51.1559C41.4314 51.1404 41.295 51.1696 41.1776 51.2392L40.3078 51.7541C40.2549 51.7857 40.2099 51.8292 40.1765 51.8814C40.1431 51.9335 40.1221 51.9928 40.1152 52.0545C40.1084 52.1163 40.1158 52.1788 40.137 52.2372C40.1581 52.2955 40.1924 52.3481 40.2371 52.3907L40.5553 52.6839C40.653 52.7777 40.7778 52.8374 40.9114 52.8541C41.0451 52.8709 41.1805 52.8438 41.2978 52.7769L42.1747 52.2548C42.2275 52.2241 42.2725 52.1812 42.306 52.1297C42.3394 52.0782 42.3604 52.0194 42.3673 51.9582C42.3742 51.8969 42.3668 51.8349 42.3456 51.7771C42.3244 51.7193 42.2901 51.6673 42.2454 51.6254Z" fill="url(#paint29_linear)"/>
<path d="M43.9214 53.1918L43.6032 52.9272C43.5042 52.8329 43.3776 52.7735 43.2425 52.7581C43.1074 52.7426 42.9709 52.7718 42.8536 52.8413L41.9767 53.3635C41.9239 53.3942 41.8789 53.437 41.8455 53.4885C41.812 53.5401 41.791 53.5988 41.7841 53.6601C41.7772 53.7213 41.7847 53.7834 41.8058 53.8412C41.827 53.899 41.8613 53.9509 41.906 53.9929L42.2242 54.2933C42.3232 54.3876 42.4498 54.4469 42.5849 54.4623C42.72 54.4778 42.8565 54.4486 42.9738 54.3791L43.8436 53.8641C43.9038 53.8349 43.9557 53.7907 43.9945 53.7357C44.0333 53.6807 44.0577 53.6167 44.0655 53.5496C44.0733 53.4825 44.0641 53.4145 44.0389 53.352C44.0137 53.2894 43.9733 53.2343 43.9214 53.1918Z" fill="url(#paint30_linear)"/>
<path d="M41.1847 47.1409L40.8665 46.8405C40.7675 46.7462 40.6409 46.6869 40.5058 46.6714C40.3707 46.6559 40.2342 46.6851 40.1169 46.7547L39.2471 47.2696C39.1941 47.3012 39.1492 47.3447 39.1158 47.3969C39.0823 47.449 39.0614 47.5083 39.0545 47.57C39.0476 47.6318 39.0551 47.6943 39.0762 47.7527C39.0974 47.811 39.1317 47.8636 39.1764 47.9062L39.4946 48.2066C39.5941 48.2973 39.7192 48.3543 39.8523 48.3697C39.9854 48.3851 40.1199 48.3581 40.2371 48.2924L41.1281 47.7703C41.18 47.7383 41.2237 47.6945 41.2558 47.6424C41.288 47.5902 41.3076 47.5312 41.3131 47.47C41.3186 47.4088 41.3098 47.3472 41.2875 47.29C41.2652 47.2329 41.23 47.1818 41.1847 47.1409Z" fill="url(#paint31_linear)"/>
<path d="M42.8606 48.7073L42.5354 48.4069C42.4381 48.3122 42.3127 48.2524 42.1785 48.2369C42.0443 48.2214 41.9088 48.251 41.7928 48.3211L40.916 48.8432C40.8631 48.874 40.8182 48.9168 40.7847 48.9683C40.7513 49.0199 40.7302 49.0786 40.7234 49.1399C40.7165 49.2011 40.7239 49.2631 40.7451 49.3209C40.7663 49.3788 40.8006 49.4307 40.8453 49.4726L41.1635 49.773C41.2625 49.8673 41.389 49.9267 41.5241 49.9421C41.6593 49.9576 41.7957 49.9284 41.9131 49.8589L42.7829 49.3511C42.8376 49.3204 42.8843 49.2771 42.9193 49.2246C42.9543 49.1722 42.9765 49.1121 42.9841 49.0493C42.9917 48.9865 42.9844 48.9227 42.963 48.8633C42.9415 48.8039 42.9065 48.7504 42.8606 48.7073Z" fill="url(#paint32_linear)"/>
<path d="M44.5295 50.2808L44.2113 49.9804C44.1123 49.8861 43.9858 49.8268 43.8506 49.8113C43.7155 49.7958 43.5791 49.825 43.4617 49.8946L42.5919 50.4095C42.5378 50.44 42.4916 50.4831 42.4573 50.5352C42.4229 50.5874 42.4014 50.6471 42.3945 50.7094C42.3876 50.7717 42.3954 50.8347 42.4175 50.8933C42.4395 50.9518 42.4751 51.0042 42.5212 51.0461L42.8324 51.3465C42.933 51.4378 43.0593 51.4951 43.1936 51.5105C43.3279 51.5259 43.4637 51.4986 43.5819 51.4323L44.4588 50.9102C44.5117 50.8795 44.5566 50.8366 44.5901 50.7851C44.6235 50.7336 44.6445 50.6748 44.6514 50.6136C44.6583 50.5523 44.6509 50.4903 44.6297 50.4325C44.6085 50.3747 44.5742 50.3227 44.5295 50.2808Z" fill="url(#paint33_linear)"/>
<path d="M46.1984 51.8471L45.8802 51.5467C45.7857 51.46 45.6668 51.4052 45.5401 51.3898C45.4135 51.3744 45.2852 51.3993 45.173 51.4609L44.2962 51.983C44.2433 52.0138 44.1984 52.0566 44.1649 52.1081C44.1315 52.1597 44.1104 52.2184 44.1036 52.2797C44.0967 52.3409 44.1041 52.4029 44.1253 52.4607C44.1465 52.5185 44.1808 52.5705 44.2255 52.6124L44.5437 52.9128C44.6427 53.0071 44.7692 53.0665 44.9043 53.0819C45.0395 53.0974 45.1759 53.0682 45.2933 52.9987L46.1631 52.4837C46.2149 52.4501 46.2581 52.4046 46.2891 52.3509C46.3201 52.2971 46.3381 52.2367 46.3415 52.1746C46.345 52.1124 46.3338 52.0503 46.3089 51.9934C46.2841 51.9365 46.2462 51.8864 46.1984 51.8471Z" fill="url(#paint34_linear)"/>
<g style="mix-blend-mode:screen">
<path style="mix-blend-mode:screen" d="M38.8299 49.1149L37.953 49.637C37.8399 49.6947 37.7124 49.7173 37.5866 49.7021C37.4608 49.6868 37.3423 49.6343 37.2459 49.5512L36.9276 49.2508C36.8796 49.2032 36.8441 49.1443 36.8244 49.0794C36.8046 49.0144 36.8012 48.9455 36.8145 48.8789C36.8243 48.9663 36.8643 49.0474 36.9276 49.1077L37.2459 49.4081C37.3404 49.4948 37.4592 49.5497 37.5859 49.5651C37.7126 49.5804 37.8409 49.5556 37.953 49.494L38.8299 48.979C38.8776 48.9509 38.9188 48.9128 38.9505 48.8671C38.9823 48.8214 39.0038 48.7693 39.0137 48.7144C39.0272 48.7921 39.0169 48.8722 38.984 48.9438C38.9511 49.0154 38.8973 49.0751 38.8299 49.1149Z" fill="url(#paint35_radial)"/>
<path style="mix-blend-mode:screen" d="M36.5953 52.4622L36.2841 52.1618C36.235 52.1166 36.1986 52.059 36.1787 51.9949C36.1589 51.9308 36.1562 51.8625 36.171 51.797C36.1819 51.8841 36.2218 51.9648 36.2841 52.0259L36.5953 52.3191C36.6943 52.4134 36.8208 52.4728 36.9559 52.4882C37.0911 52.5037 37.2275 52.4745 37.3448 52.405L38.2217 51.89C38.2684 51.8616 38.3085 51.8231 38.339 51.7774C38.3695 51.7317 38.3898 51.6798 38.3985 51.6254C38.4153 51.7035 38.4073 51.785 38.3755 51.8582C38.3438 51.9314 38.2899 51.9926 38.2217 52.0331L37.3448 52.548C37.2275 52.6175 37.0911 52.6468 36.9559 52.6313C36.8208 52.6158 36.6943 52.5565 36.5953 52.4622Z" fill="url(#paint36_radial)"/>
<path style="mix-blend-mode:screen" d="M36.5458 50.4595L35.676 50.9816C35.5573 51.048 35.4209 51.0747 35.2863 51.058C35.1517 51.0413 35.0257 50.982 34.9264 50.8886L34.6082 50.5954C34.5601 50.5478 34.5246 50.4889 34.5049 50.424C34.4851 50.359 34.4817 50.2901 34.495 50.2235C34.5048 50.3109 34.5449 50.392 34.6082 50.4523L34.9264 50.7527C35.0254 50.847 35.1519 50.9064 35.2871 50.9218C35.4222 50.9373 35.5586 50.9081 35.676 50.8386L36.5458 50.3236C36.5935 50.2956 36.6347 50.2574 36.6664 50.2117C36.6981 50.166 36.7197 50.1139 36.7296 50.059C36.7431 50.1367 36.7327 50.2168 36.6999 50.2884C36.667 50.36 36.6132 50.4197 36.5458 50.4595Z" fill="url(#paint37_radial)"/>
<path style="mix-blend-mode:screen" d="M42.7829 49.351L41.9131 49.866C41.7914 49.9435 41.6472 49.9765 41.5044 49.9596C41.3616 49.9427 41.2288 49.8768 41.1281 49.773L40.8099 49.4726C40.7614 49.4271 40.726 49.3691 40.7073 49.3049C40.6886 49.2407 40.6874 49.1726 40.7038 49.1078C40.7123 49.1941 40.7497 49.2749 40.8099 49.3367L41.1281 49.6299C41.2274 49.7233 41.3534 49.7826 41.488 49.7993C41.6226 49.816 41.759 49.7893 41.8777 49.7229L42.7475 49.2008C42.7959 49.1735 42.8375 49.1356 42.8694 49.0897C42.9012 49.0439 42.9224 48.9914 42.9314 48.9362C42.9505 49.0124 42.9465 49.0927 42.92 49.1666C42.8936 49.2406 42.8458 49.3048 42.7829 49.351Z" fill="url(#paint38_radial)"/>
<path style="mix-blend-mode:screen" d="M41.1281 47.7703L40.2513 48.2924C40.1341 48.358 39.9995 48.3851 39.8664 48.3697C39.7333 48.3543 39.6083 48.2973 39.5087 48.2066L39.1905 47.9062C39.1414 47.8594 39.1051 47.8006 39.0853 47.7354C39.0655 47.6702 39.0627 47.6008 39.0774 47.5343C39.0871 47.6217 39.1272 47.7028 39.1905 47.7631L39.5087 48.0635C39.606 48.1583 39.7315 48.218 39.8656 48.2335C39.9998 48.249 40.1353 48.2195 40.2513 48.1493L41.1281 47.6344C41.175 47.6053 41.2155 47.5668 41.2471 47.5213C41.2787 47.4758 41.3008 47.4242 41.312 47.3698C41.3255 47.4475 41.3151 47.5276 41.2822 47.5992C41.2494 47.6708 41.1956 47.7305 41.1281 47.7703Z" fill="url(#paint39_radial)"/>
<path style="mix-blend-mode:screen" d="M40.5553 52.6839L40.2371 52.3907C40.188 52.3439 40.1517 52.2851 40.1319 52.2199C40.1121 52.1546 40.1093 52.0853 40.124 52.0188C40.1337 52.1062 40.1738 52.1873 40.2371 52.2476L40.5553 52.548C40.6526 52.6428 40.778 52.7025 40.9122 52.718C41.0464 52.7335 41.1819 52.704 41.2978 52.6338L42.1747 52.1189C42.2219 52.0901 42.2626 52.0517 42.2942 52.0062C42.3259 51.9606 42.3478 51.9089 42.3586 51.8542C42.3721 51.932 42.3617 52.0121 42.3288 52.0837C42.296 52.1553 42.2422 52.215 42.1747 52.2548L41.2978 52.7769C41.1805 52.8438 41.0451 52.8709 40.9114 52.8541C40.7778 52.8374 40.653 52.7777 40.5553 52.6839Z" fill="url(#paint40_radial)"/>
<path style="mix-blend-mode:screen" d="M44.4588 50.9101L43.582 51.4322C43.4637 51.4985 43.3279 51.5258 43.1936 51.5104C43.0593 51.495 42.933 51.4377 42.8324 51.3464L42.5212 51.046C42.4721 50.9992 42.4358 50.9404 42.416 50.8752C42.3962 50.81 42.3934 50.7407 42.4081 50.6741C42.4178 50.7615 42.4579 50.8426 42.5212 50.9029L42.8324 51.2033C42.9314 51.2976 43.0579 51.357 43.193 51.3724C43.3282 51.3879 43.4646 51.3587 43.582 51.2892L44.4588 50.7814C44.5057 50.7523 44.5462 50.7138 44.5778 50.6683C44.6094 50.6228 44.6315 50.5712 44.6427 50.5167C44.6547 50.5934 44.6435 50.6719 44.6107 50.7421C44.5779 50.8123 44.525 50.8708 44.4588 50.9101Z" fill="url(#paint41_radial)"/>
<path style="mix-blend-mode:screen" d="M38.8794 51.1176L38.5612 50.8172C38.5127 50.7717 38.4772 50.7137 38.4586 50.6495C38.4399 50.5854 38.4387 50.5172 38.4551 50.4524C38.4665 50.5379 38.5035 50.6178 38.5612 50.6813L38.8794 50.9745C38.9784 51.0688 39.1049 51.1282 39.24 51.1436C39.3752 51.1591 39.5116 51.1299 39.629 51.0604L40.5058 50.5454C40.5526 50.517 40.5926 50.4785 40.6231 50.4328C40.6537 50.3871 40.674 50.3352 40.6826 50.2808C40.6994 50.3589 40.6914 50.4404 40.6596 50.5136C40.6279 50.5868 40.574 50.648 40.5058 50.6884L39.629 51.2034C39.5116 51.2729 39.3752 51.3021 39.24 51.2867C39.1049 51.2712 38.9784 51.2119 38.8794 51.1176Z" fill="url(#paint42_radial)"/>
<path style="mix-blend-mode:screen" d="M33.7949 56.067L34.1061 56.3674C34.2051 56.4617 34.3316 56.521 34.4667 56.5365C34.6019 56.552 34.7383 56.5228 34.8557 56.4532L36.9771 55.2087C37.0255 55.1815 37.0671 55.1435 37.099 55.0977C37.1308 55.0519 37.152 54.9994 37.161 54.9441C37.175 55.0229 37.1649 55.1042 37.1321 55.177C37.0992 55.2498 37.0452 55.3108 36.9771 55.3518L34.8557 56.5963C34.7367 56.6616 34.6005 56.6877 34.4662 56.6711C34.3318 56.6544 34.2059 56.5957 34.1061 56.5033L33.7949 56.2029C33.7458 56.1562 33.7095 56.0973 33.6897 56.0321C33.6699 55.9669 33.6671 55.8976 33.6818 55.831C33.6899 55.9209 33.7301 56.0048 33.7949 56.067Z" fill="url(#paint43_radial)"/>
<path style="mix-blend-mode:screen" d="M32.119 54.5006L32.4372 54.801C32.5378 54.8923 32.6641 54.9496 32.7984 54.965C32.9328 54.9804 33.0685 54.9531 33.1868 54.8868L35.3082 53.6423C35.3541 53.6128 35.3934 53.5741 35.4238 53.5286C35.4543 53.4831 35.4751 53.4317 35.485 53.3777C35.5013 53.4548 35.493 53.5351 35.4612 53.6071C35.4294 53.6791 35.3759 53.739 35.3082 53.7782L33.1868 55.0227C33.0694 55.0922 32.933 55.1215 32.7979 55.106C32.6627 55.0905 32.5362 55.0312 32.4372 54.9369L32.119 54.6365C32.0705 54.591 32.035 54.5331 32.0164 54.4689C31.9977 54.4047 31.9965 54.3366 32.0129 54.2717C32.0213 54.358 32.0588 54.4388 32.119 54.5006Z" fill="url(#paint44_radial)"/>
<path style="mix-blend-mode:screen" d="M30.4501 52.9271L30.7683 53.2275C30.8628 53.3142 30.9817 53.3691 31.1084 53.3844C31.2351 53.3998 31.3634 53.375 31.4755 53.3133L33.5969 52.0688C33.6453 52.0416 33.687 52.0036 33.7188 51.9578C33.7506 51.912 33.7718 51.8595 33.7808 51.8042C33.7948 51.883 33.7847 51.9643 33.7519 52.0371C33.719 52.11 33.665 52.1709 33.5969 52.2119L31.4755 53.4564C31.3623 53.5141 31.2349 53.5367 31.1091 53.5214C30.9833 53.5062 30.8647 53.4537 30.7683 53.3706L30.4501 53.0702C30.401 53.0234 30.3647 52.9645 30.3449 52.8993C30.325 52.8341 30.3223 52.7648 30.337 52.6982C30.3467 52.7857 30.3868 52.8668 30.4501 52.9271Z" fill="url(#paint45_radial)"/>
<path style="mix-blend-mode:screen" d="M35.4709 57.6405L35.7891 57.9409C35.8897 58.0322 36.016 58.0895 36.1503 58.1049C36.2847 58.1203 36.4204 58.093 36.5387 58.0267L38.6602 56.7822C38.7073 56.7535 38.748 56.7151 38.7797 56.6695C38.8113 56.6239 38.8332 56.5722 38.844 56.5176C38.8586 56.5954 38.8487 56.6759 38.8157 56.7477C38.7827 56.8196 38.7283 56.8791 38.6602 56.9181L36.5387 58.1626C36.4214 58.2321 36.2849 58.2614 36.1498 58.2459C36.0147 58.2304 35.8881 58.1711 35.7891 58.0768L35.4709 57.7764C35.4224 57.7309 35.387 57.673 35.3683 57.6088C35.3496 57.5446 35.3484 57.4764 35.3648 57.4116C35.3732 57.4979 35.4107 57.5787 35.4709 57.6405Z" fill="url(#paint46_radial)"/>
<path style="mix-blend-mode:screen" d="M44.1901 52.4765L44.5083 52.7697C44.6073 52.864 44.7339 52.9233 44.869 52.9388C45.0041 52.9543 45.1406 52.9251 45.2579 52.8555L46.1277 52.3406C46.1761 52.3133 46.2177 52.2753 46.2496 52.2295C46.2814 52.1837 46.3026 52.1312 46.3116 52.0759C46.3256 52.1547 46.3155 52.236 46.2826 52.3088C46.2498 52.3817 46.1957 52.4427 46.1277 52.4836L45.2579 52.9986C45.142 53.07 45.0065 53.1016 44.8714 53.0887C44.7363 53.0758 44.609 53.0191 44.5083 52.9271L44.1901 52.6267C44.1421 52.5806 44.1066 52.5229 44.0868 52.4591C44.067 52.3953 44.0636 52.3274 44.077 52.2619C44.0908 52.3439 44.1305 52.4191 44.1901 52.4765Z" fill="url(#paint47_radial)"/>
<path style="mix-blend-mode:screen" d="M38.2995 54.0285L37.9813 53.7353C37.9333 53.6877 37.8978 53.6288 37.878 53.5639C37.8582 53.4989 37.8549 53.43 37.8681 53.3634C37.8779 53.4508 37.918 53.5319 37.9813 53.5922L38.2995 53.8926C38.3945 53.9784 38.5133 54.0326 38.6397 54.048C38.7662 54.0633 38.8943 54.0391 39.0067 53.9785L39.8835 53.4635C39.9307 53.4347 39.9714 53.3963 40.003 53.3508C40.0347 53.3052 40.0566 53.2535 40.0674 53.1989C40.0809 53.2766 40.0705 53.3567 40.0376 53.4283C40.0048 53.4999 39.951 53.5596 39.8835 53.5994L39.0067 54.1215C38.8933 54.1802 38.7651 54.2027 38.6388 54.1861C38.5126 54.1695 38.3942 54.1145 38.2995 54.0285Z" fill="url(#paint48_radial)"/>
<path style="mix-blend-mode:screen" d="M41.906 53.8212L42.2242 54.1144C42.3232 54.2087 42.4498 54.268 42.5849 54.2835C42.72 54.299 42.8565 54.2698 42.9738 54.2003L43.8436 53.6853C43.892 53.658 43.9336 53.6201 43.9655 53.5742C43.9973 53.5284 44.0185 53.4759 44.0275 53.4207C44.0425 53.4995 44.0329 53.5811 44 53.6542C43.967 53.7273 43.9123 53.7882 43.8436 53.8283L42.9738 54.3433C42.8565 54.4128 42.72 54.442 42.5849 54.4266C42.4498 54.4111 42.3232 54.3518 42.2242 54.2575L41.906 53.9571C41.8575 53.9116 41.8221 53.8536 41.8034 53.7894C41.7847 53.7252 41.7835 53.6571 41.7999 53.5923C41.8083 53.6786 41.8458 53.7594 41.906 53.8212Z" fill="url(#paint49_radial)"/>
<path style="mix-blend-mode:screen" d="M39.6219 55.1658L39.9401 55.459C40.0391 55.5533 40.1657 55.6127 40.3008 55.6281C40.4359 55.6436 40.5724 55.6144 40.6897 55.5449L41.5666 55.0299C41.6133 55.0015 41.6533 54.963 41.6839 54.9173C41.7144 54.8716 41.7347 54.8197 41.7434 54.7653C41.7602 54.8434 41.7521 54.9249 41.7204 54.9981C41.6886 55.0713 41.6348 55.1325 41.5666 55.1729L40.6897 55.6879C40.5724 55.7574 40.4359 55.7867 40.3008 55.7712C40.1657 55.7557 40.0391 55.6964 39.9401 55.6021L39.6219 55.3017C39.5728 55.2551 39.537 55.1959 39.5184 55.1305C39.4997 55.065 39.4988 54.9957 39.5158 54.9298C39.5258 55.0178 39.5629 55.1003 39.6219 55.1658Z" fill="url(#paint50_radial)"/>
</g>
<path d="M13.4642 29.861V57.1328L41.7009 40.6324V13.3749L13.4642 29.861Z" fill="url(#paint51_linear)"/>
<path d="M37.8752 41.0185V19.4329L16.7313 31.7921V53.3921L37.8752 41.0185Z" fill="#25054D"/>
<path d="M36.5458 40.239V21.7645L18.0537 32.5717V51.0604L36.5458 40.239Z" fill="url(#paint52_linear)"/>
<path d="M57.7604 54.3934V82.2302L18.9305 104.889V77.102L57.7604 54.3934Z" fill="url(#paint53_linear)"/>
<path d="M18.9305 77.102L11.166 29.3389L3.65599 24.7471V95.9055L18.9305 104.889V77.102Z" fill="#4FACFE"/>
<path d="M48.0512 10.7928L41.6514 14.2975L41.7009 40.6323L54.8399 52.8914L54.9884 53.0344L48.0512 10.7928Z" fill="url(#paint54_linear)"/>
<path d="M50.0383 6.65881L57.7604 54.3934L18.8669 77.102L11.166 29.3245L50.0383 6.65881ZM20.8752 72.9536L54.9884 53.0344L48.0512 10.7929L13.938 30.7049L20.8752 72.9536Z" fill="#1987ED"/>
<path style="mix-blend-mode:color-dodge" d="M18.8881 77.1019L10.7558 29.1385L3.65599 24.747L11.4983 28.7237L50.0383 6.65161L11.7458 29.3817L18.8881 77.1019Z" fill="url(#paint55_radial)"/>
<path style="mix-blend-mode:color-dodge" d="M16.8869 74.6916C18.3012 77.1234 28.5478 73.7117 39.8057 67.0744C51.0637 60.437 59.0545 53.0916 57.6543 50.6241C56.2542 48.1565 45.9934 51.6397 34.7637 58.277C23.5341 64.9144 15.4867 72.2384 16.8869 74.6916Z" fill="url(#paint56_radial)"/>
<path d="M25.7546 37.8644V32.5288L28.9438 30.6692V36.0048L31.2138 34.6816L27.3527 42.7638L23.4846 39.1948L25.7546 37.8644Z" fill="url(#paint57_linear)"/>
<path d="M54.9884 75.8289V68.9626L21.6955 88.417V95.3046L54.9884 75.8289Z" fill="#45108A"/>
<path d="M53.5953 74.4128V72.0024L23.0886 89.8332V92.265L53.5953 74.4128Z" fill="url(#paint58_linear)"/>
<path d="M34.7708 77.0233V71.1155L21.7521 78.7184V84.6334L34.7708 77.0233Z" fill="#45108A"/>
<path d="M34.0071 75.7359V74.4843L22.5158 81.2003V82.4591L34.0071 75.7359Z" fill="url(#paint59_radial)"/>
<path d="M34.0071 74.4771V73.1467L22.5158 79.8628V81.2002L34.0071 74.4771Z" fill="url(#paint60_linear)"/>
<path d="M38.5753 100.183L68 83.0027L53.1498 74.3269L23.725 91.5068L38.5753 100.183Z" fill="url(#paint61_linear)"/>
<path opacity="0.5" d="M38.2076 99.2026L32.0129 94.1173L26.5466 90.72L25.2525 91.5854L38.2076 99.2026Z" fill="url(#paint62_linear)"/>
<path opacity="0.5" d="M48.2775 93.7168L42.797 96.9139L33.6181 91.5568L39.9755 87.8447L48.2775 93.7168Z" fill="url(#paint63_linear)"/>
<path opacity="0.5" d="M38.7167 87.6445L48.4684 94.3963L52.9093 91.707L41.9413 85.1913L38.7167 87.6445Z" fill="url(#paint64_linear)"/>
<path opacity="0.8" d="M61.0275 87.0723L68 83.0027L53.1498 74.3269L46.1772 78.4037L61.0275 87.0723Z" fill="url(#paint65_linear)"/>
<path d="M48.7654 80.0488L52.0607 78.1248L50.1231 76.9875L46.8278 78.9115L48.7654 80.0488Z" fill="#4B61B8"/>
<path d="M65.0653 83.1243C64.9368 83.2027 64.7909 83.2469 64.641 83.253C64.4998 83.2612 64.3594 83.2263 64.2379 83.1529C64.1106 83.0814 64.0611 82.9956 64.0894 82.9097C64.153 82.7887 64.2552 82.6929 64.3794 82.6379L64.6481 82.4949L63.4671 81.7797L62.3498 82.4305L62.7388 82.6666L63.4954 82.2517L63.9268 82.5092L63.7854 82.5807C63.696 82.6324 63.6169 82.7002 63.552 82.781C63.5057 82.8399 63.4807 82.9131 63.4813 82.9884C63.4848 83.0663 63.5119 83.1412 63.5591 83.203C63.6295 83.2837 63.7132 83.3515 63.8066 83.4032C63.9316 83.4722 64.0646 83.5251 64.2026 83.5606C64.342 83.5902 64.4845 83.6023 64.6269 83.5963C64.768 83.5871 64.9078 83.5631 65.0441 83.5248C65.1796 83.4824 65.3101 83.4248 65.433 83.3532C65.5224 83.3004 65.6075 83.2406 65.6876 83.1744C65.7484 83.1261 65.8009 83.0681 65.8432 83.0027L65.3835 82.8668C65.3499 82.9132 65.312 82.9563 65.2704 82.9956C65.2056 83.0441 65.137 83.0871 65.0653 83.1243Z" fill="#271273"/>
<path d="M63.0075 83.3889C62.6787 83.1708 62.3072 83.0268 61.9185 82.9669C61.6149 82.9321 61.3081 82.9946 61.0416 83.1457C60.7729 83.3031 60.6668 83.4748 60.7304 83.6607C60.7941 83.8467 61.0204 84.0541 61.4376 84.2901C61.7702 84.4966 62.1406 84.6328 62.5266 84.6907C62.8325 84.7261 63.1417 84.6636 63.4106 84.5119C63.6793 84.3545 63.7783 84.1757 63.7005 83.9826C63.5357 83.717 63.2936 83.5096 63.0075 83.3889ZM62.5832 83.6321C62.7828 83.7312 62.9608 83.8699 63.1065 84.0398C63.1913 84.1542 63.1701 84.2544 63.0358 84.3259C62.9639 84.3653 62.8851 84.39 62.8038 84.3986C62.7225 84.4072 62.6403 84.3995 62.562 84.376C62.3122 84.307 62.0738 84.201 61.8548 84.0612C61.6605 83.96 61.4857 83.8243 61.3386 83.6607C61.2537 83.5463 61.282 83.4461 61.4164 83.3675C61.5667 83.2966 61.7369 83.2814 61.8973 83.3246C62.1398 83.3918 62.371 83.4955 62.5832 83.6321Z" fill="#271273"/>
<path d="M61.1689 84.4617C60.8375 84.254 60.4663 84.12 60.0799 84.0684C59.7769 84.0283 59.4693 84.0885 59.203 84.24C58.9272 84.3974 58.8282 84.569 58.8848 84.755C59.0459 85.0375 59.2944 85.2587 59.5919 85.3844C59.9225 85.595 60.2938 85.7316 60.6809 85.7849C60.9847 85.8228 61.2924 85.7601 61.5578 85.6061C61.8336 85.4488 61.9326 85.2771 61.8548 85.084C61.6942 84.8107 61.4549 84.5936 61.1689 84.4617ZM60.7446 84.7049C60.9412 84.8089 61.1183 84.9469 61.2679 85.1126C61.3527 85.227 61.3245 85.3272 61.1972 85.4058C61.0477 85.4791 60.8774 85.4969 60.7163 85.4559C60.4675 85.3842 60.2295 85.2783 60.0091 85.1412C59.8151 85.0395 59.6403 84.9039 59.4929 84.7407C59.4081 84.6191 59.4293 84.5261 59.5707 84.4474C59.7183 84.3674 59.891 84.3494 60.0516 84.3974C60.2955 84.4671 60.5287 84.5706 60.7446 84.7049Z" fill="#271273"/>
<path d="M37.1681 93.631L40.329 94.9828L38.0308 96.635L36.1922 96.9497L34.6435 94.9685L37.1681 93.631Z" fill="url(#paint66_linear)"/>
<path opacity="0.5" d="M33.1868 92.0646L42.2242 86.7862L37.062 83.7679L28.0175 89.0463L33.1868 92.0646Z" fill="url(#paint67_linear)"/>
<g opacity="0.8">
<path opacity="0.8" d="M39.6148 87.5658C39.3745 87.7112 39.1025 87.7947 38.8228 87.809C38.5747 87.8139 38.33 87.7495 38.1157 87.623C37.8752 87.4871 37.7833 87.3369 37.8399 87.1796C37.9545 86.9543 38.1416 86.7752 38.3702 86.6718L38.8582 86.4143L36.6943 85.1483L34.6435 86.3427L35.3507 86.7647L36.765 85.9565L37.557 86.4214L37.2954 86.5502C37.132 86.646 36.9881 86.7722 36.8711 86.9221C36.7799 87.0297 36.7299 87.1666 36.7299 87.3083C36.7299 87.45 36.7799 87.587 36.8711 87.6945C36.995 87.844 37.1463 87.9678 37.3166 88.0593C37.5368 88.1915 37.7751 88.2903 38.0237 88.3525C38.2765 88.4096 38.5359 88.4313 38.7945 88.4169C39.0537 88.4042 39.3103 88.3586 39.5582 88.281C39.8054 88.2077 40.0428 88.1044 40.2654 87.9735C40.4293 87.8765 40.5854 87.7665 40.7321 87.6445C40.8414 87.5572 40.9368 87.4535 41.015 87.3369L40.1664 87.0866C40.1081 87.1715 40.0391 87.2484 39.9613 87.3155C39.8528 87.4084 39.7369 87.4921 39.6148 87.5658Z" fill="#3D065F"/>
<path opacity="0.8" d="M35.8315 88.0451C35.2245 87.6663 34.5447 87.4225 33.8374 87.3298C33.282 87.2592 32.7189 87.3721 32.2321 87.6517C31.73 87.9378 31.525 88.2596 31.6523 88.5958C31.9439 89.1075 32.39 89.5111 32.9251 89.7473C33.5364 90.128 34.2212 90.3719 34.9335 90.4626C35.4904 90.5354 36.0556 90.425 36.5458 90.1478C37.0172 89.857 37.194 89.5351 37.0761 89.1823C36.7892 88.6808 36.3539 88.283 35.8315 88.0451ZM35.0607 88.4957C35.419 88.6739 35.7424 88.9162 36.0154 89.2109C36.171 89.4255 36.1285 89.6043 35.8881 89.7473C35.6172 89.8868 35.3049 89.9199 35.0112 89.8403C34.5498 89.7122 34.1091 89.517 33.703 89.261C33.3433 89.0851 33.0195 88.8425 32.7483 88.5457C32.5928 88.3383 32.6423 88.1595 32.8898 88.0093C33.1632 87.869 33.4789 87.8384 33.7737 87.9235C34.2261 88.0551 34.659 88.2476 35.0607 88.4957Z" fill="#3D065F"/>
<path opacity="0.8" d="M32.4584 90.019C31.8492 89.6448 31.1704 89.4014 30.4642 89.3038C29.909 89.2367 29.347 89.3494 28.859 89.6256C28.3569 89.9189 28.1518 90.2336 28.2791 90.5769C28.576 91.0842 29.0206 91.4864 29.552 91.7284C30.1657 92.1039 30.8494 92.3474 31.5603 92.4436C32.1178 92.5098 32.6818 92.3972 33.1726 92.1218C33.6677 91.8357 33.8444 91.5138 33.703 91.1562C33.4161 90.6547 32.9807 90.257 32.4584 90.019ZM31.6805 90.4696C32.0422 90.6457 32.3683 90.8882 32.6423 91.1848C32.7979 91.3994 32.7554 91.5782 32.515 91.7141C32.246 91.8599 31.9312 91.8933 31.6381 91.8071C31.1766 91.6824 30.7358 91.4896 30.3299 91.2349C29.9717 91.0566 29.6483 90.8143 29.3752 90.5197C29.2196 90.3051 29.2621 90.1263 29.5167 89.9833C29.6497 89.9104 29.7959 89.8652 29.9465 89.8505C30.0971 89.8357 30.2491 89.8517 30.3935 89.8974C30.8491 90.0201 31.2832 90.2131 31.6805 90.4696Z" fill="#3D065F"/>
</g>
<g style="mix-blend-mode:hard-light">
<g style="mix-blend-mode:hard-light">
<path d="M41.1776 84.6977L42.2949 84.5832L41.2978 84.2685L41.4605 83.6177L40.6402 84.0754L39.6219 83.7893L40.1098 84.383L39.3249 84.8622L40.4422 84.7692L40.9796 85.3485L41.1776 84.6977Z" fill="#F7AA90"/>
</g>
<g style="mix-blend-mode:hard-light">
<path d="M51.99 91.0132L53.1073 90.8916L52.1102 90.584L52.2729 89.926L51.4526 90.3909L50.4343 90.0977L50.9222 90.6985L50.1373 91.1777L51.2546 91.0847L51.792 91.664L51.99 91.0132Z" fill="#F7AA90"/>
</g>
<g style="mix-blend-mode:hard-light">
<path d="M54.0691 89.0034L55.1793 88.8818L54.1822 88.5743L54.3448 87.9163L53.5245 88.374L52.5062 88.0879L52.9942 88.6887L52.2092 89.1608L53.3336 89.0678L53.864 89.6543L54.0691 89.0034Z" fill="#F7AA90"/>
</g>
<g style="mix-blend-mode:hard-light">
<path d="M44.6639 83.5105L45.7812 83.3889L44.7841 83.0814L44.9397 82.4233L44.1194 82.8882L43.1011 82.6021L43.589 83.1958L42.8041 83.675L43.9284 83.582L44.4588 84.1613L44.6639 83.5105Z" fill="#F7AA90"/>
</g>
<g style="mix-blend-mode:hard-light">
<path d="M48.7088 83.5033L49.8261 83.3817L48.829 83.0741L48.9846 82.4161L48.1643 82.881L47.1531 82.5878L47.641 83.1886L46.849 83.6678L47.9734 83.5748L48.5037 84.1541L48.7088 83.5033Z" fill="#F7AA90"/>
</g>
<g style="mix-blend-mode:hard-light">
<path d="M54.1186 86.6574L55.2359 86.543L54.2388 86.2283L54.3943 85.5774L53.574 86.0351L52.5557 85.749L53.0437 86.3427L52.2587 86.8219L53.3831 86.7289L53.9135 87.3154L54.1186 86.6574Z" fill="#F7AA90"/>
</g>
<g style="mix-blend-mode:hard-light">
<path d="M52.0254 84.5904L53.1427 84.4689L52.1456 84.1613L52.3012 83.5033L51.4809 83.961L50.4626 83.6821L50.9576 84.2757L50.1726 84.755L51.2899 84.662L51.8274 85.2413L52.0254 84.5904Z" fill="#F7AA90"/>
</g>
<g style="mix-blend-mode:hard-light">
<path d="M48.6664 92.1576L48.4613 92.8084L47.9309 92.2291L46.8066 92.3149L47.5915 91.8429L47.1036 91.2421L48.1219 91.5282L48.9422 91.0704L48.7795 91.7284L49.7837 92.036L48.6664 92.1576Z" fill="#F7AA90"/>
</g>
<g style="mix-blend-mode:hard-light">
<path d="M39.2612 86.6645L39.0562 87.3154L38.5258 86.7361L37.4014 86.829L38.1864 86.3498L37.6984 85.7562L38.7167 86.0423L39.537 85.5774L39.3815 86.2354L40.3785 86.543L39.2612 86.6645Z" fill="#F7AA90"/>
</g>
<g style="mix-blend-mode:hard-light">
<path d="M39.2471 89.032L39.042 89.6828L38.5117 89.0963L37.3873 89.1893L38.1793 88.7101L37.6843 88.1165L38.7026 88.4026L39.5229 87.9448L39.3673 88.6028L40.3644 88.9104L39.2471 89.032Z" fill="#F7AA90"/>
</g>
<g style="mix-blend-mode:hard-light">
<path d="M44.6568 92.1861L44.4518 92.837L43.9214 92.2577L42.797 92.3506L43.582 91.8714L43.094 91.2707L44.1123 91.5639L44.9326 91.099L44.77 91.757L45.7671 92.0646L44.6568 92.1861Z" fill="#F7AA90"/>
</g>
<g style="mix-blend-mode:hard-light">
<path d="M41.1069 90.9703L40.9089 91.6212L40.3715 91.0347L39.2471 91.1277L40.0391 90.6485L39.5512 90.0548L40.5624 90.3409L41.3827 89.8832L41.2271 90.534L42.2242 90.8487L41.1069 90.9703Z" fill="#F7AA90"/>
</g>
</g>
<g style="mix-blend-mode:color-burn">
<path style="mix-blend-mode:color-burn" d="M41.1776 84.6978L42.2949 84.5834L41.2978 84.2687L41.4605 83.6178L40.6402 84.0755L39.6219 83.7895L40.1098 84.3831L39.3249 84.8623L40.4422 84.7693L40.9796 85.3486L41.1776 84.6978Z" fill="url(#paint68_linear)"/>
<path style="mix-blend-mode:color-burn" d="M51.99 91.0133L53.1073 90.8917L52.1102 90.5842L52.2729 89.9261L51.4526 90.391L50.4343 90.0978L50.9222 90.6986L50.1373 91.1778L51.2546 91.0848L51.792 91.6642L51.99 91.0133Z" fill="url(#paint69_linear)"/>
<path style="mix-blend-mode:color-burn" d="M48.6664 92.1577L48.4613 92.8086L47.9309 92.2292L46.8066 92.3151L47.5915 91.843L47.1036 91.2422L48.1219 91.5283L48.9422 91.0706L48.7795 91.7286L49.7837 92.0361L48.6664 92.1577Z" fill="url(#paint70_linear)"/>
<path style="mix-blend-mode:color-burn" d="M39.2612 86.6647L39.0562 87.3155L38.5258 86.7362L37.4014 86.8292L38.1864 86.35L37.6984 85.7563L38.7167 86.0424L39.537 85.5775L39.3815 86.2355L40.3785 86.5431L39.2612 86.6647Z" fill="url(#paint71_linear)"/>
<path style="mix-blend-mode:color-burn" d="M39.2471 89.0321L39.042 89.683L38.5117 89.0965L37.3873 89.1894L38.1793 88.7102L37.6843 88.1166L38.7026 88.4027L39.5229 87.9449L39.3673 88.603L40.3644 88.9105L39.2471 89.0321Z" fill="url(#paint72_linear)"/>
<path style="mix-blend-mode:color-burn" d="M44.6568 92.1863L44.4518 92.8371L43.9214 92.2578L42.797 92.3508L43.582 91.8716L43.094 91.2708L44.1123 91.564L44.9326 91.0991L44.77 91.7571L45.7671 92.0647L44.6568 92.1863Z" fill="url(#paint73_linear)"/>
<path style="mix-blend-mode:color-burn" d="M41.1069 90.9703L40.9089 91.6212L40.3715 91.0347L39.2471 91.1277L40.0391 90.6485L39.5512 90.0548L40.5624 90.3409L41.3827 89.8832L41.2271 90.534L42.2242 90.8487L41.1069 90.9703Z" fill="url(#paint74_linear)"/>
</g>
<path opacity="0.17" d="M34.3889 96.8568L62.9368 80.0917L52.5911 74.6846L24.6585 90.9919L34.3889 96.8568Z" fill="black"/>
<path d="M33.2928 95.8554L62.7176 78.6755L52.8669 72.8392L23.4422 90.0191L33.2928 95.8554Z" fill="url(#paint75_linear)"/>
<path opacity="0.5" d="M32.9251 94.8827L26.7304 89.7903L25.4505 88.9105L24.1564 89.776L32.9251 94.8827Z" fill="url(#paint76_linear)"/>
<path opacity="0.5" d="M42.995 89.3968L37.5146 92.5939L28.3357 87.2368L34.7001 83.5248L42.995 89.3968Z" fill="url(#paint77_linear)"/>
<path opacity="0.5" d="M33.8161 83.9897L43.1859 90.0692L47.6339 87.387L37.6277 81.5793L33.8161 83.9897Z" fill="url(#paint78_linear)"/>
<path opacity="0.8" d="M55.745 82.7452L62.7176 78.6755L52.8669 72.8392L45.8943 76.9089L55.745 82.7452Z" fill="url(#paint79_linear)"/>
<path d="M59.7899 78.797C59.6594 78.8776 59.5112 78.9243 59.3586 78.9329C59.2199 78.9372 59.0829 78.9026 58.9626 78.8328C58.8282 78.7541 58.7787 78.6754 58.807 78.5896C58.8715 78.4675 58.9731 78.3697 59.0969 78.3107L59.3656 78.1676L58.1847 77.4524L57.0674 78.1033L57.4634 78.3321L58.213 77.9602L58.6514 78.2105L58.5029 78.2821C58.4156 78.3337 58.3388 78.4017 58.2766 78.4823C58.2267 78.5425 58.1992 78.6184 58.1988 78.6969C58.2009 78.7742 58.2312 78.8481 58.2837 78.9043C58.3498 78.9866 58.4316 79.0547 58.5241 79.1046C58.6482 79.1808 58.7847 79.2341 58.9272 79.2619C59.0655 79.2828 59.2061 79.2828 59.3444 79.2619C59.4859 79.2562 59.6262 79.2321 59.7616 79.1904C59.8977 79.1493 60.0283 79.0917 60.1506 79.0188C60.2415 78.9684 60.3268 78.9085 60.4052 78.8399C60.4661 78.7947 60.5187 78.739 60.5607 78.6754L60.1011 78.5395C60.0672 78.5836 60.0293 78.6243 59.9879 78.6611C59.926 78.7123 59.8598 78.7577 59.7899 78.797Z" fill="#271273"/>
<path d="M57.725 79.0617C57.3942 78.853 57.0227 78.7189 56.636 78.6683C56.3331 78.6283 56.0254 78.6885 55.7592 78.84C55.4904 78.9973 55.3844 79.169 55.448 79.355C55.6057 79.6403 55.8553 79.8625 56.1552 79.9844C56.4882 80.1951 56.8619 80.3317 57.2513 80.3849C57.5541 80.4219 57.8608 80.3619 58.1281 80.2132C58.3968 80.0487 58.4958 79.8771 58.4181 79.684C58.2598 79.4061 58.0166 79.1877 57.725 79.0617ZM57.3008 79.3049C57.4974 79.4089 57.6745 79.5469 57.824 79.7126C57.9089 79.8342 57.8877 79.9271 57.7533 80.0058C57.6073 80.0825 57.438 80.1004 57.2795 80.0559C57.0302 79.9855 56.7921 79.8795 56.5724 79.7412C56.3749 79.6416 56.1975 79.5058 56.0491 79.3407C55.9642 79.2262 55.9925 79.1261 56.1269 79.0474C56.2744 78.9674 56.4472 78.9494 56.6077 78.9973C56.8516 79.0671 57.0849 79.1706 57.3008 79.3049Z" fill="#271273"/>
<path d="M55.8864 80.106C55.5541 79.9004 55.1833 79.7665 54.7974 79.7126C54.4945 79.6726 54.1868 79.7328 53.9205 79.8843C53.6518 80.0488 53.5458 80.2205 53.6094 80.4064C53.673 80.5924 53.8993 80.7998 54.3166 81.0358C54.6479 81.2435 55.0191 81.3776 55.4056 81.4292C55.7108 81.4709 56.0212 81.4106 56.2895 81.2575C56.5582 81.1002 56.6572 80.9214 56.5794 80.7283C56.417 80.4539 56.1751 80.2366 55.8864 80.106ZM55.4621 80.3564C55.6626 80.4758 55.8379 80.6337 55.9784 80.8213C56.0632 80.9428 56.042 81.0358 55.9077 81.1145C55.8358 81.1539 55.757 81.1786 55.6757 81.1872C55.5944 81.1958 55.5122 81.1881 55.4339 81.1646C55.184 81.0956 54.9457 80.9896 54.7267 80.8499C54.5324 80.7486 54.3575 80.6129 54.2105 80.4493C54.1256 80.3349 54.1539 80.2348 54.2883 80.1561C54.4358 80.0761 54.6086 80.0581 54.7691 80.106C55.0113 80.1677 55.2443 80.2615 55.4621 80.385V80.3564Z" fill="#271273"/>
<path d="M31.8856 89.3038L35.0537 90.6556L32.7483 92.315L30.9168 92.6296L29.3611 90.6485L31.8856 89.3038Z" fill="url(#paint80_linear)"/>
<g style="mix-blend-mode:hard-light">
<g style="mix-blend-mode:hard-light">
<path d="M46.7147 86.6861L47.832 86.5716L46.8349 86.2569L46.9904 85.6061L46.1701 86.0638L45.1518 85.7777L45.6398 86.3714L44.8548 86.8506L45.9792 86.7576L46.5096 87.3441L46.7147 86.6861Z" fill="#F7AA90"/>
</g>
<g style="mix-blend-mode:hard-light">
<path d="M48.7866 84.6763L49.9039 84.5619L48.9068 84.2472L49.0624 83.5963L48.2421 84.0541L47.2238 83.768L47.7117 84.3616L46.9268 84.8408L48.0512 84.7478L48.5815 85.3272L48.7866 84.6763Z" fill="#F7AA90"/>
</g>
<g style="mix-blend-mode:hard-light">
<path d="M43.4335 79.1762L44.5437 79.0618L43.5466 78.7542L43.7092 78.0962L42.8889 78.5539L42.3586 78.8615L41.5736 79.3407L42.698 79.2477L43.2284 79.8342L43.4335 79.1762Z" fill="#F7AA90"/>
</g>
<g style="mix-blend-mode:hard-light">
<path d="M48.8361 82.3375L49.9534 82.2159L48.9563 81.9084L49.1119 81.2504L48.2916 81.7081L47.2733 81.422L47.7683 82.0157L46.9763 82.4949L48.1007 82.409L48.631 82.9884L48.8361 82.3375Z" fill="#F7AA90"/>
</g>
<g style="mix-blend-mode:hard-light">
<path d="M46.75 80.2634L47.8602 80.1489L46.8631 79.8342L47.0258 79.1833L46.2055 79.6411L45.1872 79.355L45.6751 79.9486L44.8902 80.4279L46.0146 80.3349L46.5449 80.9214L46.75 80.2634Z" fill="#F7AA90"/>
</g>
<g style="mix-blend-mode:hard-light">
<path d="M43.3839 87.8305L43.1789 88.4885L42.6485 87.902L41.5241 87.995L42.3091 87.5158L41.8211 86.9221L42.8394 87.2082L43.6597 86.7505L43.5042 87.4013L44.5013 87.7161L43.3839 87.8305Z" fill="#F7AA90"/>
</g>
<g style="mix-blend-mode:hard-light">
<path d="M33.9646 84.7049L33.7666 85.3558L33.2292 84.7765L32.1048 84.8695L32.8968 84.3902L33.4201 84.0827L34.2475 83.6178L34.0849 84.2758L35.082 84.5905L33.9646 84.7049Z" fill="#F7AA90"/>
</g>
<g style="mix-blend-mode:hard-light">
<path d="M39.3744 87.859L39.1693 88.5171L38.6389 87.9306L37.5146 88.0235L38.2995 87.5443L37.8116 86.9507L38.8299 87.2368L39.6502 86.7791L39.4946 87.4299L40.4917 87.7446L39.3744 87.859Z" fill="#F7AA90"/>
</g>
<g style="mix-blend-mode:hard-light">
<path d="M35.8315 86.6432L35.6265 87.294L35.0961 86.7147L33.9717 86.8005L34.7567 86.3213L34.2687 85.7277L35.287 86.0209L36.1073 85.556L35.9447 86.214L36.9418 86.5216L35.8315 86.6432Z" fill="#F7AA90"/>
</g>
</g>
<g style="mix-blend-mode:color-burn">
<path style="mix-blend-mode:color-burn" d="M46.7146 86.6871L47.8319 86.5726L46.8349 86.2579L46.9904 85.6071L46.1701 86.0648L45.1518 85.7787L45.6398 86.3724L44.8548 86.8516L45.9792 86.7586L46.5096 87.3451L46.7146 86.6871Z" fill="url(#paint81_linear)"/>
<path style="mix-blend-mode:color-burn" d="M43.3839 87.8305L43.1789 88.4885L42.6485 87.902L41.5241 87.995L42.3091 87.5158L41.8211 86.9221L42.8394 87.2082L43.6597 86.7505L43.5042 87.4013L44.5013 87.7161L43.3839 87.8305Z" fill="url(#paint82_linear)"/>
<path style="mix-blend-mode:color-burn" d="M39.3744 87.859L39.1693 88.5171L38.6389 87.9306L37.5146 88.0235L38.2995 87.5443L37.8116 86.9507L38.8299 87.2368L39.6502 86.7791L39.4946 87.4299L40.4917 87.7446L39.3744 87.859Z" fill="url(#paint83_linear)"/>
<path style="mix-blend-mode:color-burn" d="M35.8315 86.6432L35.6264 87.294L35.0961 86.7147L33.9717 86.8005L34.7566 86.3213L34.2687 85.7277L35.287 86.0209L36.1073 85.556L35.9447 86.214L36.9418 86.5216L35.8315 86.6432Z" fill="url(#paint84_linear)"/>
</g>
<path style="mix-blend-mode:multiply" d="M23.4493 90.0191L29.5025 86.4429L39.9755 80.3206L52.8669 72.8392L54.3519 73.6689L41.4676 81.1931L42.4929 81.7653C43.4334 82.3089 43.5395 83.1457 42.7263 83.6178L35.2022 88.0093C34.6987 88.2411 34.1486 88.3502 33.5959 88.3278C33.0432 88.3055 32.5035 88.1523 32.02 87.8806L30.9946 87.3084L24.9343 90.8845L23.4493 90.0191Z" fill="url(#paint85_linear)"/>
<path style="mix-blend-mode:multiply" d="M29.7995 76.1007L22.6572 80.2848L30.1955 91.6212L35.8669 80.7569L29.7995 76.1007Z" fill="url(#paint86_linear)"/>
<path d="M34.6082 85.506L42.1252 81.1145C42.2787 81.0438 42.4107 80.9329 42.5077 80.7933C42.6046 80.6538 42.663 80.4906 42.6768 80.3206V80.0202C42.6768 79.6554 42.4081 79.6554 41.8989 79.355L33.1938 74.2769L22.7421 80.0345V80.292L31.4472 85.3701C31.9274 85.6395 32.4631 85.792 33.0118 85.8156C33.5605 85.8392 34.107 85.7332 34.6082 85.506Z" fill="url(#paint87_radial)"/>
<path d="M34.6081 85.2556L42.1252 80.8641C42.9455 80.3849 42.8324 79.5552 41.8989 79.0045L33.1938 73.9192L22.7421 80.0344L31.4259 85.1126C31.9083 85.3866 32.4475 85.5422 33.0002 85.5671C33.5529 85.5919 34.1036 85.4852 34.6081 85.2556Z" fill="url(#paint88_linear)"/>
<path d="M37.4085 80.4778C37.1256 80.6423 36.963 80.7925 36.9206 80.9213C36.8781 81.05 36.9206 81.1788 37.1398 81.2861C37.3306 81.3955 37.5518 81.4383 37.7691 81.4076C38.0389 81.3736 38.2976 81.2782 38.5258 81.1287C38.8087 80.9642 38.9784 80.814 39.0208 80.6853C39.0632 80.5565 39.0208 80.4278 38.8016 80.3205C38.6085 80.21 38.3847 80.1672 38.1651 80.1989C37.897 80.2396 37.6397 80.3345 37.4085 80.4778ZM38.1864 80.9356C38.0393 81.0296 37.8798 81.1018 37.7126 81.1502C37.666 81.1719 37.6153 81.1832 37.5641 81.1832C37.5128 81.1832 37.4621 81.1719 37.4156 81.1502C37.3378 81.1001 37.3236 81.0429 37.3731 80.9714C37.4787 80.8574 37.6031 80.763 37.7409 80.6924C37.8909 80.5994 38.0526 80.5272 38.2217 80.4778C38.3197 80.4405 38.4278 80.4405 38.5258 80.4778C38.6036 80.5279 38.6177 80.5851 38.5682 80.6566C38.4567 80.7699 38.3277 80.8641 38.1864 80.9356Z" fill="url(#paint89_linear)"/>
<path d="M36.0649 79.6983C35.8605 79.791 35.6899 79.9461 35.577 80.1417C35.5345 80.2705 35.6123 80.3992 35.8032 80.5065C35.9915 80.6159 36.2105 80.6587 36.4255 80.6281C36.6955 80.5857 36.9548 80.491 37.1893 80.3491C37.3952 80.256 37.568 80.1012 37.6843 79.9057C37.7267 79.7698 37.6489 79.6482 37.458 79.5409C37.2687 79.4271 37.046 79.3841 36.8286 79.4193C36.5568 79.4543 36.296 79.5495 36.0649 79.6983ZM36.8498 80.156C36.7022 80.2488 36.5428 80.321 36.376 80.3706C36.2779 80.4073 36.1701 80.4073 36.072 80.3706C35.9942 80.3205 35.98 80.2633 36.0366 80.1918C36.1405 80.076 36.2653 79.9813 36.4043 79.9128C36.5544 79.8198 36.7161 79.7476 36.8852 79.6983C36.9807 79.6607 37.0867 79.6607 37.1822 79.6983C37.267 79.7483 37.2812 79.8056 37.2246 79.8771C37.1137 79.988 36.9875 80.0819 36.8498 80.156Z" fill="url(#paint90_linear)"/>
<path d="M34.7284 78.9115C34.4455 79.0784 34.2829 79.2286 34.2404 79.3621C34.198 79.4908 34.2404 79.6124 34.4597 79.7269C34.6505 79.8363 34.8717 79.8791 35.089 79.8485C35.359 79.8061 35.6183 79.7114 35.8528 79.5695C36.1356 79.4074 36.2983 79.2572 36.3407 79.1189C36.3831 78.9902 36.3407 78.8686 36.1215 78.7541C35.9294 78.6481 35.7093 78.6055 35.4921 78.6326C35.2221 78.6749 34.9628 78.7696 34.7284 78.9115ZM35.5133 79.3692C35.3672 79.4667 35.2075 79.5414 35.0395 79.591C34.9913 79.6112 34.9397 79.6217 34.8875 79.6217C34.8353 79.6217 34.7836 79.6112 34.7354 79.591C34.7193 79.5849 34.7049 79.5749 34.6934 79.562C34.6819 79.549 34.6737 79.5333 34.6695 79.5164C34.6654 79.4995 34.6653 79.4819 34.6694 79.4649C34.6735 79.448 34.6816 79.4324 34.693 79.4193C34.8019 79.306 34.9285 79.2118 35.0678 79.1404C35.2188 79.0473 35.3802 78.9729 35.5487 78.9186C35.5956 78.8982 35.6461 78.8876 35.6972 78.8876C35.7483 78.8876 35.7988 78.8982 35.8457 78.9186C35.8618 78.9247 35.8763 78.9347 35.8877 78.9477C35.8992 78.9607 35.9074 78.9763 35.9116 78.9932C35.9158 79.0101 35.9158 79.0278 35.9117 79.0447C35.9076 79.0616 35.8995 79.0773 35.8881 79.0903C35.7829 79.2134 35.6558 79.3153 35.5133 79.3907V79.3692Z" fill="url(#paint91_linear)"/>
<path d="M33.3918 78.132C33.109 78.2965 32.9463 78.4467 32.9039 78.5754C32.8615 78.7042 32.9039 78.8329 33.1231 78.9473C33.3152 79.0534 33.5353 79.0959 33.7525 79.0689C34.0206 79.0282 34.278 78.9333 34.5091 78.79C34.7991 78.6183 34.9617 78.4753 35.0042 78.3394C35.0466 78.2035 35.0042 78.089 34.7849 77.9746C34.5941 77.8652 34.3729 77.8224 34.1556 77.853C33.8849 77.8924 33.625 77.9874 33.3918 78.132ZM34.1768 78.5897C34.0251 78.6815 33.8639 78.7558 33.6959 78.8114C33.649 78.8319 33.5985 78.8425 33.5474 78.8425C33.4963 78.8425 33.4458 78.8319 33.3989 78.8114C33.3828 78.8054 33.3683 78.7954 33.3568 78.7824C33.3454 78.7694 33.3372 78.7538 33.333 78.7369C33.3288 78.72 33.3288 78.7023 33.3329 78.6854C33.337 78.6685 33.3451 78.6528 33.3565 78.6398C33.4635 78.5244 33.5905 78.4299 33.7313 78.3608C33.8807 78.2648 34.0425 78.1902 34.2121 78.1391C34.259 78.1186 34.3096 78.1081 34.3606 78.1081C34.4117 78.1081 34.4623 78.1186 34.5091 78.1391C34.5253 78.1452 34.5397 78.1552 34.5512 78.1681C34.5627 78.1811 34.5709 78.1967 34.5751 78.2136C34.5792 78.2305 34.5793 78.2482 34.5752 78.2651C34.5711 78.2821 34.563 78.2977 34.5516 78.3108C34.4427 78.424 34.3161 78.5183 34.1768 78.5897Z" fill="url(#paint92_linear)"/>
<path d="M31.4118 76.9804C31.129 77.1449 30.9663 77.288 30.9239 77.4239C30.8814 77.5598 30.9239 77.6814 31.1431 77.7886C31.3341 77.8976 31.5552 77.9403 31.7725 77.9102C32.0424 77.8678 32.3017 77.7731 32.5362 77.6313C32.8191 77.4668 32.9817 77.3166 33.0241 77.1878C33.0666 77.0591 33.0241 76.9304 32.8049 76.8231C32.6154 76.7099 32.3929 76.6669 32.1755 76.7015C31.9038 76.7364 31.643 76.8317 31.4118 76.9804ZM32.1968 77.4382C32.0491 77.5309 31.8897 77.6031 31.723 77.6527C31.6248 77.6894 31.517 77.6894 31.4189 77.6527C31.3411 77.6027 31.327 77.5455 31.3765 77.4739C31.4853 77.3607 31.6119 77.2664 31.7513 77.195C31.9013 77.1019 32.063 77.0298 32.2321 76.9804C32.3276 76.9429 32.4336 76.9429 32.5291 76.9804C32.614 77.0305 32.6211 77.0877 32.5715 77.1592C32.4607 77.2701 32.3344 77.3641 32.1968 77.4382Z" fill="url(#paint93_linear)"/>
<path d="M30.0753 76.1936C29.7924 76.3557 29.6298 76.5059 29.5873 76.6442C29.5449 76.7729 29.5873 76.8945 29.8066 77.009C29.9974 77.1184 30.2186 77.1612 30.4359 77.1305C30.7041 77.0898 30.9614 76.995 31.1926 76.8516C31.4825 76.6871 31.6452 76.5369 31.6876 76.401C31.73 76.2651 31.6876 76.1507 31.4684 76.0362C31.2763 75.9302 31.0562 75.8876 30.839 75.9147C30.5683 75.9541 30.3084 76.049 30.0753 76.1936ZM30.8602 76.6513C30.7117 76.749 30.5497 76.8237 30.3794 76.8731C30.3324 76.8931 30.2819 76.9035 30.2309 76.9035C30.1798 76.9035 30.1294 76.8931 30.0824 76.8731C30.0662 76.867 30.0518 76.857 30.0403 76.844C30.0288 76.8311 30.0206 76.8154 30.0164 76.7985C30.0123 76.7816 30.0122 76.764 30.0163 76.747C30.0204 76.7301 30.0285 76.7145 30.0399 76.7014C30.1488 76.5881 30.2754 76.4939 30.4147 76.4225C30.5657 76.3294 30.7271 76.255 30.8956 76.2007C30.9425 76.1803 30.993 76.1697 31.0441 76.1697C31.0952 76.1697 31.1457 76.1803 31.1926 76.2007C31.2087 76.2068 31.2232 76.2168 31.2346 76.2298C31.2461 76.2428 31.2543 76.2584 31.2585 76.2753C31.2627 76.2922 31.2627 76.3099 31.2586 76.3268C31.2545 76.3437 31.2464 76.3594 31.235 76.3724C31.128 76.4878 31.001 76.5823 30.8602 76.6513Z" fill="url(#paint94_linear)"/>
<path style="mix-blend-mode:color-dodge" d="M32.3099 83.9182C32.671 84.1052 33.071 84.2028 33.4767 84.2028C33.8824 84.2028 34.2824 84.1052 34.6435 83.9182C34.7876 83.8729 34.9136 83.7822 35.0031 83.6593C35.0926 83.5364 35.1409 83.3878 35.1409 83.2352C35.1409 83.0825 35.0926 82.9339 35.0031 82.811C34.9136 82.6881 34.7876 82.5974 34.6435 82.5521C34.2819 82.3667 33.8821 82.2701 33.4767 82.2701C33.0713 82.2701 32.6715 82.3667 32.3099 82.5521C31.6735 82.9669 31.6664 83.5463 32.3099 83.9182Z" fill="url(#paint95_linear)"/>
<path style="mix-blend-mode:color-dodge" d="M31.037 83.1815C31.3987 83.3669 31.7984 83.4635 32.2038 83.4635C32.6093 83.4635 33.009 83.3669 33.3706 83.1815C33.5148 83.1362 33.6408 83.0455 33.7303 82.9226C33.8198 82.7997 33.868 82.6511 33.868 82.4985C33.868 82.3458 33.8198 82.1972 33.7303 82.0743C33.6408 81.9514 33.5148 81.8607 33.3706 81.8154C33.009 81.63 32.6093 81.5334 32.2038 81.5334C31.7984 81.5334 31.3987 81.63 31.037 81.8154C30.8929 81.8607 30.7669 81.9514 30.6774 82.0743C30.5879 82.1972 30.5396 82.3458 30.5396 82.4985C30.5396 82.6511 30.5879 82.7997 30.6774 82.9226C30.7669 83.0455 30.8929 83.1362 31.037 83.1815Z" fill="url(#paint96_linear)"/>
<defs>
<linearGradient id="paint0_linear" x1="-14420.8" y1="-6535.18" x2="-14420.8" y2="13192" gradientUnits="userSpaceOnUse">
<stop stop-color="#00F2FE"/>
<stop offset="1" stop-color="#4FACFE"/>
</linearGradient>
<linearGradient id="paint1_linear" x1="15.126" y1="19.0181" x2="35.7636" y2="57.9126" gradientUnits="userSpaceOnUse">
<stop stop-color="#9F79C8"/>
<stop offset="0.14" stop-color="#A580CB"/>
<stop offset="0.33" stop-color="#B492D3"/>
<stop offset="0.55" stop-color="#CDB0E1"/>
<stop offset="0.58" stop-color="#D1B4E3"/>
<stop offset="0.76" stop-color="#DBC4E9"/>
<stop offset="1" stop-color="#EBDEF3"/>
</linearGradient>
<linearGradient id="paint2_linear" x1="30.3582" y1="61.7675" x2="14.2067" y2="61.7675" gradientUnits="userSpaceOnUse">
<stop offset="0.03" stop-color="#9B6DB8"/>
<stop offset="0.51" stop-color="#A178C2"/>
<stop offset="0.99" stop-color="#A988D1"/>
</linearGradient>
<linearGradient id="paint3_linear" x1="30.6127" y1="49.7372" x2="32.2251" y2="52.7618" gradientUnits="userSpaceOnUse">
<stop stop-color="#684392"/>
<stop offset="1" stop-color="#3D065F"/>
</linearGradient>
<linearGradient id="paint4_linear" x1="-141.675" y1="227.562" x2="-137.434" y2="239.236" gradientUnits="userSpaceOnUse">
<stop stop-color="#684392"/>
<stop offset="1" stop-color="#3D065F"/>
</linearGradient>
<linearGradient id="paint5_linear" x1="-131.827" y1="234.542" x2="-127.563" y2="246.232" gradientUnits="userSpaceOnUse">
<stop stop-color="#684392"/>
<stop offset="1" stop-color="#3D065F"/>
</linearGradient>
<linearGradient id="paint6_linear" x1="-120.765" y1="240.583" x2="-116.538" y2="252.203" gradientUnits="userSpaceOnUse">
<stop stop-color="#684392"/>
<stop offset="1" stop-color="#3D065F"/>
</linearGradient>
<linearGradient id="paint7_linear" x1="-71.3794" y1="163.451" x2="-68.329" y2="171.181" gradientUnits="userSpaceOnUse">
<stop stop-color="#684392"/>
<stop offset="1" stop-color="#3D065F"/>
</linearGradient>
<linearGradient id="paint8_linear" x1="-64.3541" y1="168.934" x2="-61.2793" y2="176.677" gradientUnits="userSpaceOnUse">
<stop stop-color="#684392"/>
<stop offset="1" stop-color="#3D065F"/>
</linearGradient>
<linearGradient id="paint9_linear" x1="-55.6934" y1="171.237" x2="-52.7309" y2="178.797" gradientUnits="userSpaceOnUse">
<stop stop-color="#684392"/>
<stop offset="1" stop-color="#3D065F"/>
</linearGradient>
<linearGradient id="paint10_linear" x1="-50.3" y1="179.576" x2="-47.2248" y2="187.319" gradientUnits="userSpaceOnUse">
<stop stop-color="#684392"/>
<stop offset="1" stop-color="#3D065F"/>
</linearGradient>
<linearGradient id="paint11_linear" x1="-61.3701" y1="158.129" x2="-58.3473" y2="165.81" gradientUnits="userSpaceOnUse">
<stop stop-color="#684392"/>
<stop offset="1" stop-color="#3D065F"/>
</linearGradient>
<linearGradient id="paint12_linear" x1="-54.8658" y1="164.6" x2="-51.7829" y2="172.356" gradientUnits="userSpaceOnUse">
<stop stop-color="#684392"/>
<stop offset="1" stop-color="#3D065F"/>
</linearGradient>
<linearGradient id="paint13_linear" x1="-48.1373" y1="170.261" x2="-45.0479" y2="178.039" gradientUnits="userSpaceOnUse">
<stop stop-color="#684392"/>
<stop offset="1" stop-color="#3D065F"/>
</linearGradient>
<linearGradient id="paint14_linear" x1="-40.714" y1="175.019" x2="-37.6388" y2="182.762" gradientUnits="userSpaceOnUse">
<stop stop-color="#684392"/>
<stop offset="1" stop-color="#3D065F"/>
</linearGradient>
<linearGradient id="paint15_linear" x1="-52.2448" y1="154.327" x2="-49.1798" y2="162.061" gradientUnits="userSpaceOnUse">
<stop stop-color="#684392"/>
<stop offset="1" stop-color="#3D065F"/>
</linearGradient>
<linearGradient id="paint16_linear" x1="-44.6532" y1="160.098" x2="-41.5669" y2="167.82" gradientUnits="userSpaceOnUse">
<stop stop-color="#684392"/>
<stop offset="1" stop-color="#3D065F"/>
</linearGradient>
<linearGradient id="paint17_linear" x1="-38.176" y1="165.043" x2="-35.1062" y2="172.781" gradientUnits="userSpaceOnUse">
<stop stop-color="#684392"/>
<stop offset="1" stop-color="#3D065F"/>
</linearGradient>
<linearGradient id="paint18_linear" x1="-30.4132" y1="169.77" x2="-27.3658" y2="177.454" gradientUnits="userSpaceOnUse">
<stop stop-color="#684392"/>
<stop offset="1" stop-color="#3D065F"/>
</linearGradient>
<linearGradient id="paint19_linear" x1="-151.15" y1="218.805" x2="-146.91" y2="230.418" gradientUnits="userSpaceOnUse">
<stop offset="0.04" stop-color="#9F19AB"/>
<stop offset="0.24" stop-color="#AE25B1"/>
<stop offset="0.65" stop-color="#D744BF"/>
<stop offset="1" stop-color="#FF63CE"/>
</linearGradient>
<linearGradient id="paint20_linear" x1="32.2887" y1="51.0603" x2="33.8939" y2="54.0922" gradientUnits="userSpaceOnUse">
<stop offset="0.04" stop-color="#FFA98C"/>
<stop offset="0.32" stop-color="#FFB892"/>
<stop offset="0.86" stop-color="#FEE1A3"/>
<stop offset="1" stop-color="#FEECA8"/>
</linearGradient>
<linearGradient id="paint21_linear" x1="33.9576" y1="52.6339" x2="35.5699" y2="55.6585" gradientUnits="userSpaceOnUse">
<stop offset="0.04" stop-color="#138BBD"/>
<stop offset="0.23" stop-color="#169AC7"/>
<stop offset="0.59" stop-color="#1FC3DF"/>
<stop offset="1" stop-color="#2AF6FF"/>
</linearGradient>
<linearGradient id="paint22_linear" x1="35.6335" y1="54.2003" x2="37.2388" y2="57.2322" gradientUnits="userSpaceOnUse">
<stop stop-color="#F4E4FF"/>
<stop offset="0.4" stop-color="#E8D4F6"/>
<stop offset="1" stop-color="#D1B4E3"/>
</linearGradient>
<linearGradient id="paint23_linear" x1="-71.3794" y1="162.681" x2="-68.3269" y2="170.412" gradientUnits="userSpaceOnUse">
<stop stop-color="#F4E4FF"/>
<stop offset="0.4" stop-color="#E8D4F6"/>
<stop offset="1" stop-color="#D1B4E3"/>
</linearGradient>
<linearGradient id="paint24_linear" x1="-64.363" y1="168.356" x2="-61.2769" y2="176.095" gradientUnits="userSpaceOnUse">
<stop stop-color="#F4E4FF"/>
<stop offset="0.4" stop-color="#E8D4F6"/>
<stop offset="1" stop-color="#D1B4E3"/>
</linearGradient>
<linearGradient id="paint25_linear" x1="-55.8123" y1="171.521" x2="-52.804" y2="179.135" gradientUnits="userSpaceOnUse">
<stop stop-color="#F4E4FF"/>
<stop offset="0.4" stop-color="#E8D4F6"/>
<stop offset="1" stop-color="#D1B4E3"/>
</linearGradient>
<linearGradient id="paint26_linear" x1="-50.3" y1="179.013" x2="-47.2132" y2="186.751" gradientUnits="userSpaceOnUse">
<stop stop-color="#F4E4FF"/>
<stop offset="0.4" stop-color="#E8D4F6"/>
<stop offset="1" stop-color="#D1B4E3"/>
</linearGradient>
<linearGradient id="paint27_linear" x1="-61.0265" y1="157.323" x2="-57.9953" y2="164.997" gradientUnits="userSpaceOnUse">
<stop stop-color="#F4E4FF"/>
<stop offset="0.4" stop-color="#E8D4F6"/>
<stop offset="1" stop-color="#D1B4E3"/>
</linearGradient>
<linearGradient id="paint28_linear" x1="-54.8676" y1="163.806" x2="-51.7835" y2="171.547" gradientUnits="userSpaceOnUse">
<stop stop-color="#F4E4FF"/>
<stop offset="0.4" stop-color="#E8D4F6"/>
<stop offset="1" stop-color="#D1B4E3"/>
</linearGradient>
<linearGradient id="paint29_linear" x1="-47.5512" y1="168.754" x2="-44.4941" y2="176.481" gradientUnits="userSpaceOnUse">
<stop stop-color="#F4E4FF"/>
<stop offset="0.4" stop-color="#E8D4F6"/>
<stop offset="1" stop-color="#D1B4E3"/>
</linearGradient>
<linearGradient id="paint30_linear" x1="-41.6323" y1="174.486" x2="-38.5703" y2="182.247" gradientUnits="userSpaceOnUse">
<stop stop-color="#F4E4FF"/>
<stop offset="0.4" stop-color="#E8D4F6"/>
<stop offset="1" stop-color="#D1B4E3"/>
</linearGradient>
<linearGradient id="paint31_linear" x1="-52.2448" y1="153.531" x2="-49.1785" y2="161.267" gradientUnits="userSpaceOnUse">
<stop stop-color="#F4E4FF"/>
<stop offset="0.4" stop-color="#E8D4F6"/>
<stop offset="1" stop-color="#D1B4E3"/>
</linearGradient>
<linearGradient id="paint32_linear" x1="-45.3467" y1="159.287" x2="-42.2795" y2="167.042" gradientUnits="userSpaceOnUse">
<stop stop-color="#F4E4FF"/>
<stop offset="0.4" stop-color="#E8D4F6"/>
<stop offset="1" stop-color="#D1B4E3"/>
</linearGradient>
<linearGradient id="paint33_linear" x1="-38.176" y1="164.221" x2="-35.1062" y2="171.959" gradientUnits="userSpaceOnUse">
<stop stop-color="#F4E4FF"/>
<stop offset="0.4" stop-color="#E8D4F6"/>
<stop offset="1" stop-color="#D1B4E3"/>
</linearGradient>
<linearGradient id="paint34_linear" x1="-30.4147" y1="169.083" x2="-27.3608" y2="176.758" gradientUnits="userSpaceOnUse">
<stop stop-color="#F4E4FF"/>
<stop offset="0.4" stop-color="#E8D4F6"/>
<stop offset="1" stop-color="#D1B4E3"/>
</linearGradient>
<radialGradient id="paint35_radial" cx="0" cy="0" r="1" gradientUnits="userSpaceOnUse" gradientTransform="translate(-55.1865 116.997) rotate(180) scale(2.72195 1.22058)">
<stop stop-color="white"/>
<stop offset="1"/>
</radialGradient>
<radialGradient id="paint36_radial" cx="0" cy="0" r="1" gradientUnits="userSpaceOnUse" gradientTransform="translate(-59.1379 125.241) rotate(180) scale(2.76198 1.24225)">
<stop stop-color="white"/>
<stop offset="1"/>
</radialGradient>
<radialGradient id="paint37_radial" cx="0" cy="0" r="1" gradientUnits="userSpaceOnUse" gradientTransform="translate(-66.2377 121.025) rotate(180) scale(2.76544 1.2348)">
<stop stop-color="white"/>
<stop offset="1"/>
</radialGradient>
<radialGradient id="paint38_radial" cx="0" cy="0" r="1" gradientUnits="userSpaceOnUse" gradientTransform="translate(-40.2952 119.987) rotate(180) scale(2.76861 1.26418)">
<stop stop-color="white"/>
<stop offset="1"/>
</radialGradient>
<radialGradient id="paint39_radial" cx="0" cy="0" r="1" gradientUnits="userSpaceOnUse" gradientTransform="translate(-47.1833 114.576) rotate(180) scale(2.76706 1.23508)">
<stop stop-color="white"/>
<stop offset="1"/>
</radialGradient>
<radialGradient id="paint40_radial" cx="0" cy="0" r="1" gradientUnits="userSpaceOnUse" gradientTransform="translate(-42.7622 125.398) rotate(180) scale(2.76706 1.23577)">
<stop stop-color="white"/>
<stop offset="1"/>
</radialGradient>
<radialGradient id="paint41_radial" cx="0" cy="0" r="1" gradientUnits="userSpaceOnUse" gradientTransform="translate(-33.1756 121.684) rotate(180) scale(2.76574 1.22737)">
<stop stop-color="white"/>
<stop offset="1"/>
</radialGradient>
<radialGradient id="paint42_radial" cx="0" cy="0" r="1" gradientUnits="userSpaceOnUse" gradientTransform="translate(-49.6841 121.997) rotate(180) scale(2.76453 1.24224)">
<stop stop-color="white"/>
<stop offset="1"/>
</radialGradient>
<radialGradient id="paint43_radial" cx="0" cy="0" r="1" gradientUnits="userSpaceOnUse" gradientTransform="translate(-123.795 190.081) rotate(180) scale(6.81451 3.37713)">
<stop stop-color="white"/>
<stop offset="1"/>
</radialGradient>
<radialGradient id="paint44_radial" cx="0" cy="0" r="1" gradientUnits="userSpaceOnUse" gradientTransform="translate(-133.612 184.758) rotate(180) scale(6.8089 3.37805)">
<stop stop-color="white"/>
<stop offset="1"/>
</radialGradient>
<radialGradient id="paint45_radial" cx="0" cy="0" r="1" gradientUnits="userSpaceOnUse" gradientTransform="translate(-141.909 178.621) rotate(180) scale(6.74558 3.35766)">
<stop stop-color="white"/>
<stop offset="1"/>
</radialGradient>
<radialGradient id="paint46_radial" cx="0" cy="0" r="1" gradientUnits="userSpaceOnUse" gradientTransform="translate(-113.978 195.503) rotate(180) scale(6.81957 3.37807)">
<stop stop-color="white"/>
<stop offset="1"/>
</radialGradient>
<radialGradient id="paint47_radial" cx="0" cy="0" r="1" gradientUnits="userSpaceOnUse" gradientTransform="translate(-26.2053 126.741) rotate(180) scale(2.76599 1.24916)">
<stop stop-color="white"/>
<stop offset="1"/>
</radialGradient>
<radialGradient id="paint48_radial" cx="0" cy="0" r="1" gradientUnits="userSpaceOnUse" gradientTransform="translate(-50.8135 127.719) rotate(180) scale(2.72195 1.22083)">
<stop stop-color="white"/>
<stop offset="1"/>
</radialGradient>
<radialGradient id="paint49_radial" cx="0" cy="0" r="1" gradientUnits="userSpaceOnUse" gradientTransform="translate(-35.6518 129.571) rotate(180) scale(2.76251 1.24224)">
<stop stop-color="white"/>
<stop offset="1"/>
</radialGradient>
<radialGradient id="paint50_radial" cx="0" cy="0" r="1" gradientUnits="userSpaceOnUse" gradientTransform="translate(-45.2768 132.805) rotate(180) scale(2.76532 1.24225)">
<stop stop-color="white"/>
<stop offset="1"/>
</radialGradient>
<linearGradient id="paint51_linear" x1="-2007.72" y1="1068.82" x2="359.87" y2="3561.12" gradientUnits="userSpaceOnUse">
<stop stop-color="#9F79C8"/>
<stop offset="0.14" stop-color="#A580CB"/>
<stop offset="0.33" stop-color="#B492D3"/>
<stop offset="0.55" stop-color="#CDB0E1"/>
<stop offset="0.58" stop-color="#D1B4E3"/>
<stop offset="0.76" stop-color="#DBC4E9"/>
<stop offset="1" stop-color="#EBDEF3"/>
</linearGradient>
<linearGradient id="paint52_linear" x1="-745.67" y1="893.024" x2="-1668.04" y2="1700.94" gradientUnits="userSpaceOnUse">
<stop offset="0.04" stop-color="#138BBD"/>
<stop offset="0.23" stop-color="#169AC7"/>
<stop offset="0.59" stop-color="#1FC3DF"/>
<stop offset="1" stop-color="#2AF6FF"/>
</linearGradient>
<linearGradient id="paint53_linear" x1="-12056.8" y1="-12133.2" x2="-12056.8" y2="24643.6" gradientUnits="userSpaceOnUse">
<stop stop-color="#00F2FE"/>
<stop offset="1" stop-color="#4FACFE"/>
</linearGradient>
<linearGradient id="paint54_linear" x1="-4106" y1="-10184.6" x2="-4106" y2="20580.8" gradientUnits="userSpaceOnUse">
<stop stop-color="#00F2FE"/>
<stop offset="1" stop-color="#4FACFE"/>
</linearGradient>
<radialGradient id="paint55_radial" cx="0" cy="0" r="1" gradientUnits="userSpaceOnUse" gradientTransform="translate(-3125.76 2435.07) rotate(180) scale(1200.84 1823.96)">
<stop stop-color="white"/>
<stop offset="1"/>
</radialGradient>
<radialGradient id="paint56_radial" cx="0" cy="0" r="1" gradientUnits="userSpaceOnUse" gradientTransform="translate(31.4067 69.0778) rotate(149.543) scale(23.5428 5.01906)">
<stop stop-color="#972A74"/>
<stop offset="0.04" stop-color="#8A266A"/>
<stop offset="0.19" stop-color="#601B4A"/>
<stop offset="0.35" stop-color="#3D112F"/>
<stop offset="0.51" stop-color="#230A1B"/>
<stop offset="0.67" stop-color="#0F040C"/>
<stop offset="0.83" stop-color="#040103"/>
<stop offset="1"/>
</radialGradient>
<linearGradient id="paint57_linear" x1="23.0108" y1="44.3587" x2="32.0867" y2="27.5434" gradientUnits="userSpaceOnUse">
<stop offset="0.17" stop-color="#D4D1D8"/>
<stop offset="1" stop-color="white"/>
</linearGradient>
<linearGradient id="paint58_linear" x1="-1284.12" y1="2335.53" x2="-1189.3" y2="2568.43" gradientUnits="userSpaceOnUse">
<stop stop-color="#25054D"/>
<stop offset="1" stop-color="#45108A"/>
</linearGradient>
<radialGradient id="paint59_radial" cx="0" cy="0" r="1" gradientUnits="userSpaceOnUse" gradientTransform="translate(29.651 76.3081) rotate(180) scale(4.92887 4.98517)">
<stop stop-color="#2AF6FF"/>
<stop offset="1" stop-color="#138BBD"/>
</radialGradient>
<linearGradient id="paint60_linear" x1="-622.719" y1="929.638" x2="-603.245" y2="974.919" gradientUnits="userSpaceOnUse">
<stop stop-color="#25054D"/>
<stop offset="1" stop-color="#45108A"/>
</linearGradient>
<linearGradient id="paint61_linear" x1="62.0201" y1="83.1636" x2="46.9522" y2="108.849" gradientUnits="userSpaceOnUse">
<stop stop-color="#9F79C8"/>
<stop offset="0.14" stop-color="#A580CB"/>
<stop offset="0.33" stop-color="#B492D3"/>
<stop offset="0.55" stop-color="#CDB0E1"/>
<stop offset="0.58" stop-color="#D1B4E3"/>
</linearGradient>
<linearGradient id="paint62_linear" x1="43.9779" y1="83.9825" x2="23.4141" y2="102.711" gradientUnits="userSpaceOnUse">
<stop stop-color="#4F0D7E"/>
<stop offset="0.12" stop-color="#571784"/>
<stop offset="0.32" stop-color="#6C3395"/>
<stop offset="0.58" stop-color="#8F5FB0"/>
<stop offset="0.89" stop-color="#BF9DD5"/>
<stop offset="1" stop-color="#D1B4E3"/>
</linearGradient>
<linearGradient id="paint63_linear" x1="26062.8" y1="8437.31" x2="25932.7" y2="8659.16" gradientUnits="userSpaceOnUse">
<stop stop-color="#4F0D7E"/>
<stop offset="0.12" stop-color="#571784"/>
<stop offset="0.32" stop-color="#6C3395"/>
<stop offset="0.58" stop-color="#8F5FB0"/>
<stop offset="0.89" stop-color="#BF9DD5"/>
<stop offset="1" stop-color="#D1B4E3"/>
</linearGradient>
<linearGradient id="paint64_linear" x1="26080.1" y1="8807.48" x2="26130.1" y2="8692.36" gradientUnits="userSpaceOnUse">
<stop stop-color="#4F0D7E"/>
<stop offset="0.12" stop-color="#571784"/>
<stop offset="0.32" stop-color="#6C3395"/>
<stop offset="0.58" stop-color="#8F5FB0"/>
<stop offset="0.89" stop-color="#BF9DD5"/>
<stop offset="1" stop-color="#D1B4E3"/>
</linearGradient>
<linearGradient id="paint65_linear" x1="37.0408" y1="89.7115" x2="67.015" y2="76.5394" gradientUnits="userSpaceOnUse">
<stop stop-color="#9F79C8"/>
<stop offset="0.14" stop-color="#A27DCA"/>
<stop offset="0.27" stop-color="#AC88CF"/>
<stop offset="0.4" stop-color="#BC9BD7"/>
<stop offset="0.52" stop-color="#D1B4E3"/>
<stop offset="0.65" stop-color="#DBC4E9"/>
<stop offset="0.9" stop-color="#F4EDF8"/>
<stop offset="1" stop-color="white"/>
</linearGradient>
<linearGradient id="paint66_linear" x1="8460.74" y1="2602.75" x2="8388.21" y2="2688.2" gradientUnits="userSpaceOnUse">
<stop stop-color="#9F79C8"/>
<stop offset="0.14" stop-color="#A27DCA"/>
<stop offset="0.27" stop-color="#AC88CF"/>
<stop offset="0.4" stop-color="#BC9BD7"/>
<stop offset="0.52" stop-color="#D1B4E3"/>
<stop offset="0.65" stop-color="#DBC4E9"/>
<stop offset="0.9" stop-color="#F4EDF8"/>
<stop offset="1" stop-color="white"/>
</linearGradient>
<linearGradient id="paint67_linear" x1="-654.332" y1="978.233" x2="-638.938" y2="1135.47" gradientUnits="userSpaceOnUse">
<stop stop-color="#4F0D7E"/>
<stop offset="0.12" stop-color="#571784"/>
<stop offset="0.32" stop-color="#6C3395"/>
<stop offset="0.58" stop-color="#8F5FB0"/>
<stop offset="0.89" stop-color="#BF9DD5"/>
<stop offset="1" stop-color="#D1B4E3"/>
</linearGradient>
<linearGradient id="paint68_linear" x1="-65.6664" y1="288.066" x2="-78.1406" y2="288.066" gradientUnits="userSpaceOnUse">
<stop offset="0.04" stop-color="#FFA98C"/>
<stop offset="0.32" stop-color="#FFB892"/>
<stop offset="0.86" stop-color="#FEE1A3"/>
<stop offset="1" stop-color="#FEECA8"/>
</linearGradient>
<linearGradient id="paint69_linear" x1="-9.44194" y1="310.566" x2="-21.9162" y2="310.566" gradientUnits="userSpaceOnUse">
<stop offset="0.04" stop-color="#FFA98C"/>
<stop offset="0.32" stop-color="#FFB892"/>
<stop offset="0.86" stop-color="#FEE1A3"/>
<stop offset="1" stop-color="#FEECA8"/>
</linearGradient>
<linearGradient id="paint70_linear" x1="-26.9069" y1="314.491" x2="-39.4405" y2="314.491" gradientUnits="userSpaceOnUse">
<stop offset="0.04" stop-color="#FFA98C"/>
<stop offset="0.32" stop-color="#FFB892"/>
<stop offset="0.86" stop-color="#FEE1A3"/>
<stop offset="1" stop-color="#FEECA8"/>
</linearGradient>
<linearGradient id="paint71_linear" x1="-75.9077" y1="295.652" x2="-88.4414" y2="295.652" gradientUnits="userSpaceOnUse">
<stop offset="0.04" stop-color="#FFA98C"/>
<stop offset="0.32" stop-color="#FFB892"/>
<stop offset="0.86" stop-color="#FEE1A3"/>
<stop offset="1" stop-color="#FEECA8"/>
</linearGradient>
<linearGradient id="paint72_linear" x1="-75.9814" y1="303.753" x2="-88.515" y2="303.753" gradientUnits="userSpaceOnUse">
<stop offset="0.04" stop-color="#FFA98C"/>
<stop offset="0.32" stop-color="#FFB892"/>
<stop offset="0.86" stop-color="#FEE1A3"/>
<stop offset="1" stop-color="#FEECA8"/>
</linearGradient>
<linearGradient id="paint73_linear" x1="-47.6112" y1="314.589" x2="-60.0853" y2="314.589" gradientUnits="userSpaceOnUse">
<stop offset="0.04" stop-color="#FFA98C"/>
<stop offset="0.32" stop-color="#FFB892"/>
<stop offset="0.86" stop-color="#FEE1A3"/>
<stop offset="1" stop-color="#FEECA8"/>
</linearGradient>
<linearGradient id="paint74_linear" x1="-66.2917" y1="310.403" x2="-78.8254" y2="310.403" gradientUnits="userSpaceOnUse">
<stop offset="0.04" stop-color="#FFA98C"/>
<stop offset="0.32" stop-color="#FFB892"/>
<stop offset="0.86" stop-color="#FEE1A3"/>
<stop offset="1" stop-color="#FEECA8"/>
</linearGradient>
<linearGradient id="paint75_linear" x1="20225.1" y1="55622.6" x2="18333.6" y2="55622.6" gradientUnits="userSpaceOnUse">
<stop stop-color="#9F79C8"/>
<stop offset="0.14" stop-color="#A580CB"/>
<stop offset="0.33" stop-color="#B492D3"/>
<stop offset="0.55" stop-color="#CDB0E1"/>
<stop offset="0.58" stop-color="#D1B4E3"/>
</linearGradient>
<linearGradient id="paint76_linear" x1="-352.285" y1="794.583" x2="-465.276" y2="947.359" gradientUnits="userSpaceOnUse">
<stop stop-color="#4F0D7E"/>
<stop offset="0.12" stop-color="#571784"/>
<stop offset="0.32" stop-color="#6C3395"/>
<stop offset="0.58" stop-color="#8F5FB0"/>
<stop offset="0.89" stop-color="#BF9DD5"/>
<stop offset="1" stop-color="#D1B4E3"/>
</linearGradient>
<linearGradient id="paint77_linear" x1="25995.7" y1="8377.39" x2="25865.6" y2="8599.24" gradientUnits="userSpaceOnUse">
<stop stop-color="#4F0D7E"/>
<stop offset="0.12" stop-color="#571784"/>
<stop offset="0.32" stop-color="#6C3395"/>
<stop offset="0.58" stop-color="#8F5FB0"/>
<stop offset="0.89" stop-color="#BF9DD5"/>
<stop offset="1" stop-color="#D1B4E3"/>
</linearGradient>
<linearGradient id="paint78_linear" x1="24152.4" y1="7840.39" x2="24198.2" y2="7733" gradientUnits="userSpaceOnUse">
<stop stop-color="#4F0D7E"/>
<stop offset="0.12" stop-color="#571784"/>
<stop offset="0.32" stop-color="#6C3395"/>
<stop offset="0.58" stop-color="#8F5FB0"/>
<stop offset="0.89" stop-color="#BF9DD5"/>
<stop offset="1" stop-color="#D1B4E3"/>
</linearGradient>
<linearGradient id="paint79_linear" x1="-649.745" y1="1251.45" x2="-210.387" y2="919.897" gradientUnits="userSpaceOnUse">
<stop stop-color="#9F79C8"/>
<stop offset="0.14" stop-color="#A27DCA"/>
<stop offset="0.27" stop-color="#AC88CF"/>
<stop offset="0.4" stop-color="#BC9BD7"/>
<stop offset="0.52" stop-color="#D1B4E3"/>
<stop offset="0.65" stop-color="#DBC4E9"/>
<stop offset="0.9" stop-color="#F4EDF8"/>
<stop offset="1" stop-color="white"/>
</linearGradient>
<linearGradient id="paint80_linear" x1="8451.07" y1="2588.94" x2="8378.48" y2="2674.5" gradientUnits="userSpaceOnUse">
<stop stop-color="#9F79C8"/>
<stop offset="0.14" stop-color="#A27DCA"/>
<stop offset="0.27" stop-color="#AC88CF"/>
<stop offset="0.4" stop-color="#BC9BD7"/>
<stop offset="0.52" stop-color="#D1B4E3"/>
<stop offset="0.65" stop-color="#DBC4E9"/>
<stop offset="0.9" stop-color="#F4EDF8"/>
<stop offset="1" stop-color="white"/>
</linearGradient>
<linearGradient id="paint81_linear" x1="-37.0756" y1="295.734" x2="-49.6092" y2="295.734" gradientUnits="userSpaceOnUse">
<stop offset="0.04" stop-color="#FFA98C"/>
<stop offset="0.32" stop-color="#FFB892"/>
<stop offset="0.86" stop-color="#FEE1A3"/>
<stop offset="1" stop-color="#FEECA8"/>
</linearGradient>
<linearGradient id="paint82_linear" x1="-54.4285" y1="299.657" x2="-66.9622" y2="299.657" gradientUnits="userSpaceOnUse">
<stop offset="0.04" stop-color="#FFA98C"/>
<stop offset="0.32" stop-color="#FFB892"/>
<stop offset="0.86" stop-color="#FEE1A3"/>
<stop offset="1" stop-color="#FEECA8"/>
</linearGradient>
<linearGradient id="paint83_linear" x1="-75.3182" y1="299.754" x2="-87.8519" y2="299.754" gradientUnits="userSpaceOnUse">
<stop offset="0.04" stop-color="#FFA98C"/>
<stop offset="0.32" stop-color="#FFB892"/>
<stop offset="0.86" stop-color="#FEE1A3"/>
<stop offset="1" stop-color="#FEECA8"/>
</linearGradient>
<linearGradient id="paint84_linear" x1="-93.5028" y1="295.578" x2="-105.977" y2="295.578" gradientUnits="userSpaceOnUse">
<stop offset="0.04" stop-color="#FFA98C"/>
<stop offset="0.32" stop-color="#FFB892"/>
<stop offset="0.86" stop-color="#FEE1A3"/>
<stop offset="1" stop-color="#FEECA8"/>
</linearGradient>
<linearGradient id="paint85_linear" x1="-1131.38" y1="2257.22" x2="-1267.33" y2="1704.64" gradientUnits="userSpaceOnUse">
<stop stop-color="white"/>
<stop offset="1"/>
</linearGradient>
<linearGradient id="paint86_linear" x1="-735.445" y1="1935.62" x2="-614.628" y2="1730.1" gradientUnits="userSpaceOnUse">
<stop stop-color="white"/>
<stop offset="1"/>
</linearGradient>
<radialGradient id="paint87_radial" cx="0" cy="0" r="1" gradientUnits="userSpaceOnUse" gradientTransform="translate(31.2067 86.9651) rotate(180) scale(8.13228 8.22517)">
<stop offset="0.43" stop-color="white"/>
<stop offset="1" stop-color="#43E8E1"/>
</radialGradient>
<linearGradient id="paint88_linear" x1="36.1092" y1="84.8892" x2="35.687" y2="74.6664" gradientUnits="userSpaceOnUse">
<stop stop-color="#4EC1DE"/>
<stop offset="0.4" stop-color="#43E2DE"/>
<stop offset="0.5" stop-color="#42D7DA"/>
<stop offset="0.67" stop-color="#3FBACE"/>
<stop offset="0.89" stop-color="#3A8CBB"/>
<stop offset="1" stop-color="#3772B0"/>
</linearGradient>
<linearGradient id="paint89_linear" x1="25.1802" y1="77.4864" x2="37.8678" y2="86.8711" gradientUnits="userSpaceOnUse">
<stop offset="0.06" stop-color="#4F9DC4"/>
<stop offset="0.12" stop-color="#5CA4C8"/>
<stop offset="0.23" stop-color="#7FB7D4"/>
<stop offset="0.38" stop-color="#B6D7E7"/>
<stop offset="0.56" stop-color="white"/>
<stop offset="0.63" stop-color="#E2FAF9"/>
<stop offset="0.75" stop-color="#B4F2F0"/>
<stop offset="0.85" stop-color="#92EDE9"/>
<stop offset="0.94" stop-color="#7DE9E5"/>
<stop offset="1" stop-color="#76E8E3"/>
</linearGradient>
<linearGradient id="paint90_linear" x1="1001.07" y1="811.891" x2="1005.65" y2="834.794" gradientUnits="userSpaceOnUse">
<stop offset="0.06" stop-color="#4F9DC4"/>
<stop offset="0.12" stop-color="#5CA4C8"/>
<stop offset="0.23" stop-color="#7FB7D4"/>
<stop offset="0.38" stop-color="#B6D7E7"/>
<stop offset="0.56" stop-color="white"/>
<stop offset="0.63" stop-color="#E2FAF9"/>
<stop offset="0.75" stop-color="#B4F2F0"/>
<stop offset="0.85" stop-color="#92EDE9"/>
<stop offset="0.94" stop-color="#7DE9E5"/>
<stop offset="1" stop-color="#76E8E3"/>
</linearGradient>
<linearGradient id="paint91_linear" x1="1000.94" y1="812.784" x2="1005.54" y2="835.741" gradientUnits="userSpaceOnUse">
<stop offset="0.06" stop-color="#4F9DC4"/>
<stop offset="0.12" stop-color="#5CA4C8"/>
<stop offset="0.23" stop-color="#7FB7D4"/>
<stop offset="0.38" stop-color="#B6D7E7"/>
<stop offset="0.56" stop-color="white"/>
<stop offset="0.63" stop-color="#E2FAF9"/>
<stop offset="0.75" stop-color="#B4F2F0"/>
<stop offset="0.85" stop-color="#92EDE9"/>
<stop offset="0.94" stop-color="#7DE9E5"/>
<stop offset="1" stop-color="#76E8E3"/>
</linearGradient>
<linearGradient id="paint92_linear" x1="1000.91" y1="811.834" x2="1005.51" y2="834.79" gradientUnits="userSpaceOnUse">
<stop offset="0.06" stop-color="#4F9DC4"/>
<stop offset="0.12" stop-color="#5CA4C8"/>
<stop offset="0.23" stop-color="#7FB7D4"/>
<stop offset="0.38" stop-color="#B6D7E7"/>
<stop offset="0.56" stop-color="white"/>
<stop offset="0.63" stop-color="#E2FAF9"/>
<stop offset="0.75" stop-color="#B4F2F0"/>
<stop offset="0.85" stop-color="#92EDE9"/>
<stop offset="0.94" stop-color="#7DE9E5"/>
<stop offset="1" stop-color="#76E8E3"/>
</linearGradient>
<linearGradient id="paint93_linear" x1="1000.84" y1="808.263" x2="1005.41" y2="831.156" gradientUnits="userSpaceOnUse">
<stop offset="0.06" stop-color="#4F9DC4"/>
<stop offset="0.12" stop-color="#5CA4C8"/>
<stop offset="0.23" stop-color="#7FB7D4"/>
<stop offset="0.38" stop-color="#B6D7E7"/>
<stop offset="0.56" stop-color="white"/>
<stop offset="0.63" stop-color="#E2FAF9"/>
<stop offset="0.75" stop-color="#B4F2F0"/>
<stop offset="0.85" stop-color="#92EDE9"/>
<stop offset="0.94" stop-color="#7DE9E5"/>
<stop offset="1" stop-color="#76E8E3"/>
</linearGradient>
<linearGradient id="paint94_linear" x1="1000.8" y1="809.502" x2="1005.4" y2="832.459" gradientUnits="userSpaceOnUse">
<stop offset="0.06" stop-color="#4F9DC4"/>
<stop offset="0.12" stop-color="#5CA4C8"/>
<stop offset="0.23" stop-color="#7FB7D4"/>
<stop offset="0.38" stop-color="#B6D7E7"/>
<stop offset="0.56" stop-color="white"/>
<stop offset="0.63" stop-color="#E2FAF9"/>
<stop offset="0.75" stop-color="#B4F2F0"/>
<stop offset="0.85" stop-color="#92EDE9"/>
<stop offset="0.94" stop-color="#7DE9E5"/>
<stop offset="1" stop-color="#76E8E3"/>
</linearGradient>
<linearGradient id="paint95_linear" x1="35.9302" y1="83.6922" x2="34.7323" y2="85.7342" gradientUnits="userSpaceOnUse">
<stop offset="0.04" stop-color="#363885"/>
<stop offset="0.11" stop-color="#343680"/>
<stop offset="0.2" stop-color="#2E3071"/>
<stop offset="0.29" stop-color="#242558"/>
<stop offset="0.39" stop-color="#161736"/>
<stop offset="0.49" stop-color="#04040B"/>
<stop offset="0.52"/>
<stop offset="0.57" stop-color="#020305"/>
<stop offset="0.65" stop-color="#080B14"/>
<stop offset="0.73" stop-color="#12172D"/>
<stop offset="0.81" stop-color="#202A4F"/>
<stop offset="0.9" stop-color="#32417B"/>
<stop offset="0.99" stop-color="#485DB0"/>
<stop offset="1" stop-color="#4B61B8"/>
</linearGradient>
<linearGradient id="paint96_linear" x1="1537.82" y1="1256.44" x2="1525.1" y2="1256.44" gradientUnits="userSpaceOnUse">
<stop offset="0.04" stop-color="#363885"/>
<stop offset="0.11" stop-color="#343680"/>
<stop offset="0.2" stop-color="#2E3071"/>
<stop offset="0.29" stop-color="#242558"/>
<stop offset="0.39" stop-color="#161736"/>
<stop offset="0.49" stop-color="#04040B"/>
<stop offset="0.52"/>
<stop offset="0.57" stop-color="#020305"/>
<stop offset="0.65" stop-color="#080B14"/>
<stop offset="0.73" stop-color="#12172D"/>
<stop offset="0.81" stop-color="#202A4F"/>
<stop offset="0.9" stop-color="#32417B"/>
<stop offset="0.99" stop-color="#485DB0"/>
<stop offset="1" stop-color="#4B61B8"/>
</linearGradient>
</defs>
</svg>
