<svg width="756" height="395" viewBox="0 0 756 395" fill="none" xmlns="http://www.w3.org/2000/svg">
<g clip-path="url(#clip0)">
<path d="M673.408 341.351C669.374 333.644 652.984 327.461 645.633 326.072C606.473 318.604 565.446 319.634 525.763 319.754C482.555 319.903 441.319 326.818 398.469 330.015C376.177 331.673 352.631 328.685 330.294 327.909C293.51 326.634 256.731 325.141 219.957 323.428C188.253 321.934 155.353 325.265 127.399 342.74C124.217 344.727 121.005 347.116 119.555 350.686C110.472 373.09 223.677 370.252 238.439 370.64C312.828 372.582 387.278 373.628 461.698 371.566C516.978 370.073 574.679 370.162 629.542 362.351C641.673 360.633 658.198 360.006 668.671 352.867C674.468 348.924 675.32 344.966 673.408 341.351Z" fill="#E7F5FE"/>
<path d="M625.254 35.8074C626.225 35.8074 627.226 35.8074 628.242 35.8074" stroke="#D2E8F9" stroke-miterlimit="10"/>
<path d="M634.233 36.2854C653.521 38.242 677.083 46.397 674.319 63.0804C669.926 89.6663 551.686 79.8534 523.418 80.1372C466.643 80.6898 409.241 80.8989 353.557 93.3256C340.006 96.3128 320.613 103.004 322.092 120.21C322.615 126.185 326.17 131.696 330.683 135.788C346.953 150.47 369.528 151.874 390.64 154.458C422.463 158.356 573.783 153.159 623.252 169.394C632.993 172.59 645.17 176.713 645.573 190.618C646.604 225.986 558.723 224.254 532.367 224.971C462.011 226.763 391.581 226.046 321.225 224.657C264.361 223.537 207.332 222.551 150.557 218.877C129.401 217.518 94.7986 217.099 78.6626 201.222C69.6982 192.351 68.4432 176.205 82.7116 167.96C92.7667 162.135 122.275 164.689 133.63 163.704C167.993 160.716 157.535 139.941 129.745 137.267" stroke="#4FACFE" stroke-miterlimit="10" stroke-dasharray="4.01 4.01"/>
<path d="M126.787 137.043C125.816 137.043 124.815 136.968 123.799 136.968" stroke="#D2E8F9" stroke-miterlimit="10"/>
<path d="M627.271 61.6764L618.202 13.8069C618.079 13.1537 617.787 12.5444 617.354 12.0402C616.921 11.5361 616.363 11.1549 615.736 10.9353C615.108 10.7157 614.434 10.6653 613.781 10.7892C613.128 10.9131 612.519 11.207 612.016 11.6412L575.083 43.4247C574.578 43.8567 574.196 44.414 573.976 45.0404C573.755 45.6669 573.703 46.3405 573.826 46.9932C573.949 47.646 574.242 48.2548 574.675 48.7585C575.108 49.2622 575.666 49.6428 576.293 49.8621L622.295 65.9481C622.923 66.1703 623.597 66.223 624.252 66.1009C624.906 65.9789 625.516 65.6864 626.021 65.253C626.526 64.8195 626.907 64.2606 627.127 63.6326C627.346 63.0046 627.396 62.3298 627.271 61.6764V61.6764Z" fill="#F0FAFF"/>
<path d="M620.293 61.0193C620.03 61.0173 619.768 60.977 619.516 60.8998L581.672 47.577C581.284 47.4398 580.94 47.2033 580.672 46.8911C580.405 46.5789 580.225 46.202 580.149 45.7982C580.073 45.3943 580.105 44.9776 580.241 44.5899C580.377 44.2022 580.613 43.8571 580.925 43.5891L611.314 17.4363C611.628 17.1711 612.005 16.9924 612.41 16.9178C612.814 16.8433 613.23 16.8755 613.618 17.0113C614.006 17.1471 614.352 17.3817 614.621 17.692C614.89 18.0023 615.074 18.3776 615.154 18.7806L622.624 58.1665C622.688 58.5049 622.676 58.853 622.59 59.1864C622.504 59.5197 622.345 59.83 622.126 60.0951C621.906 60.3603 621.631 60.5739 621.319 60.7207C621.008 60.8675 620.668 60.9439 620.323 60.9446L620.293 61.0193ZM583.704 45.2022L619.457 57.7035L612.42 20.4982L583.704 45.2022Z" fill="#BC6DF4" fill-opacity="0.6"/>
<path d="M603.859 44.8735C603.523 44.7398 603.248 44.4891 603.083 44.1678C602.918 43.8465 602.875 43.4764 602.962 43.126L606.727 29.9675C606.81 29.6764 606.952 29.4053 607.143 29.1708C607.334 28.9362 607.571 28.7431 607.84 28.6033C608.108 28.4635 608.403 28.38 608.705 28.3577C609.006 28.3355 609.31 28.375 609.596 28.4739V28.4739C609.885 28.5745 610.151 28.7333 610.377 28.9407C610.603 29.148 610.784 29.3995 610.908 29.6795C611.033 29.9595 611.099 30.262 611.102 30.5685C611.105 30.8749 611.045 31.1787 610.926 31.4611L605.651 44.0969C605.496 44.4199 605.229 44.6762 604.9 44.8188C604.57 44.9614 604.201 44.9808 603.859 44.8735Z" fill="#BC6DF4" fill-opacity="0.6"/>
<path d="M604.127 48.4581C604.038 48.7442 603.864 48.9968 603.629 49.1829C603.394 49.369 603.108 49.4801 602.809 49.5016C602.51 49.5232 602.211 49.4542 601.952 49.3037C601.692 49.1532 601.484 48.9282 601.354 48.6579C601.225 48.3875 601.179 48.0844 601.224 47.788C601.269 47.4915 601.403 47.2155 601.607 46.9958C601.811 46.776 602.076 46.6227 602.369 46.5559C602.661 46.4891 602.967 46.5117 603.246 46.621C603.598 46.7587 603.885 47.025 604.049 47.3659C604.212 47.7069 604.24 48.0972 604.127 48.4581Z" fill="#BC6DF4" fill-opacity="0.6"/>
<path d="M120.93 120.867L91.1383 106.051C90.7336 105.847 90.2823 105.754 89.8299 105.781C89.3776 105.808 88.9404 105.954 88.5627 106.204C88.185 106.454 87.8802 106.8 87.6792 107.206C87.4781 107.612 87.3881 108.063 87.4181 108.515L89.4649 141.673C89.4901 142.127 89.6351 142.565 89.8852 142.945C90.1353 143.324 90.4814 143.63 90.8884 143.832C91.2954 144.034 91.7487 144.124 92.202 144.094C92.6553 144.064 93.0925 143.914 93.469 143.66L121.199 125.288C121.567 125.036 121.863 124.693 122.058 124.292C122.254 123.891 122.342 123.447 122.315 123.002C122.288 122.557 122.146 122.126 121.904 121.752C121.661 121.378 121.326 121.074 120.93 120.867V120.867Z" fill="#F0FAFF"/>
<path d="M117.643 124.362C117.537 124.509 117.406 124.636 117.255 124.736L94.4551 139.851C94.2172 140.005 93.9432 140.094 93.6602 140.11C93.3772 140.126 93.095 140.067 92.8415 139.941C92.5901 139.817 92.376 139.628 92.2211 139.395C92.0662 139.161 91.9761 138.891 91.96 138.611L90.2717 111.308C90.2482 111.018 90.3022 110.727 90.4282 110.465C90.5542 110.202 90.7477 109.978 90.9889 109.815C91.2245 109.662 91.4959 109.574 91.7763 109.558C92.0567 109.542 92.3363 109.6 92.5875 109.725L117.09 121.913C117.343 122.039 117.558 122.23 117.712 122.466C117.867 122.702 117.957 122.975 117.972 123.257C117.993 123.454 117.975 123.653 117.918 123.843C117.862 124.033 117.768 124.209 117.643 124.362V124.362ZM93.9471 137.805L115.507 123.526L92.3485 112.01L93.9471 137.805Z" fill="#BC6DF4" fill-opacity="0.6"/>
<path d="M102.12 126.737C101.912 126.873 101.659 126.924 101.415 126.88C101.17 126.835 100.952 126.699 100.805 126.498L95.2022 119.03C95.0793 118.866 94.9917 118.678 94.9446 118.479C94.8975 118.279 94.8919 118.072 94.9284 117.87C94.9648 117.669 95.0424 117.477 95.1564 117.306C95.2703 117.136 95.4181 116.99 95.5906 116.879V116.879C95.76 116.763 95.9515 116.683 96.1532 116.644C96.355 116.605 96.5626 116.608 96.7631 116.653C96.9636 116.698 97.1527 116.783 97.3186 116.905C97.4845 117.026 97.6236 117.18 97.7272 117.357L102.419 125.438C102.548 125.651 102.589 125.905 102.533 126.148C102.477 126.391 102.329 126.602 102.12 126.737V126.737Z" fill="#BC6DF4" fill-opacity="0.6"/>
<path d="M104.196 127.992C104.269 128.1 104.319 128.222 104.344 128.35C104.369 128.478 104.368 128.61 104.342 128.738C104.315 128.866 104.264 128.987 104.19 129.095C104.116 129.203 104.022 129.295 103.913 129.366C103.805 129.437 103.684 129.487 103.557 129.512C103.429 129.537 103.299 129.536 103.172 129.511C103.045 129.485 102.924 129.435 102.817 129.362C102.709 129.29 102.617 129.197 102.545 129.09C102.474 128.982 102.424 128.861 102.399 128.734C102.374 128.607 102.375 128.476 102.401 128.349C102.426 128.222 102.477 128.101 102.549 127.994C102.621 127.887 102.714 127.794 102.822 127.723C103.041 127.579 103.307 127.527 103.564 127.577C103.821 127.627 104.048 127.776 104.196 127.992V127.992Z" fill="#BC6DF4" fill-opacity="0.6"/>
<path d="M141.548 187.81C142.918 187.81 144.028 186.7 144.028 185.331C144.028 183.961 142.918 182.851 141.548 182.851C140.178 182.851 139.068 183.961 139.068 185.331C139.068 186.7 140.178 187.81 141.548 187.81Z" stroke="#D2E8F9" stroke-miterlimit="10"/>
<path d="M509.732 141.927C511.102 141.927 512.212 140.817 512.212 139.448C512.212 138.078 511.102 136.968 509.732 136.968C508.362 136.968 507.252 138.078 507.252 139.448C507.252 140.817 508.362 141.927 509.732 141.927Z" stroke="#D2E8F9" stroke-miterlimit="10"/>
<path d="M314.382 72.4452C315.752 72.4452 316.862 71.3351 316.862 69.9658C316.862 68.5965 315.752 67.4865 314.382 67.4865C313.012 67.4865 311.902 68.5965 311.902 69.9658C311.902 71.3351 313.012 72.4452 314.382 72.4452Z" stroke="#D2E8F9" stroke-miterlimit="10"/>
<path d="M311.409 261.011C312.779 261.011 313.889 259.901 313.889 258.531C313.889 257.162 312.779 256.052 311.409 256.052C310.039 256.052 308.929 257.162 308.929 258.531C308.929 259.901 310.039 261.011 311.409 261.011Z" stroke="#D2E8F9" stroke-miterlimit="10"/>
<path d="M369.215 112.533V118.149" stroke="#D2E8F9" stroke-linecap="round" stroke-linejoin="round"/>
<path d="M372.024 115.341H366.406" stroke="#D2E8F9" stroke-linecap="round" stroke-linejoin="round"/>
<path d="M469.93 40.8707V46.4717" stroke="#D2E8F9" stroke-linecap="round" stroke-linejoin="round"/>
<path d="M472.739 43.6637H467.121" stroke="#D2E8F9" stroke-linecap="round" stroke-linejoin="round"/>
<path d="M625.747 192.186V197.787" stroke="#D2E8F9" stroke-linecap="round" stroke-linejoin="round"/>
<path d="M628.556 194.994H622.938" stroke="#D2E8F9" stroke-linecap="round" stroke-linejoin="round"/>
<path d="M419.595 352.553C419.595 352.553 409.136 357.034 409.136 359.229C409.136 360.514 423.509 358.677 424.376 357.736C425.75 356.347 423.808 352.658 423.808 352.658L419.595 352.553Z" fill="#26387A"/>
<path d="M418.923 346.295L419.595 352.702C419.75 353.052 420.003 353.348 420.324 353.555C420.646 353.762 421.021 353.871 421.403 353.867C421.869 353.876 422.331 353.774 422.751 353.572C423.172 353.37 423.539 353.072 423.823 352.702L423.3 344.667" fill="#FFB288"/>
<path d="M437.165 199.087C440.96 214.396 439.556 222.163 433.983 233.708C430.621 272.541 428.26 311.181 423.719 349.028L418.923 349.297C408.016 312.45 398.006 257.367 399.275 207.018" fill="url(#paint0_linear)"/>
<path d="M434.775 204.404C436.067 208.037 436.621 211.891 436.403 215.74C436.209 221.55 433.848 226.808 432.324 232.319C430.277 239.653 430.128 246.971 429.575 254.499C428.699 266.278 427.807 278.058 426.901 289.837C425.437 309.045 423.943 328.252 422.419 347.46L422.284 349.163" stroke="#0061A6" stroke-width="0.5" stroke-miterlimit="10"/>
<path d="M461.235 354.047C461.235 354.047 450.776 358.527 450.776 360.723C450.776 362.007 465.134 360.17 466.001 359.229C467.39 357.84 465.448 354.151 465.448 354.151L461.235 354.047Z" fill="#26387A"/>
<path d="M460.577 347.788L461.235 354.196C461.392 354.543 461.647 354.838 461.967 355.044C462.288 355.251 462.661 355.361 463.042 355.361C463.51 355.363 463.972 355.26 464.394 355.058C464.816 354.856 465.186 354.562 465.478 354.196L464.955 346.16" fill="#FFB288"/>
<path d="M471.902 197.787C476.698 212.813 475.802 220.654 471.021 232.543C470.229 271.496 467.54 312.166 465.523 350.238H460.592C447.265 314.183 433.012 258.532 430.95 208.212" fill="url(#paint1_linear)"/>
<path d="M469.512 204.016C469.512 204.016 475.085 217.04 465.672 235.381C464.581 252.647 464.029 350.283 464.029 350.283" fill="url(#paint2_linear)"/>
<path d="M469.512 204.016C469.512 204.016 475.085 217.04 465.672 235.381C464.581 252.647 464.029 350.283 464.029 350.283" stroke="#0061A6" stroke-width="0.5" stroke-miterlimit="10"/>
<path d="M455.692 208.138C456.698 209.592 458.127 210.703 459.785 211.319C461.429 211.913 463.141 212.299 464.88 212.469C466.934 212.753 469.009 212.858 471.081 212.783" stroke="#0061A6" stroke-width="0.5" stroke-miterlimit="10"/>
<path d="M456.424 210.572C458.244 212.154 460.441 213.239 462.803 213.724C465.148 214.202 467.537 214.427 469.93 214.396" stroke="#0061A6" stroke-width="0.5" stroke-miterlimit="10"/>
<path d="M414.889 125.244C398.274 154.13 380.39 180.297 369.797 211.872L366.63 210.199C367.437 180.85 376.954 138.193 389.445 111.622" fill="#FFB288"/>
<path d="M406.776 95.0283C402.805 96.3108 399.037 98.1514 395.585 100.495C389.951 104.423 385.489 109.808 382.676 116.073C379.873 122.308 378.001 128.92 377.118 135.699C381.847 137.931 386.883 139.441 392.059 140.18C397.522 140.755 403.031 140.755 408.494 140.18" fill="#D9F0FF"/>
<path d="M394.435 112.115C392.657 143.361 394.001 175.518 394.808 205.912C394.808 205.912 405.7 208.81 432.16 208.81C458.62 208.81 475.817 200.774 475.817 200.774C470.707 169.529 466.643 131.188 454.123 105.483C454.123 105.483 440.004 90.2488 426.064 89.6215C423.174 89.6628 420.336 90.3952 417.787 91.7573C415.815 92.6684 406.791 94.8789 406.791 94.8789L394.435 112.115Z" fill="#166DA5"/>
<path d="M394.24 114.893C393.538 120.867 393.538 139.448 393.538 139.448" stroke="#94C1F2" stroke-width="0.5" stroke-miterlimit="10"/>
<path d="M420.581 215.755C464.82 210.841 483.332 266.911 493.462 288.657C517.277 340.067 607.131 334.346 648.083 334.346C701.72 334.346 725.252 352.419 700.226 361.888" stroke="#B4E8FD" stroke-width="5" stroke-linecap="round" stroke-linejoin="round"/>
<path d="M435.82 218.279C435.82 241.042 418.594 254.768 403.877 254.768H379.718V181.791H403.877C418.594 181.791 435.82 195.517 435.82 218.279Z" fill="#FDAE2B"/>
<path d="M423.375 218.279C423.375 240.519 410.212 258.532 393.957 258.532H367.317V178.027H393.957C410.212 178.027 423.375 196.04 423.375 218.279Z" fill="#EF8417"/>
<g style="mix-blend-mode:multiply" opacity="0.5">
<path d="M429.291 196.279C423.524 204.135 417.912 212.101 412.453 220.176C413.227 220.017 413.942 219.645 414.515 219.101C414.515 219.698 413.544 220.744 414.395 221.132C415.247 221.52 416.158 220.52 417.04 220.803C417.877 220.609 418.654 219.549 419.266 218.951C419.073 219.398 418.947 219.871 418.893 220.355C424.779 218.07 430.038 212.604 434.61 208.183C433.546 203.935 431.746 199.906 429.291 196.279V196.279Z" fill="#FDAE2B"/>
</g>
<path d="M369.215 258.532C385.462 258.532 398.633 240.51 398.633 218.279C398.633 196.049 385.462 178.027 369.215 178.027C352.968 178.027 339.797 196.049 339.797 218.279C339.797 240.51 352.968 258.532 369.215 258.532Z" fill="#FFC840"/>
<path d="M371.68 232.543C371.68 235.844 369.424 238.517 366.63 238.517C363.836 238.517 361.595 235.829 361.595 232.543C361.595 229.257 363.851 226.569 366.63 226.569C369.409 226.569 371.68 229.242 371.68 232.543Z" fill="#EF8417"/>
<path d="M371.68 204.016C371.68 207.316 369.424 209.99 366.63 209.99C363.836 209.99 361.595 207.316 361.595 204.016C361.595 200.715 363.851 198.041 366.63 198.041C369.409 198.041 371.68 200.715 371.68 204.016Z" fill="#EF8417"/>
<path d="M462.161 135.176C462.161 135.176 464.029 154.189 455.527 170.006C448.221 183.494 433.803 201.028 422.12 210.677L419.311 209.99C423.375 194.412 436.209 166.676 437.001 156.355C437.793 146.034 437.613 133.951 437.808 128.171" fill="#FFB288"/>
<path d="M426.049 89.6215C426.049 89.6215 441.707 90.6819 450.776 98.359C463.745 109.307 465.717 130.755 465.717 135.699C461.802 139.941 453.226 140.179 446.981 140.179C443.18 140.156 439.452 139.125 436.179 137.192L434.909 113.549" fill="#D9F0FF"/>
<path d="M420.461 207.675C418.619 207.93 416.885 208.695 415.456 209.885C414.082 210.961 412.393 212.753 412.573 213.575C412.752 214.396 415.008 212.783 415.277 213.111C415.546 213.44 411.422 219.668 412.199 220.131C412.976 220.594 416.487 214.964 416.487 214.964C416.487 214.964 413.081 220.938 414.395 221.117C415.71 221.296 418.519 215.531 418.519 215.531C418.519 215.531 415.964 220.624 416.846 220.818C417.727 221.013 420.088 215.934 420.088 215.934C420.088 215.934 418.161 220.266 418.893 220.34C419.266 220.34 421.179 218.22 421.97 215.621C422.762 213.022 423.674 210.811 422.957 208.81" fill="#FFB288"/>
<path d="M436.792 116.028V137.581" stroke="#94C1F2" stroke-width="0.5" stroke-miterlimit="10"/>
<path d="M393.598 69.7418C393.508 70.6827 393.478 71.6088 393.478 72.5497C393.386 74.5967 393.906 76.6247 394.973 78.3747C395.79 79.52 396.977 80.3483 398.334 80.7197C399.29 80.9885 400.545 80.869 400.949 79.9729C401.073 79.6495 401.124 79.3026 401.098 78.9572C401.085 75.4717 400.41 72.0204 399.111 68.7859" fill="#26387A"/>
<path d="M417.219 71.6985C415.875 66.4709 411.661 59.1374 404.774 60.6011C402.625 60.989 400.614 61.9299 398.94 63.3311C397.266 64.7323 395.986 66.5455 395.226 68.5918C393.732 73.5057 396.168 79.2262 399.111 83.229C400.155 84.7767 401.54 86.0643 403.16 86.9928C407.134 89.054 412.513 87.3662 415.217 84.0056C416.473 82.2455 417.308 80.2198 417.655 78.0856C418.002 75.9514 417.853 73.7659 417.219 71.6985Z" fill="#FFB288"/>
<path d="M407.582 85.3797L409.823 93.5944L406.835 95.088C407.683 96.0566 408.767 96.7897 409.981 97.2162C411.196 97.6428 412.5 97.7483 413.768 97.5226C423.151 96.1783 426.109 89.6812 426.109 89.6812L420.805 89.1286L414.948 79.1365" fill="#FFB288"/>
<path d="M421.806 65.993C421.395 64.2057 420.619 62.5228 419.527 61.05C418.434 59.5771 417.048 58.3462 415.456 57.4347C409.898 54.0741 402.01 53.8053 397.049 58.4503C394.241 61.094 389.176 70.3991 395.227 72.3258C397.124 72.9083 399.066 71.7582 400.71 70.6529L405.73 67.2924C406.297 66.8453 406.972 66.5567 407.687 66.456C408.269 66.5048 408.825 66.7233 409.284 67.0843C409.744 67.4453 410.087 67.9331 410.272 68.4872C410.6 69.6279 410.845 70.791 411.004 71.9673C411.141 72.7984 411.59 73.546 412.259 74.0583C412.427 74.1841 412.619 74.2732 412.824 74.3197C413.029 74.3662 413.241 74.3692 413.446 74.3283C413.652 74.2874 413.847 74.2037 414.018 74.0826C414.19 73.9614 414.333 73.8056 414.44 73.6252C414.568 73.0598 414.568 72.473 414.44 71.9076C414.44 71.3251 414.754 70.6081 415.337 70.638C415.548 70.6506 415.748 70.7349 415.905 70.877C417.399 72.0121 416.891 74.2973 417.399 76.0747C417.399 76.3137 416.98 79.9281 417.13 80.1074C421.836 79.0768 422.269 68.5619 421.806 65.993Z" fill="#26387A"/>
<path d="M414.904 71.1309C414.887 70.799 415.002 70.4738 415.222 70.2253C415.443 69.9767 415.752 69.8246 416.084 69.8016C416.421 69.7877 416.757 69.8414 417.072 69.9594C417.388 70.0773 417.677 70.2573 417.922 70.4886C418.368 70.8523 418.732 71.3066 418.99 71.8216C419.247 72.3366 419.393 72.9005 419.416 73.4758C419.396 74.3773 419.104 75.2518 418.579 75.985C418.283 76.5184 417.814 76.9348 417.249 77.165C416.87 77.2591 416.473 77.2461 416.101 77.1274C415.729 77.0088 415.397 76.7891 415.143 76.4929" fill="#FFB288"/>
<path d="M248.524 352.269C248.524 352.269 258.594 353.957 258.878 356.168C259.042 357.437 244.759 358.946 243.788 358.199C242.293 357.004 244.131 352.538 244.131 352.538L248.524 352.269Z" fill="#26387A"/>
<path d="M247.732 346.145L248.553 352.508C248.443 352.872 248.228 353.196 247.937 353.44C247.645 353.684 247.288 353.838 246.91 353.882C246.448 353.952 245.977 353.913 245.533 353.768C245.089 353.622 244.686 353.375 244.355 353.046L243.175 345.1" fill="#FFB288"/>
<path d="M210.066 201.058C208.259 216.711 208.169 224.239 215.161 234.978C218.478 250.138 223.573 265.656 227.427 281.159C225.769 299.695 237.393 329.208 243.638 350.298L248.12 349.521C254.186 311.584 256.442 253.394 250.989 202.462" fill="url(#paint3_linear)"/>
<path d="M212.995 222.327C212.995 222.327 230.341 277.336 230.341 280.323C230.341 283.31 230.804 293.586 231.581 300.233C232.985 312.435 244.042 348.386 244.042 348.386" stroke="#4FACFE" stroke-width="0.5" stroke-miterlimit="10"/>
<path d="M243.503 351.134L242.801 348.386L248.628 348.177L248.703 350.716L243.503 351.134Z" fill="#0061A6"/>
<path d="M170.175 352.628C170.175 352.628 178.063 358.318 177.361 360.335C176.958 361.485 164.139 356.735 163.631 355.675C162.809 354.002 166.32 351 166.32 351L170.175 352.628Z" fill="#26387A"/>
<path d="M172.102 347.027L170.115 352.807C169.865 353.069 169.544 353.254 169.192 353.339C168.839 353.424 168.47 353.405 168.128 353.285C167.71 353.139 167.33 352.903 167.015 352.593C166.7 352.283 166.457 351.908 166.305 351.493L168.651 344.219" fill="#FFB288"/>
<mask id="path-61-inside-1" fill="white">
<path d="M176.196 197.787C171.4 212.813 172.296 220.654 177.077 232.543C177.361 246.777 177.51 261.175 177.675 275.573C167.53 300.964 165.931 323.712 167.216 347.863L172.102 349.685C172.102 349.685 201.221 298.903 206.57 278.889C212.634 255.78 216.181 232.084 217.148 208.212"/>
</mask>
<path d="M176.196 197.787C171.4 212.813 172.296 220.654 177.077 232.543C177.361 246.777 177.51 261.175 177.675 275.573C167.53 300.964 165.931 323.712 167.216 347.863L172.102 349.685C172.102 349.685 201.221 298.903 206.57 278.889C212.634 255.78 216.181 232.084 217.148 208.212" fill="url(#paint4_linear)"/>
<path d="M177.077 232.543L178.077 232.523L178.073 232.34L178.005 232.17L177.077 232.543ZM177.675 275.573L178.603 275.944L178.677 275.76L178.675 275.562L177.675 275.573ZM167.216 347.863L166.218 347.916L166.252 348.571L166.867 348.8L167.216 347.863ZM172.102 349.685L171.752 350.622L172.547 350.919L172.969 350.183L172.102 349.685ZM206.57 278.889L207.536 279.147L207.537 279.143L206.57 278.889ZM175.243 197.483C172.825 205.058 171.817 210.899 172.046 216.383C172.275 221.87 173.739 226.923 176.149 232.916L178.005 232.17C175.634 226.274 174.26 221.462 174.044 216.3C173.828 211.134 174.77 205.542 177.148 198.091L175.243 197.483ZM176.077 232.563C176.361 246.792 176.51 261.185 176.675 275.585L178.675 275.562C178.51 261.166 178.361 246.762 178.077 232.523L176.077 232.563ZM176.746 275.202C166.53 300.771 164.928 323.675 166.218 347.916L168.215 347.81C166.935 323.748 168.53 301.158 178.603 275.944L176.746 275.202ZM166.867 348.8L171.752 350.622L172.451 348.748L167.566 346.926L166.867 348.8ZM172.102 349.685C172.969 350.183 172.969 350.182 172.97 350.182C172.97 350.182 172.97 350.181 172.971 350.18C172.972 350.179 172.973 350.176 172.975 350.173C172.978 350.167 172.984 350.158 172.991 350.145C173.005 350.121 173.026 350.084 173.054 350.035C173.109 349.938 173.192 349.794 173.299 349.605C173.514 349.227 173.83 348.671 174.234 347.956C175.042 346.526 176.202 344.462 177.61 341.923C180.426 336.844 184.237 329.864 188.216 322.256C196.152 307.083 204.828 289.282 207.536 279.147L205.604 278.631C202.964 288.511 194.405 306.108 186.444 321.329C182.475 328.918 178.672 335.884 175.861 340.953C174.455 343.487 173.298 345.547 172.493 346.972C172.09 347.685 171.775 348.239 171.561 348.615C171.454 348.803 171.372 348.947 171.317 349.043C171.29 349.091 171.269 349.127 171.255 349.152C171.248 349.164 171.243 349.173 171.239 349.179C171.238 349.182 171.236 349.184 171.236 349.186C171.235 349.186 171.235 349.187 171.235 349.187C171.234 349.188 171.234 349.188 172.102 349.685ZM207.537 279.143C213.62 255.964 217.177 232.196 218.147 208.253L216.149 208.172C215.184 231.971 211.649 255.596 205.603 278.635L207.537 279.143Z" fill="#4FACFE" mask="url(#path-61-inside-1)"/>
<path d="M166.305 347.863L167.082 344.592L173.342 347.505L172.102 350.298L166.305 347.863Z" fill="#0061A6"/>
<path d="M257.638 81.81L253.708 78.4643V71.4743C253.708 70.3989 252.214 64.0064 250.944 64.0064C249.674 64.0064 249.331 62.3933 248.673 63.0505C248.016 63.7077 249.211 70.9964 248.673 71.5341C248.135 72.0718 247.433 68.0689 246.94 68.5469C246.447 69.0248 246.387 71.9821 246.387 73.4757C246.611 75.4965 247.451 77.3996 248.793 78.9274C249.973 80.1222 255.247 85.8128 255.247 85.8128L257.638 81.81Z" fill="#EF9467"/>
<path d="M255.665 79.5845L252.393 83.3184C252.393 83.3184 265.347 100.45 269.441 106.2C265.16 104.404 261.071 102.182 257.234 99.5687C251.138 95.5659 245.028 93.4599 240.799 93.4599C231.835 93.4599 236.526 123.018 246.94 127.349C266.677 130.337 288.774 128.44 292.195 121.495C297.215 111.219 268.275 86.9927 255.665 79.5845Z" fill="#D9F0FF"/>
<path d="M269.441 106.2C269.441 106.2 271.921 113.086 276.313 115.341" stroke="#94C1F2" stroke-width="0.5" stroke-miterlimit="10"/>
<path d="M195.469 101.346C171.938 127.783 172.296 173.218 172.296 204.09C172.296 204.09 189.568 215.89 215.953 215.89C242.338 215.89 253.305 209.377 253.305 209.377C254.097 178.102 248.524 164.57 253.678 112.847C253.678 112.847 245.267 93.5347 240.769 93.5347C236.272 93.5347 218.717 91.8021 218.717 91.8021L195.469 101.346Z" fill="#166DA5"/>
<path d="M252.408 128.037C252.408 128.037 252.946 119 255.142 116.805" stroke="#94C1F2" stroke-width="0.5" stroke-miterlimit="10"/>
<path d="M226.531 71.9075C227.397 66.5753 231.207 58.958 238.185 59.8243C242.562 60.362 245.954 63.394 248.404 66.9338C250.511 69.921 249.719 72.9082 246.731 80.5703C245.526 82.6287 243.963 84.4549 242.114 85.9621C238.334 88.3519 232.836 87.157 229.848 83.9757C228.417 82.3462 227.376 80.4134 226.801 78.3229C226.226 76.2324 226.134 74.0388 226.531 71.9075V71.9075Z" fill="#FFB288"/>
<path d="M227.457 71.2653C228.473 71.1159 227.457 70.4587 227.905 71.3698C228.189 71.9523 228.279 72.1166 228.847 72.3108C229.415 72.505 229.415 73.0128 229.878 73.3563C230.61 73.894 231.222 73.1621 231.536 72.5348C232.026 71.3337 232.171 70.02 231.954 68.7411C231.85 67.7553 231.521 66.202 232.477 65.5149C233.434 64.8279 235.002 65.7689 235.824 66.0078C237.064 66.3663 238.304 66.7696 239.559 67.1579C242.543 68.252 245.728 68.6901 248.897 68.4424C250.316 68.3112 251.685 67.8481 252.891 67.0904C254.098 66.3328 255.11 65.3019 255.845 64.0811C257.428 61.0043 254.261 57.0015 251.019 56.9866C250.176 57.0745 249.345 57.2497 248.539 57.5093C248.234 57.584 247.917 57.584 247.612 57.5093C246.91 57.3002 246.596 56.5086 246.208 55.8813C245.621 55.0374 244.802 54.3812 243.85 53.9916C242.899 53.6021 241.855 53.4959 240.844 53.6857C238.555 54.174 236.311 54.8535 234.136 55.717C232.985 55.8589 231.821 55.8589 230.67 55.717C230.04 55.7624 229.434 55.9708 228.91 56.3218C228.386 56.6727 227.963 57.1541 227.681 57.7184C226.695 56.6878 224.514 59.212 223.976 59.8542C221.586 62.7667 220.839 66.9488 220.779 70.6081C220.779 73.8193 221.257 78.4793 224.768 79.7787C226.262 80.3164 227.188 80.6152 227.263 79.256C226.717 77.502 226.4 75.6846 226.322 73.8492C226.208 73.2782 226.271 72.6859 226.503 72.1519C226.736 71.6179 227.126 71.1678 227.622 70.862" fill="#26387A"/>
<path d="M238.917 84.6479L238.155 92.6984L240.799 93.4601C240.25 94.6181 239.411 95.6152 238.365 96.3555C237.318 97.0958 236.098 97.5543 234.823 97.6869C225.425 98.9416 218.792 91.7126 218.792 91.7126L221.929 91.1002L226.68 76.1643" fill="#FFB288"/>
<path d="M229.026 71.2056C229.014 70.8702 228.872 70.5526 228.629 70.3209C228.386 70.0892 228.062 69.9618 227.726 69.9659C227.05 70.0076 226.416 70.3133 225.963 70.8173C223.334 73.431 226.636 79.7788 229.235 76.5228" fill="#FFB288"/>
<path d="M246.746 80.436C246.313 81.4367 244.654 81.825 243.758 81.9296C239.276 82.4075 235.675 79.5548 231.432 79.032C231.045 78.8655 230.619 78.8107 230.202 78.8738C229.785 78.9369 229.395 79.1154 229.075 79.389C228.754 79.6626 228.517 80.0204 228.39 80.4219C228.262 80.8234 228.25 81.2526 228.354 81.6607C228.301 82.6558 228.301 83.6529 228.354 84.6479C228.393 85.4994 228.623 86.3313 229.026 87.0824C230.939 90.2638 237.318 90.8015 240.545 90.6073C241.857 90.6058 243.14 90.2217 244.236 89.5021C245.73 88.4118 245.999 86.5149 246.552 84.8122C246.954 83.3881 247.021 81.8901 246.746 80.436V80.436Z" fill="#26387A"/>
<path d="M243.608 83.901C243.467 83.8003 243.302 83.7385 243.13 83.7218C241.517 83.605 239.91 83.4006 238.319 83.1094C238.048 83.057 237.769 83.057 237.497 83.1094C237.223 83.2222 236.985 83.4065 236.806 83.6429C236.627 83.8793 236.515 84.1592 236.481 84.4536C236.425 84.7163 236.465 84.9906 236.594 85.2264C236.723 85.4622 236.932 85.6438 237.184 85.7381C238.153 86.1844 239.209 86.4138 240.276 86.4102C241.274 86.5673 242.295 86.3831 243.175 85.8875C243.608 85.5738 244.251 84.364 243.608 83.901Z" fill="#FFB288"/>
<path d="M224.111 200.536C172.7 197.847 142.758 224.433 121.498 272.676C93.9172 335.407 55.3552 340.395 37.9791 340.052" stroke="#B4E8FD" stroke-width="5" stroke-linecap="round" stroke-linejoin="round"/>
<path d="M204.449 204.717C206.331 227.39 224.648 239.638 239.32 238.428L263.39 236.411L257.324 163.689L233.254 165.705C218.583 166.915 202.551 182 204.449 204.717Z" fill="#FDAE2B"/>
<path d="M216.849 203.687C218.687 225.837 233.284 242.699 249.51 241.355L276.059 239.145L269.366 158.909L242.816 161.09C226.621 162.464 214.997 181.522 216.849 203.687Z" fill="#EF8417"/>
<path d="M274.175 239.279C290.366 237.928 301.992 218.874 300.143 196.721C298.294 174.567 283.669 157.703 267.478 159.053C251.287 160.404 239.661 179.458 241.51 201.612C243.359 223.765 257.984 240.63 274.175 239.279Z" fill="#FFC840"/>
<path d="M269.56 213.604C269.829 216.89 272.309 219.37 275.073 219.146C277.837 218.922 279.884 216.054 279.555 212.768C279.227 209.482 276.821 206.988 274.042 207.227C271.263 207.466 269.276 210.378 269.56 213.604Z" fill="#FDAE2B"/>
<path d="M267.185 185.166C267.453 188.452 269.934 190.947 272.713 190.708C275.492 190.469 277.509 187.616 277.195 184.33C276.881 181.044 274.446 178.55 271.667 178.789C268.888 179.028 266.916 181.881 267.185 185.166Z" fill="#FDAE2B"/>
<path d="M273.041 188.9L310.573 185.764C311.669 185.669 312.683 185.144 313.393 184.305C314.104 183.466 314.454 182.379 314.368 181.283V181.283C314.283 180.178 313.764 179.152 312.924 178.429C312.083 177.707 310.991 177.347 309.885 177.43L272.339 180.506C269.471 180.76 270.023 189.139 273.041 188.9Z" fill="#E2E8ED"/>
<path d="M275.417 217.323L312.948 214.202C314.042 214.103 315.054 213.577 315.764 212.739C316.474 211.901 316.826 210.816 316.743 209.721C316.655 208.619 316.134 207.596 315.294 206.877C314.454 206.158 313.364 205.8 312.261 205.883L274.73 209.019C271.921 209.198 272.399 217.577 275.417 217.323Z" fill="#E2E8ED"/>
<path d="M182.934 135.176C182.934 135.176 181.066 154.189 189.568 170.006C196.844 183.538 211.292 201.028 222.96 210.677L225.769 209.99C221.705 194.412 208.886 166.676 208.079 156.355C207.272 146.034 207.482 133.951 207.287 128.171" fill="#FFB288"/>
<path d="M218.747 91.7274C218.747 91.7274 202.312 92.6684 192.765 99.8376C176.33 112.219 179.572 145.497 184.353 161.762C189.134 178.027 212.098 202.417 219.524 207.675C220.734 207.675 224.305 207.376 224.185 204.583C220.076 191.902 208.378 158.536 208.378 158.536L210.231 113.549" fill="#D9F0FF"/>
<path d="M224.633 207.675C226.475 207.933 228.208 208.698 229.639 209.885C231.013 210.961 232.701 212.753 232.522 213.575C232.343 214.396 230.087 212.783 229.818 213.111C229.549 213.44 233.658 219.668 232.881 220.131C232.104 220.594 228.608 214.964 228.608 214.964C228.608 214.964 232.014 220.938 230.684 221.117C229.594 221.237 226.561 215.531 226.561 215.531C226.561 215.531 229.131 220.624 228.249 220.818C227.368 221.013 225.007 215.934 225.007 215.934C225.007 215.934 226.934 220.266 226.187 220.34C225.814 220.34 223.916 218.22 223.199 215.621C222.482 213.022 221.496 210.811 222.198 208.81" fill="#FFB288"/>
<path d="M213.01 171.799C210.38 164.226 208.378 158.536 208.378 158.536L211.844 120.763" stroke="#94C1F2" stroke-width="0.5" stroke-miterlimit="10"/>
<path d="M180.588 129.948C180.498 140.194 181.724 152.815 184.353 161.762C186.654 169.588 193.168 179.297 200.131 187.855" stroke="#94C1F2" stroke-width="0.5" stroke-miterlimit="10"/>
<path d="M533.383 74.3271L536.043 72.5049C536.493 70.1927 537.127 67.9201 537.94 65.709C538.886 64.0372 540.12 62.5456 541.586 61.303C542.228 60.8549 545.172 59.197 545.919 59.9438C546.292 60.3023 545.052 63.6479 544.425 64.2155C543.797 64.783 542.168 67.3371 542.437 68.1436C542.706 68.9501 544.096 67.1877 544.425 66.8591C544.753 66.5305 545.201 66.1272 545.366 66.5455C545.126 68.7195 544.294 70.786 542.96 72.5198C541.8 73.7501 540.257 74.5505 538.583 74.7901L534.459 78.4344" fill="#FFB288"/>
<path d="M565.371 55.3286C567.492 56.7249 569.307 58.537 570.707 60.655C572.106 62.773 573.061 65.153 573.514 67.6507C573.614 68.5456 573.944 69.3995 574.47 70.1301C575.003 70.6055 575.622 70.9755 576.293 71.2204C578.097 72.0894 579.707 73.312 581.029 74.8156C582.351 76.3192 583.357 78.073 583.987 79.9729C584.54 81.5859 584.107 83.8562 584.749 85.2303C585.526 86.9181 588.395 87.3064 589.934 87.8142C592.257 88.5842 594.282 90.0608 595.725 92.0375C597.168 94.0142 597.957 96.3922 597.981 98.839C598.006 101.286 597.265 103.679 595.862 105.685C594.46 107.69 592.465 109.207 590.158 110.024C590.734 110.917 591.108 111.925 591.252 112.978C591.397 114.031 591.309 115.103 590.995 116.118C590.345 118.139 589.247 119.987 587.782 121.525C584.813 124.766 581.168 127.315 577.104 128.993C573.04 130.67 568.658 131.435 564.266 131.233C561.734 131.151 559.235 130.646 556.87 129.739C554.263 128.549 551.839 126.995 549.669 125.124C546.837 123.137 544.501 120.526 542.841 117.492C541.347 114.355 541.481 110.263 543.946 107.843C542.509 108.071 541.036 107.875 539.709 107.278C538.382 106.681 537.258 105.709 536.476 104.483C535.722 103.239 535.224 101.857 535.011 100.418C534.798 98.9793 534.875 97.5125 535.236 96.1036C535.964 93.2849 537.283 90.6529 539.105 88.3818C540.499 86.8885 541.487 85.063 541.974 83.0795C542.407 79.704 540.48 76.7019 540.047 73.3413C539.285 68.1287 539.509 63.6479 543.991 60.8698C545.41 57.1508 547.159 54.2831 551.267 53.1928C553.64 52.5747 556.114 52.4454 558.539 52.8125C560.963 53.1797 563.288 54.0357 565.371 55.3286V55.3286Z" fill="#26387A"/>
<path d="M554.629 94.9686C539.688 91.0703 522.656 97.2239 518.861 97.2089C524.06 92.0113 533.622 80.421 536.924 76.4182C537.006 75.7327 536.893 75.0379 536.597 74.4142C536.301 73.7905 535.834 73.2632 535.251 72.8933C535.251 72.8933 494.373 94.0276 498.482 107.828C502.77 122.227 542.826 115.162 546.023 119.299" fill="#B6E9FE"/>
<path d="M557.542 229.078C557.542 230.303 552.164 256.545 551.76 259.353C550.625 267.553 554.958 275.783 554.539 288.493C554.016 303.937 547.442 345.473 546.621 347.311C545.799 349.148 541.765 347.475 541.765 347.475C541.765 347.475 530.216 291.749 529.558 268.957C529.021 250.182 531.755 209.527 531.755 209.527" fill="#FFB288"/>
<path d="M547.024 348.027C547.347 348.67 547.564 349.361 547.667 350.074L547.517 353.061H546.77L546.516 351.657C545.078 351.962 543.709 352.535 542.482 353.345C541.496 353.987 536.506 353.927 535.774 353.524C535.628 353.461 535.499 353.365 535.398 353.242C535.298 353.119 535.229 352.973 535.196 352.818C535.164 352.663 535.17 352.502 535.213 352.349C535.256 352.196 535.336 352.056 535.445 351.941C535.729 351.597 541.093 349.267 541.093 349.267" fill="#26387A"/>
<path d="M541.765 347.475C541.332 348.52 537.104 350.821 537.492 351.134C539.372 351.487 541.313 351.284 543.08 350.552C545.56 349.715 546.964 348.789 547.054 348.147L546.576 346.385" fill="#FFB288"/>
<path d="M594.64 230.168C594.64 231.393 590.158 257.785 589.799 260.608C588.903 268.837 593.49 276.933 593.445 289.643C593.445 305.102 588.111 346.818 587.334 348.685C586.557 350.552 582.493 348.983 582.493 348.983C582.493 348.983 569.241 293.646 567.896 270.884C566.791 252.124 568.27 211.424 568.27 211.424" fill="#FFB288"/>
<path d="M587.738 349.387C588.081 350.021 588.318 350.707 588.44 351.418C588.44 353.15 588.44 354.33 588.44 354.33L587.693 354.405L587.379 353.001C585.953 353.349 584.605 353.962 583.405 354.808C582.434 355.48 577.428 355.57 576.711 355.197C576.564 355.136 576.434 355.041 576.331 354.92C576.227 354.8 576.154 354.656 576.118 354.501C576.081 354.346 576.082 354.185 576.121 354.031C576.159 353.876 576.233 353.733 576.338 353.613C576.607 353.27 581.896 350.776 581.896 350.776" fill="#26387A"/>
<path d="M582.478 348.983C582.075 350.044 577.907 352.478 578.31 352.777C580.197 353.069 582.129 352.804 583.868 352.015C586.333 351.119 587.708 350.148 587.768 349.491L587.245 347.759" fill="#FFB288"/>
<mask id="path-97-inside-2" fill="white">
<path d="M581.194 162.703C581.194 162.703 593.042 170.455 597.554 189.05C603.634 214.142 594.67 263.266 594.67 263.266C582.043 266.681 569.025 268.444 555.944 268.509C535.774 268.344 523.821 261.534 523.776 260.309C523.731 259.084 520.788 221.894 524.867 196.667C529.469 168.289 541.197 160.716 541.197 160.716"/>
</mask>
<path d="M581.194 162.703C581.194 162.703 593.042 170.455 597.554 189.05C603.634 214.142 594.67 263.266 594.67 263.266C582.043 266.681 569.025 268.444 555.944 268.509C535.774 268.344 523.821 261.534 523.776 260.309C523.731 259.084 520.788 221.894 524.867 196.667C529.469 168.289 541.197 160.716 541.197 160.716" fill="url(#paint5_linear)"/>
<path d="M597.554 189.05L598.525 188.814L598.525 188.814L597.554 189.05ZM594.67 263.266L594.931 264.231L595.54 264.067L595.654 263.446L594.67 263.266ZM555.944 268.509L555.936 269.509L555.949 269.509L555.944 268.509ZM524.867 196.667L523.88 196.507L523.88 196.507L524.867 196.667ZM581.194 162.703C580.646 163.54 580.646 163.539 580.645 163.539C580.645 163.539 580.645 163.539 580.645 163.539C580.645 163.539 580.645 163.539 580.645 163.539C580.646 163.539 580.647 163.54 580.649 163.541C580.652 163.544 580.659 163.548 580.668 163.554C580.686 163.567 580.716 163.587 580.755 163.614C580.835 163.67 580.956 163.756 581.113 163.874C581.429 164.109 581.891 164.47 582.463 164.962C583.607 165.947 585.188 167.458 586.911 169.54C590.355 173.704 594.367 180.157 596.582 189.286L598.525 188.814C596.228 179.347 592.06 172.627 588.452 168.266C586.649 166.086 584.986 164.496 583.768 163.447C583.158 162.922 582.66 162.532 582.309 162.271C582.134 162.14 581.996 162.041 581.9 161.974C581.852 161.941 581.814 161.915 581.787 161.897C581.774 161.888 581.763 161.881 581.756 161.876C581.752 161.873 581.749 161.871 581.746 161.869C581.745 161.869 581.744 161.868 581.743 161.867C581.743 161.867 581.742 161.867 581.742 161.867C581.741 161.866 581.741 161.866 581.194 162.703ZM596.582 189.285C599.578 201.651 598.878 220.053 597.397 235.472C596.658 243.159 595.73 250.066 594.987 255.051C594.615 257.543 594.289 259.554 594.057 260.941C593.941 261.635 593.848 262.172 593.784 262.536C593.752 262.717 593.728 262.856 593.711 262.948C593.703 262.995 593.697 263.029 593.692 263.053C593.69 263.064 593.689 263.073 593.688 263.079C593.687 263.081 593.687 263.083 593.687 263.085C593.686 263.085 593.686 263.086 593.686 263.086C593.686 263.087 593.686 263.087 594.67 263.266C595.654 263.446 595.654 263.445 595.654 263.445C595.654 263.445 595.654 263.444 595.654 263.443C595.655 263.441 595.655 263.439 595.656 263.436C595.657 263.43 595.658 263.42 595.661 263.408C595.665 263.384 595.671 263.348 595.68 263.301C595.697 263.206 595.722 263.065 595.754 262.881C595.819 262.513 595.913 261.97 596.03 261.272C596.264 259.874 596.591 257.851 596.965 255.346C597.712 250.336 598.645 243.394 599.388 235.663C600.868 220.247 601.61 201.541 598.525 188.814L596.582 189.285ZM594.409 262.301C581.865 265.693 568.934 267.444 555.939 267.509L555.949 269.509C569.116 269.443 582.22 267.669 594.931 264.231L594.409 262.301ZM555.952 267.509C545.977 267.427 538.052 265.703 532.635 263.86C529.924 262.937 527.854 261.99 526.476 261.213C525.784 260.822 525.288 260.487 524.978 260.233C524.821 260.104 524.737 260.016 524.7 259.972C524.632 259.887 524.766 260.006 524.776 260.272L522.777 260.345C522.792 260.765 523.025 261.081 523.146 261.23C523.3 261.42 523.497 261.604 523.71 261.779C524.141 262.133 524.744 262.532 525.494 262.955C527 263.804 529.187 264.799 531.991 265.753C537.604 267.663 545.741 269.426 555.936 269.509L555.952 267.509ZM524.776 260.272C524.728 258.962 521.796 221.926 525.854 196.827L523.88 196.507C519.78 221.862 522.735 259.206 522.777 260.345L524.776 260.272ZM525.854 196.827C528.135 182.759 532.173 173.904 535.598 168.592C537.311 165.934 538.874 164.158 539.994 163.056C540.554 162.504 541.004 162.121 541.307 161.879C541.459 161.759 541.573 161.674 541.647 161.621C541.684 161.595 541.71 161.576 541.726 161.566C541.734 161.56 541.739 161.557 541.741 161.555C541.742 161.555 541.743 161.554 541.743 161.555C541.742 161.555 541.742 161.555 541.742 161.555C541.741 161.555 541.741 161.556 541.741 161.556C541.74 161.556 541.74 161.556 541.197 160.716C540.655 159.876 540.654 159.877 540.653 159.877C540.653 159.877 540.652 159.878 540.652 159.878C540.651 159.879 540.649 159.88 540.648 159.881C540.645 159.883 540.641 159.885 540.636 159.888C540.627 159.894 540.615 159.902 540.601 159.912C540.572 159.932 540.532 159.96 540.482 159.996C540.381 160.068 540.24 160.173 540.061 160.315C539.705 160.599 539.202 161.028 538.591 161.63C537.368 162.834 535.711 164.725 533.917 167.508C530.327 173.076 526.2 182.197 523.88 196.507L525.854 196.827Z" fill="#4FACFE" mask="url(#path-97-inside-2)"/>
<path d="M565.103 94.4906C566.925 93.8035 571.691 95.4763 580.611 98.9714C584.525 103.213 586.244 112.414 587.095 120.718C584.779 140.717 582.195 151.635 583.45 158.386C583.734 159.984 585.198 161.194 584.944 163.435C584.451 168.05 576.906 168.752 562.533 170.38C548.16 172.008 535.281 165.496 536.058 163.45C536.835 161.403 539.27 159.641 539.659 158.282C540.047 156.923 541.153 139.806 539.659 137.775C538.164 135.744 534.115 129.874 534.115 124.183C534.115 116.163 538.598 112.563 541.422 108.157C546.232 100.808 549.893 96.2082 554.569 95.0432C562.084 93.1314 565.103 94.4906 565.103 94.4906Z" fill="#B6E9FE"/>
<path d="M540.958 104.632C541.22 106.816 540.786 109.027 539.718 110.95C539.18 111.831 535.923 115.147 535.236 117.268" stroke="#6CB1EF" stroke-width="0.5" stroke-miterlimit="10"/>
<path d="M561.666 84.7225C565.581 80.8392 566.148 73.4608 564.415 68.4723C562.413 62.8713 554.42 58.6594 548.907 62.1693C538.09 69.0697 549.071 97.2388 561.666 84.7225Z" fill="#FFB288"/>
<path d="M554.211 84.0504L554.42 95.9991C554.42 95.9991 553.957 98.6726 558.663 98.8369C565.102 99.0759 565.102 94.4458 565.102 94.4458L561.367 82.0789" fill="#FFB288"/>
<path d="M559.081 56.867C558.483 56.4446 557.773 56.2104 557.041 56.1945C556.309 56.1785 555.589 56.3815 554.973 56.7774C554.233 57.3927 553.46 57.9661 552.657 58.495C551.987 58.7098 551.303 58.8794 550.61 59.0028C549.005 59.4462 547.514 60.2291 546.238 61.2985C544.962 62.3679 543.931 63.6988 543.214 65.2012C541.885 68.1884 542.318 73.0575 544.798 75.1934C544.715 72.5438 545.339 69.9198 546.606 67.591C546.869 67.0427 547.276 66.5764 547.784 66.2422C548.292 65.908 548.882 65.7185 549.489 65.6941C550.834 65.8435 551.581 67.2922 552.552 68.2481C554.148 69.4859 556.092 70.1912 558.11 70.2645C560.336 70.5931 562.04 70.9814 563.13 73.1621C563.571 74.1172 563.902 75.1193 564.116 76.1492C564.451 77.3562 564.676 78.591 564.789 79.8384C564.767 80.623 564.853 81.4069 565.043 82.1684C565.361 82.8804 565.84 83.5095 566.441 84.0068C567.042 84.5041 567.75 84.8563 568.509 85.0361C569.644 85.4244 571.497 85.7829 572.274 84.4984C572.899 83.3026 573.338 82.0182 573.574 80.6897C574.097 76.595 573.115 72.4496 570.81 69.0248C568.419 65.2311 565.013 62.6771 561.95 59.5107C561.08 58.5404 560.119 57.6552 559.081 56.867Z" fill="#26387A"/>
<path d="M562.099 75.3577C562.189 74.8839 562.411 74.4449 562.738 74.0909C563.066 73.737 563.487 73.4824 563.952 73.3563C567.015 72.8932 566.552 77.4636 565.446 79.0618C564.759 80.0027 562.966 81.2275 562.174 78.6286" fill="#FFB288"/>
<path d="M594.536 168.827L593.042 171.903C593.042 171.903 587.603 173.188 587.065 174.144C586.154 175.637 584.794 177.743 584.794 178.938C584.794 180.133 584.899 185.331 586.393 185.331C587.319 185.331 589.516 181.089 589.964 180.491C591.025 179.088 595.313 178.072 595.313 174.368L597.942 168.827" fill="#FFB288"/>
<path d="M565.102 94.3412C565.102 94.3412 577.772 91.115 587.663 97.3283C595.357 102.183 615.154 126.319 615.154 140.15C615.154 149.47 596.642 172.56 596.642 172.56L593.564 170.365C593.564 170.365 595.357 152.218 600.736 142.226C596.762 138.253 581.313 125.931 577.414 122.047" fill="#B6E9FE"/>
<path d="M575.397 120.763C578.161 123.227 585.452 129.097 585.452 129.097" stroke="#6CB1EF" stroke-width="0.5" stroke-miterlimit="10"/>
<path d="M201.894 72.968L186.579 60.6309C186.579 60.6309 193.467 35.2399 184.353 26.353C179.352 21.7609 173.464 18.2387 167.052 16.0025C152.963 10.6703 136.14 9.4456 123.589 17.7798C114.326 23.9185 108.649 34.4483 106.184 45.2619C103.972 54.791 104.152 65.6195 110.113 73.3712C112.893 76.799 116.385 79.5816 120.347 81.5262C132.449 87.8591 164.482 90.2637 178.377 80.9437C182.232 78.3748 181.888 74.8798 183.502 69.4431L201.894 72.968Z" fill="#E7F5FE"/>
<path d="M134.58 49.4103C134.58 50.5814 134.383 51.6046 133.989 52.4801C133.595 53.3502 133.037 54.015 132.315 54.4747C131.592 54.9343 130.75 55.1642 129.787 55.1642C128.845 55.1642 128.011 54.9343 127.283 54.4747C126.555 54.0096 125.989 53.3502 125.584 52.4966C125.185 51.6375 124.979 50.6443 124.969 49.5171V48.6552C124.969 47.5061 125.168 46.491 125.568 45.61C125.967 44.729 126.531 44.056 127.259 43.5909C127.992 43.1203 128.829 42.885 129.77 42.885C130.728 42.885 131.571 43.1175 132.298 43.5827C133.032 44.0423 133.595 44.7126 133.989 45.5936C134.383 46.4691 134.58 47.4897 134.58 48.6552V49.4103ZM133.012 48.6388C133.012 47.2215 132.728 46.1354 132.159 45.3802C131.59 44.6196 130.793 44.2393 129.77 44.2393C128.774 44.2393 127.989 44.6196 127.415 45.3802C126.845 46.1354 126.553 47.186 126.536 48.5321V49.4103C126.536 50.7838 126.824 51.8645 127.398 52.6525C127.978 53.435 128.774 53.8263 129.787 53.8263C130.804 53.8263 131.592 53.4569 132.151 52.7182C132.709 51.974 132.996 50.9097 133.012 49.5253V48.6388ZM146.137 49.4103C146.137 50.5814 145.94 51.6046 145.546 52.4801C145.152 53.3502 144.594 54.015 143.872 54.4747C143.149 54.9343 142.307 55.1642 141.344 55.1642C140.402 55.1642 139.568 54.9343 138.84 54.4747C138.112 54.0096 137.546 53.3502 137.141 52.4966C136.742 51.6375 136.536 50.6443 136.525 49.5171V48.6552C136.525 47.5061 136.725 46.491 137.125 45.61C137.524 44.729 138.088 44.056 138.815 43.5909C139.549 43.1203 140.386 42.885 141.327 42.885C142.285 42.885 143.127 43.1175 143.855 43.5827C144.588 44.0423 145.152 44.7126 145.546 45.5936C145.94 46.4691 146.137 47.4897 146.137 48.6552V49.4103ZM144.569 48.6388C144.569 47.2215 144.285 46.1354 143.716 45.3802C143.147 44.6196 142.35 44.2393 141.327 44.2393C140.331 44.2393 139.546 44.6196 138.971 45.3802C138.402 46.1354 138.11 47.186 138.093 48.5321V49.4103C138.093 50.7838 138.38 51.8645 138.955 52.6525C139.535 53.435 140.331 53.8263 141.344 53.8263C142.361 53.8263 143.149 53.4569 143.707 52.7182C144.266 51.974 144.553 50.9097 144.569 49.5253V48.6388ZM150.077 50.3214V55H148.501V43.0491H152.909C154.216 43.0491 155.24 43.3829 155.978 44.0505C156.723 44.7181 157.095 45.6018 157.095 46.7017C157.095 47.8618 156.731 48.7564 156.003 49.3857C155.281 50.0095 154.244 50.3214 152.892 50.3214H150.077ZM150.077 49.0328H152.909C153.751 49.0328 154.397 48.8358 154.846 48.4418C155.294 48.0423 155.519 47.4678 155.519 46.7181C155.519 46.0068 155.294 45.4377 154.846 45.0109C154.397 44.584 153.781 44.3624 152.999 44.346H150.077V49.0328ZM162.627 49.673C161.275 49.2845 160.29 48.8084 159.672 48.2448C159.059 47.6757 158.753 46.9753 158.753 46.1436C158.753 45.2024 159.128 44.4254 159.877 43.8125C160.632 43.1941 161.612 42.885 162.816 42.885C163.636 42.885 164.367 43.0437 165.007 43.361C165.653 43.6784 166.151 44.1162 166.501 44.6743C166.857 45.2325 167.035 45.8426 167.035 46.5047H165.45C165.45 45.7824 165.221 45.2161 164.761 44.8057C164.301 44.3898 163.653 44.1818 162.816 44.1818C162.039 44.1818 161.431 44.3542 160.993 44.699C160.561 45.0382 160.345 45.5115 160.345 46.1189C160.345 46.6059 160.55 47.0191 160.961 47.3583C161.377 47.6921 162.08 47.9986 163.07 48.2776C164.066 48.5567 164.843 48.8659 165.401 49.2051C165.965 49.5389 166.381 49.9302 166.649 50.3789C166.922 50.8276 167.059 51.3556 167.059 51.963C167.059 52.9316 166.682 53.7086 165.927 54.2941C165.171 54.8741 164.162 55.1642 162.898 55.1642C162.077 55.1642 161.311 55.0082 160.6 54.6963C159.888 54.3789 159.338 53.9466 158.95 53.3994C158.567 52.8522 158.375 52.2312 158.375 51.5362H159.959C159.959 52.2585 160.225 52.8304 160.755 53.2517C161.292 53.6676 162.006 53.8755 162.898 53.8755C163.729 53.8755 164.367 53.7059 164.81 53.3666C165.253 53.0273 165.475 52.565 165.475 51.9795C165.475 51.3939 165.27 50.9425 164.859 50.6251C164.449 50.3023 163.705 49.9849 162.627 49.673ZM170.548 51.6265H169.177L169.07 43.0491H170.663L170.548 51.6265ZM169.013 54.2367C169.013 53.9904 169.087 53.7852 169.234 53.6211C169.388 53.4514 169.612 53.3666 169.907 53.3666C170.203 53.3666 170.427 53.4514 170.58 53.6211C170.734 53.7852 170.81 53.9904 170.81 54.2367C170.81 54.4829 170.734 54.6881 170.58 54.8523C170.427 55.0109 170.203 55.0903 169.907 55.0903C169.612 55.0903 169.388 55.0109 169.234 54.8523C169.087 54.6881 169.013 54.4829 169.013 54.2367Z" fill="#4FACFE"/>
</g>
<defs>
<linearGradient id="paint0_linear" x1="12919.1" y1="-36055.7" x2="12919.1" y2="73345.5" gradientUnits="userSpaceOnUse">
<stop stop-color="#00F2FE"/>
<stop offset="1" stop-color="#4FACFE"/>
</linearGradient>
<linearGradient id="paint1_linear" x1="14200.3" y1="-36597.7" x2="14200.3" y2="74435.2" gradientUnits="userSpaceOnUse">
<stop stop-color="#00F2FE"/>
<stop offset="1" stop-color="#4FACFE"/>
</linearGradient>
<linearGradient id="paint2_linear" x1="2685.8" y1="-35099.1" x2="2685.8" y2="71430.3" gradientUnits="userSpaceOnUse">
<stop stop-color="#00F2FE"/>
<stop offset="1" stop-color="#4FACFE"/>
</linearGradient>
<linearGradient id="paint3_linear" x1="14265.4" y1="-35819.4" x2="14265.4" y2="72874.7" gradientUnits="userSpaceOnUse">
<stop stop-color="#00F2FE"/>
<stop offset="1" stop-color="#4FACFE"/>
</linearGradient>
<linearGradient id="paint4_linear" x1="15864" y1="-36464.3" x2="15864" y2="74166.1" gradientUnits="userSpaceOnUse">
<stop stop-color="#00F2FE"/>
<stop offset="1" stop-color="#4FACFE"/>
</linearGradient>
<linearGradient id="paint5_linear" x1="24533.8" y1="-25856.1" x2="24533.8" y2="52651.3" gradientUnits="userSpaceOnUse">
<stop stop-color="#00F2FE"/>
<stop offset="1" stop-color="#4FACFE"/>
</linearGradient>
<clipPath id="clip0">
<rect width="756" height="395" fill="white"/>
</clipPath>
</defs>
</svg>
