<svg width="76" height="108" viewBox="0 0 76 108" fill="none" xmlns="http://www.w3.org/2000/svg">
<g clip-path="url(#clip0)">
<path opacity="0.02" d="M30.1783 73.7437C29.6235 73.4497 29.0063 73.3043 28.3832 73.3208C27.7601 73.3374 27.151 73.5152 26.6114 73.8382L2.14533 88.4587C-0.136955 89.8087 0.0391045 93.3457 2.32791 94.7025L24.9747 107.426C25.5074 107.742 26.109 107.912 26.7229 107.92C27.3367 107.929 27.9424 107.775 28.4829 107.473L53.0989 92.7585C55.3812 91.4085 55.1856 87.8647 52.8968 86.508L30.1783 73.7437Z" fill="black"/>
<path opacity="0.05" d="M30.4717 74.061C29.9085 73.7995 29.2935 73.6797 28.6769 73.7114C28.0604 73.7431 27.4599 73.9253 26.9244 74.2432L2.49093 88.8435C0.319504 90.1462 0.671631 93.5685 2.84958 94.8847L25.0073 107.325C25.5244 107.633 26.1076 107.803 26.7042 107.82C27.3007 107.836 27.8919 107.699 28.4242 107.419L53.1772 92.664C55.3486 91.368 54.9574 87.8917 52.7794 86.589L30.4717 74.061Z" fill="black"/>
<path opacity="0.07" d="M30.7586 74.3783C29.8066 73.8113 28.1894 74.0813 27.2374 74.6551L2.83655 89.2283C0.782497 90.4636 1.31068 93.8386 3.37126 95.0671L25.0334 107.264C25.537 107.566 26.1037 107.737 26.6851 107.763C27.2665 107.789 27.8452 107.669 28.372 107.413L53.2163 92.5628C55.2704 91.3343 54.69 87.9188 52.6294 86.6971L30.7586 74.3783Z" fill="black"/>
<path opacity="0.1" d="M31.0521 74.6955C30.1522 74.1622 28.4438 74.52 27.5439 75.06L3.18218 89.613C1.22594 90.774 1.94322 94.0882 3.89294 95.2492L25.066 107.183C25.5561 107.48 26.1069 107.652 26.6735 107.686C27.2402 107.72 27.8065 107.615 28.3264 107.379L53.275 92.475C55.2312 91.314 54.4422 87.9525 52.4925 86.7982L31.0521 74.6955Z" fill="black"/>
<path opacity="0.12" d="M31.339 75.0127C30.4913 74.5064 28.7307 74.9587 27.8569 75.4649L3.52774 90.0044C1.70192 91.0912 2.58223 94.3379 4.40805 95.4044L25.0921 107.082C25.9398 107.581 27.4135 107.838 28.2612 107.332L53.3337 92.3467C55.166 91.2532 54.1879 87.9524 52.3621 86.8657L31.339 75.0127Z" fill="black"/>
<path opacity="0.14" d="M31.6585 75.33C30.863 74.8575 28.985 75.3975 28.196 75.87L3.89944 90.3893C2.19099 91.4085 3.24737 94.5878 4.95582 95.607L25.1377 107.021C25.9333 107.494 27.4265 107.798 28.2221 107.318L53.4119 92.2658C55.1269 91.2398 53.9597 87.9998 52.2447 86.9805L31.6585 75.33Z" fill="black"/>
<path opacity="0.17" d="M31.9194 75.6473C31.1825 75.2085 29.2197 75.8363 28.4829 76.275L4.22549 90.774C2.62137 91.7258 3.84728 94.824 5.4514 95.7893L25.1377 106.94C25.8746 107.379 27.3939 107.73 28.1308 107.291L53.438 92.1713C55.0421 91.2128 53.6793 88.0268 52.0817 87.075L31.9194 75.6473Z" fill="black"/>
<path opacity="0.19" d="M32.2128 75.9645C31.5216 75.5527 29.4806 76.2682 28.7894 76.68L4.57109 91.1587C3.08434 92.043 4.48632 95.0805 5.97306 95.9647L25.1768 106.859C25.8289 107.264 27.407 107.669 28.0916 107.264L53.5228 92.07C55.0095 91.179 53.4576 88.02 51.9708 87.1695L32.2128 75.9645Z" fill="black"/>
<path opacity="0.21" d="M32.4997 76.275C31.8476 75.9037 29.7349 76.707 29.1024 77.085L4.9232 91.5435C3.54731 92.3602 5.12534 95.3302 6.50123 96.147L25.2029 106.778C25.855 107.156 27.4004 107.608 28.0329 107.23L53.5749 91.9687C54.9443 91.152 53.1967 88.0807 51.8208 87.2437L32.4997 76.275Z" fill="black"/>
<path opacity="0.24" d="M32.7931 76.5923C32.2063 76.248 29.9957 77.1458 29.4153 77.49L5.28836 91.9283C4.02985 92.6775 5.77742 95.58 7.03594 96.3293L25.2355 106.697C25.8159 107.042 27.4004 107.548 27.9808 107.204L53.6336 91.8743C54.8856 91.1183 52.9489 88.1078 51.6774 87.3585L32.7931 76.5923Z" fill="black"/>
<path opacity="0.26" d="M33.08 76.9095C32.5519 76.599 30.2565 77.5845 29.7283 77.895L5.60136 92.313C4.46022 92.988 6.38386 95.8297 7.55761 96.5047L25.2616 106.65C25.7898 106.96 27.3939 107.521 27.9221 107.203L53.6923 91.8C54.8335 91.125 52.7011 88.1617 51.5535 87.48L33.08 76.9095Z" fill="black"/>
<path opacity="0.29" d="M33.3735 77.2267C32.8975 76.9432 30.5109 78.0164 30.0348 78.3067L5.9535 92.6977C4.92321 93.3119 7.02291 96.0727 8.0532 96.6869L25.2877 106.535C25.7637 106.819 27.3939 107.426 27.896 107.143L53.751 91.6717C54.7813 91.0574 52.4469 88.1617 51.4231 87.5474L33.3735 77.2267Z" fill="black"/>
<path opacity="0.31" d="M33.6604 77.544C33.2365 77.2943 30.7717 78.4553 30.3478 78.7118L6.29911 93.0825C5.38619 93.6293 7.66195 96.3225 8.57486 96.8693L25.3203 106.454C25.7441 106.704 27.3874 107.366 27.8112 107.129L53.8293 91.5773C54.7422 91.0305 52.2251 88.2023 51.3057 87.642L33.6604 77.544Z" fill="black"/>
<path opacity="0.33" d="M33.9539 77.8612C33.5822 77.6385 31.0325 78.894 30.6935 79.1167L6.67732 93.4672C5.87526 93.9465 8.32708 96.5722 9.12914 97.0515L25.3464 106.373C25.7181 106.589 27.3874 107.305 27.7591 107.048L53.8423 91.4422C54.6444 90.963 51.9252 88.182 51.1297 87.7027L33.9539 77.8612Z" fill="black"/>
<path opacity="0.36" d="M34.2668 78.1784C33.9538 77.9894 31.3129 79.3327 31.0064 79.5284L6.99029 93.8249C6.33821 94.2367 8.94653 96.7949 9.59861 97.1999L25.3724 106.292C25.692 106.481 27.3874 107.237 27.7004 107.048L53.9271 91.3747C54.6117 90.9697 51.7035 88.2427 51.0188 87.8309L34.2668 78.1784Z" fill="black"/>
<path opacity="0.38" d="M34.5342 78.4957C34.2668 78.3337 31.5477 79.7715 31.2738 79.9267L7.32938 94.2367C6.75555 94.5742 9.55949 97.0717 10.1268 97.4092L25.3985 106.184C25.6594 106.339 27.3548 107.149 27.6417 106.994L53.9857 91.2802C54.5596 90.936 51.4557 88.2697 50.8884 87.9052L34.5342 78.4957Z" fill="black"/>
<path opacity="0.4" d="M34.8211 78.813C34.6124 78.6847 31.802 80.2035 31.5933 80.3317L7.6815 94.6215C7.22504 94.8915 10.1985 97.3215 10.655 97.5915L25.4311 106.13C25.6398 106.252 27.3874 107.116 27.5895 106.987L54.051 91.179C54.5074 90.909 51.2079 88.2967 50.7514 88.0267L34.8211 78.813Z" fill="black"/>
<path opacity="0.43" d="M35.1146 79.1235C34.9515 79.029 32.0628 80.6422 31.9063 80.7367L8.02713 95.0063C7.68805 95.2088 10.8311 97.5645 11.1767 97.767L25.4572 106.049C25.6203 106.144 27.3744 107.055 27.5374 106.961L54.1097 91.0845C54.4488 90.8753 50.9601 88.3238 50.6145 88.1213L35.1146 79.1235Z" fill="black"/>
<path opacity="0.45" d="M35.4015 79.4408C35.2971 79.38 32.3237 81.081 32.2193 81.1418L8.37275 95.3911C8.14452 95.5261 11.4701 97.8143 11.6984 97.9493L25.4899 105.975C26.1188 106.345 26.7726 106.667 27.4461 106.94L54.1684 90.9833C54.3966 90.8483 50.7123 88.3508 50.4841 88.2158L35.4015 79.4408Z" fill="black"/>
<path opacity="0.48" d="M35.6949 79.7581C35.6427 79.7581 32.578 81.5198 32.5258 81.5468L8.71833 95.7758C8.60748 95.8433 12.1026 98.0641 12.22 98.1316L25.5159 105.887C25.5681 105.887 27.3678 106.934 27.4265 106.9L54.227 90.8821C54.3379 90.8146 50.4645 88.3778 50.3146 88.3103L35.6949 79.7581Z" fill="black"/>
<path opacity="0.5" d="M27.3678 106.873L54.2857 90.7874L35.9818 80.0752L9.06391 96.1604L27.3678 106.873Z" fill="black"/>
<path d="M21.7665 25.4272L27.1135 59.076L53.7706 43.1392L48.417 9.51074L21.7665 25.4272Z" fill="url(#paint0_linear)"/>
<path d="M21.7795 25.4272L27.0744 58.7385L27.1266 58.7722V106.751L5.77744 93.7507V15.876L21.7795 25.4272Z" fill="#002D57"/>
<path d="M27.1135 58.7722V106.751L53.7706 90.8145V42.849L27.1135 58.7722Z" fill="#002D57"/>
<path style="mix-blend-mode:multiply" opacity="0.5" d="M27.1135 58.7723V72.5018L53.7706 56.565V42.849L27.1135 58.7723Z" fill="url(#paint1_linear)"/>
<path d="M48.417 9.5715L21.7665 25.488L5.77744 15.9368L32.4606 0L48.417 9.5715Z" fill="#002D57"/>
<path d="M49.1408 7.9582L48.9908 7.8772L46.4542 6.43945L18.33 23.2605L20.7492 24.921L49.1408 7.9582Z" fill="url(#paint2_linear)"/>
<path d="M52.7859 42.66L27.8373 57.5235L24.453 44.4488L43.0895 33.3113L52.7859 42.66Z" fill="url(#paint3_linear)"/>
<path d="M32.9627 41.9782L42.3396 36.3757L48.4561 42.2752L39.0727 47.8642L32.9627 41.9782Z" fill="url(#paint4_linear)"/>
<path d="M22.9663 49.0523L30.1066 44.7863L34.769 49.275L27.6221 53.541L22.9663 49.0523Z" fill="url(#paint5_linear)"/>
<path d="M37.2208 41.7218L36.9925 41.499C36.9193 41.4303 36.8272 41.3869 36.7291 41.3748C36.6309 41.3627 36.5316 41.3825 36.4448 41.4315L34.8863 42.363C34.8466 42.3861 34.8128 42.4186 34.7876 42.4578C34.7624 42.4971 34.7466 42.542 34.7416 42.5888C34.7365 42.6356 34.7422 42.6831 34.7583 42.7271C34.7744 42.7712 34.8004 42.8107 34.8341 42.8423L35.0689 43.065C35.1403 43.135 35.2319 43.1788 35.3296 43.1898C35.4274 43.2007 35.5259 43.1783 35.6101 43.1258L37.1686 42.201C37.2083 42.178 37.2421 42.1455 37.2673 42.1062C37.2925 42.067 37.3083 42.0221 37.3134 41.9753C37.3184 41.9284 37.3127 41.881 37.2966 41.837C37.2805 41.7929 37.2545 41.7534 37.2208 41.7218Z" fill="url(#paint6_linear)"/>
<path d="M38.4467 42.8962L38.2119 42.6735C38.1387 42.6048 38.0466 42.5613 37.9485 42.5492C37.8503 42.5371 37.7509 42.557 37.6642 42.606L36.1057 43.5375C36.0672 43.5608 36.0345 43.593 36.0101 43.6317C35.9857 43.6703 35.9704 43.7143 35.9654 43.7602C35.9603 43.8061 35.9656 43.8525 35.9809 43.8959C35.9962 43.9392 36.0211 43.9783 36.0535 44.01L36.2883 44.2327C36.36 44.3043 36.4523 44.3496 36.5512 44.3618C36.6501 44.374 36.7501 44.3524 36.836 44.3002L38.3945 43.3687C38.433 43.3454 38.4657 43.3132 38.4901 43.2745C38.5145 43.2359 38.5298 43.1919 38.5349 43.146C38.5399 43.1001 38.5346 43.0537 38.5193 43.0103C38.504 42.967 38.4791 42.9279 38.4467 42.8962Z" fill="url(#paint7_linear)"/>
<path d="M39.6661 44.0708L39.4313 43.8481C39.3591 43.7775 39.2669 43.7328 39.1682 43.7206C39.0696 43.7085 38.9698 43.7295 38.8836 43.7806L37.3316 44.7121C37.292 44.7343 37.2581 44.7661 37.2329 44.8048C37.2077 44.8435 37.1918 44.8879 37.1867 44.9343C37.1816 44.9806 37.1873 45.0276 37.2035 45.0712C37.2196 45.1147 37.2457 45.1536 37.2795 45.1846L37.5077 45.4073C37.5799 45.4779 37.6722 45.5226 37.7708 45.5347C37.8694 45.5469 37.9692 45.5259 38.0554 45.4748L39.6139 44.5501C39.6548 44.5281 39.6898 44.4961 39.7159 44.4568C39.742 44.4175 39.7584 44.3722 39.7635 44.3248C39.7687 44.2775 39.7625 44.2295 39.7455 44.1852C39.7285 44.1409 39.7012 44.1016 39.6661 44.0708Z" fill="url(#paint8_linear)"/>
<path d="M40.8855 45.2251L40.6572 44.9956C40.5844 44.9351 40.4956 44.899 40.4025 44.8917C40.3094 44.8845 40.2163 44.9066 40.1356 44.9551L38.551 45.9001C38.5114 45.9223 38.4775 45.9541 38.4523 45.9928C38.4271 46.0315 38.4112 46.0759 38.4061 46.1222C38.401 46.1686 38.4067 46.2156 38.4229 46.2591C38.439 46.3027 38.4651 46.3416 38.4989 46.3726L38.7271 46.5953C38.8003 46.664 38.8924 46.7075 38.9905 46.7196C39.0887 46.7317 39.1881 46.7118 39.2748 46.6628L40.8333 45.7313C40.8797 45.7113 40.9201 45.6787 40.9502 45.637C40.9802 45.5953 40.9989 45.5459 41.0042 45.4942C41.0096 45.4424 41.0014 45.3901 40.9805 45.3428C40.9596 45.2954 40.9268 45.2548 40.8855 45.2251Z" fill="url(#paint9_linear)"/>
<path d="M39.34 40.419L39.1118 40.1895C39.0388 40.12 38.9462 40.0765 38.8476 40.0656C38.749 40.0547 38.6496 40.0768 38.5641 40.1287L37.912 40.5135C37.8723 40.5357 37.8385 40.5675 37.8133 40.6062C37.788 40.6449 37.7722 40.6893 37.7671 40.7357C37.7619 40.782 37.7677 40.829 37.7838 40.8726C37.8 40.9161 37.826 40.955 37.8598 40.986L38.0946 41.2087C38.1646 41.2808 38.2559 41.3265 38.354 41.3387C38.452 41.351 38.5512 41.329 38.6358 41.2762L39.2879 40.8915C39.3275 40.8692 39.3614 40.8374 39.3866 40.7987C39.4118 40.7601 39.4277 40.7157 39.4328 40.6693C39.4379 40.6229 39.4321 40.576 39.416 40.5324C39.3999 40.4888 39.3738 40.4499 39.34 40.419Z" fill="url(#paint10_linear)"/>
<path d="M40.5659 41.5868L40.3312 41.364C40.2582 41.2945 40.1656 41.2511 40.067 41.2402C39.9684 41.2292 39.869 41.2513 39.7834 41.3033L39.1314 41.688C39.0928 41.7113 39.0601 41.7436 39.0358 41.7822C39.0114 41.8209 38.9961 41.8649 38.991 41.9108C38.9859 41.9566 38.9913 42.0031 39.0066 42.0464C39.0219 42.0898 39.0467 42.1289 39.0792 42.1605L39.3139 42.3833C39.3872 42.452 39.4792 42.4954 39.5774 42.5075C39.6756 42.5196 39.7749 42.4998 39.8617 42.4508L40.5138 42.066C40.5524 42.042 40.5851 42.0091 40.6095 41.9698C40.6338 41.9306 40.6491 41.8861 40.6541 41.8397C40.6592 41.7934 40.6538 41.7465 40.6385 41.7026C40.6233 41.6587 40.5984 41.6191 40.5659 41.5868Z" fill="url(#paint11_linear)"/>
<path d="M41.7853 42.7612L41.5506 42.5385C41.4774 42.4697 41.3853 42.4263 41.2871 42.4142C41.189 42.4021 41.0896 42.422 41.0028 42.471L40.3508 42.8625C40.3111 42.8847 40.2773 42.9165 40.252 42.9552C40.2268 42.9939 40.211 43.0383 40.2058 43.0847C40.2007 43.131 40.2065 43.178 40.2226 43.2216C40.2388 43.2651 40.2648 43.304 40.2986 43.335L40.5268 43.5577C40.6 43.6265 40.6921 43.6699 40.7903 43.682C40.8884 43.6941 40.9878 43.6742 41.0746 43.6252L41.7266 43.2337C41.7656 43.211 41.7989 43.1792 41.8239 43.1409C41.8489 43.1025 41.8649 43.0586 41.8706 43.0127C41.8763 42.9668 41.8715 42.9202 41.8567 42.8765C41.8419 42.8329 41.8175 42.7934 41.7853 42.7612Z" fill="url(#paint12_linear)"/>
<path d="M43.0047 43.9357L42.77 43.713C42.6982 43.6439 42.6072 43.6002 42.51 43.588C42.4127 43.5759 42.3142 43.596 42.2287 43.6455L41.5767 44.037C41.537 44.0592 41.5032 44.091 41.4779 44.1297C41.4527 44.1684 41.4369 44.2128 41.4317 44.2592C41.4266 44.3055 41.4324 44.3525 41.4485 44.3961C41.4647 44.4397 41.4907 44.4786 41.5245 44.5095L41.7527 44.7322C41.8257 44.8018 41.9183 44.8452 42.0169 44.8561C42.1155 44.8671 42.2149 44.8449 42.3005 44.793L42.9525 44.4082C42.9922 44.386 43.026 44.3542 43.0513 44.3155C43.0765 44.2768 43.0923 44.2324 43.0975 44.186C43.1026 44.1397 43.0968 44.0927 43.0807 44.0491C43.0645 44.0056 43.0385 43.9667 43.0047 43.9357Z" fill="url(#paint13_linear)"/>
<path d="M41.0093 39.4132L40.7746 39.1837C40.7032 39.1138 40.6116 39.07 40.5139 39.059C40.4161 39.048 40.3176 39.0705 40.2334 39.123L39.5813 39.5077C39.5417 39.53 39.5078 39.5618 39.4826 39.6004C39.4573 39.6391 39.4415 39.6835 39.4364 39.7299C39.4313 39.7763 39.437 39.8232 39.4532 39.8668C39.4693 39.9104 39.4954 39.9493 39.5291 39.9802L39.7574 40.203C39.829 40.2745 39.9214 40.3199 40.0203 40.332C40.1192 40.3442 40.2192 40.3226 40.3051 40.2705L40.9572 39.8857C40.9968 39.8635 41.0307 39.8317 41.0559 39.793C41.0811 39.7543 41.097 39.7099 41.1021 39.6635C41.1072 39.6172 41.1015 39.5702 41.0853 39.5266C41.0692 39.483 41.0431 39.4441 41.0093 39.4132Z" fill="url(#paint14_linear)"/>
<path d="M42.2287 40.581L42.0005 40.3582C41.9265 40.2856 41.8315 40.2403 41.7301 40.2293C41.6287 40.2183 41.5266 40.2423 41.4397 40.2975L40.7876 40.6822C40.7472 40.7083 40.7139 40.7446 40.6907 40.7877C40.6676 40.8308 40.6555 40.8793 40.6555 40.9286C40.6555 40.9779 40.6676 41.0264 40.6907 41.0695C40.7139 41.1126 40.7472 41.1489 40.7876 41.175L41.0224 41.3977C41.093 41.4687 41.1842 41.5138 41.282 41.526C41.3798 41.5382 41.4787 41.5168 41.5636 41.4652L42.2157 41.0805C42.2568 41.0547 42.291 41.0187 42.3152 40.9757C42.3393 40.9327 42.3527 40.8841 42.354 40.8344C42.3553 40.7847 42.3445 40.7354 42.3226 40.6912C42.3007 40.6469 42.2684 40.609 42.2287 40.581Z" fill="url(#paint15_linear)"/>
<path d="M43.4547 41.7555L43.2199 41.5327C43.1467 41.464 43.0546 41.4206 42.9564 41.4085C42.8583 41.3964 42.7589 41.4162 42.6722 41.4652L42.0201 41.8567C41.9816 41.88 41.9488 41.9123 41.9245 41.9509C41.9001 41.9896 41.8848 42.0336 41.8797 42.0795C41.8747 42.1253 41.88 42.1718 41.8953 42.2151C41.9106 42.2585 41.9355 42.2976 41.9679 42.3292L42.2027 42.552C42.2759 42.6207 42.368 42.6641 42.4661 42.6762C42.5643 42.6883 42.6636 42.6685 42.7504 42.6195L43.4025 42.2347C43.4411 42.2107 43.4739 42.1778 43.4982 42.1385C43.5225 42.0993 43.5378 42.0548 43.5429 42.0084C43.5479 41.9621 43.5426 41.9152 43.5273 41.8713C43.512 41.8274 43.4871 41.7878 43.4547 41.7555Z" fill="url(#paint16_linear)"/>
<path d="M44.7001 42.93L44.4654 42.7073C44.3921 42.6386 44.3001 42.5951 44.2019 42.583C44.1038 42.5709 44.0044 42.5908 43.9176 42.6398L43.2655 43.0313C43.2259 43.0535 43.192 43.0854 43.1668 43.124C43.1416 43.1627 43.1257 43.2071 43.1206 43.2535C43.1155 43.2999 43.1213 43.3468 43.1374 43.3904C43.1536 43.434 43.1796 43.4729 43.2134 43.5038L43.4416 43.7265C43.5148 43.7953 43.6069 43.8387 43.7051 43.8508C43.8032 43.8629 43.9026 43.8431 43.9894 43.794L44.6414 43.4025C44.6804 43.3799 44.7137 43.3481 44.7387 43.3097C44.7637 43.2713 44.7797 43.2274 44.7854 43.1815C44.7911 43.1357 44.7863 43.089 44.7715 43.0453C44.7567 43.0017 44.7323 42.9622 44.7001 42.93Z" fill="url(#paint17_linear)"/>
<path d="M42.6787 38.4075L42.4439 38.178C42.371 38.1085 42.2783 38.0651 42.1797 38.0541C42.0811 38.0432 41.9817 38.0653 41.8962 38.1173L41.2441 38.502C41.2055 38.526 41.1728 38.5589 41.1484 38.5982C41.1241 38.6374 41.1088 38.682 41.1037 38.7283C41.0987 38.7746 41.104 38.8216 41.1193 38.8654C41.1346 38.9093 41.1595 38.9489 41.1919 38.9813L41.4267 39.204C41.4997 39.2735 41.5923 39.3169 41.6909 39.3279C41.7895 39.3388 41.8889 39.3167 41.9744 39.2647L42.6265 38.88C42.665 38.8567 42.6978 38.8245 42.7221 38.7858C42.7465 38.7471 42.7618 38.7031 42.7669 38.6573C42.7719 38.6114 42.7666 38.565 42.7513 38.5216C42.736 38.4782 42.7111 38.4392 42.6787 38.4075Z" fill="url(#paint18_linear)"/>
<path d="M43.8981 39.582L43.6633 39.3525C43.5919 39.2826 43.5003 39.2388 43.4026 39.2278C43.3049 39.2168 43.2063 39.2393 43.1221 39.2918L42.47 39.6765C42.4304 39.6988 42.3965 39.7306 42.3713 39.7693C42.3461 39.808 42.3302 39.8524 42.3251 39.8987C42.32 39.9451 42.3257 39.9921 42.3419 40.0356C42.358 40.0792 42.3841 40.1181 42.4179 40.149L42.6461 40.3718C42.7178 40.4434 42.8101 40.4887 42.909 40.5009C43.0079 40.5131 43.1079 40.4914 43.1938 40.4393L43.8459 40.0545C43.8855 40.0323 43.9194 40.0005 43.9446 39.9618C43.9699 39.9231 43.9857 39.8787 43.9908 39.8323C43.996 39.786 43.9902 39.739 43.974 39.6954C43.9579 39.6519 43.9318 39.613 43.8981 39.582Z" fill="url(#paint19_linear)"/>
<path d="M45.1175 40.7497L44.8892 40.527C44.8163 40.4575 44.7236 40.4141 44.625 40.4031C44.5264 40.3922 44.427 40.4143 44.3415 40.4663L43.6894 40.851C43.6498 40.8732 43.6159 40.9051 43.5907 40.9437C43.5654 40.9824 43.5496 41.0268 43.5445 41.0732C43.5394 41.1196 43.5451 41.1665 43.5613 41.2101C43.5774 41.2537 43.6035 41.2926 43.6372 41.3235L43.872 41.5462C43.9426 41.6173 44.0338 41.6623 44.1316 41.6745C44.2294 41.6867 44.3283 41.6654 44.4132 41.6137L45.0653 41.229C45.105 41.2059 45.1388 41.1735 45.164 41.1342C45.1892 41.0949 45.205 41.05 45.21 41.0032C45.2151 40.9564 45.2094 40.909 45.1933 40.8649C45.1772 40.8208 45.1512 40.7814 45.1175 40.7497Z" fill="url(#paint20_linear)"/>
<path d="M46.3434 41.9242L46.1086 41.7014C46.0354 41.6327 45.9433 41.5893 45.8452 41.5772C45.747 41.5651 45.6476 41.5849 45.5609 41.6339L44.9088 42.0254C44.8703 42.0487 44.8376 42.081 44.8132 42.1196C44.7888 42.1583 44.7735 42.2023 44.7684 42.2482C44.7634 42.294 44.7687 42.3405 44.784 42.3838C44.7993 42.4272 44.8242 42.4663 44.8566 42.4979L45.0914 42.7207C45.1646 42.7894 45.2567 42.8328 45.3548 42.8449C45.453 42.857 45.5524 42.8372 45.6391 42.7882L46.2912 42.3967C46.3297 42.3734 46.3624 42.3412 46.3868 42.3025C46.4112 42.2638 46.4265 42.2198 46.4316 42.174C46.4366 42.1281 46.4313 42.0816 46.416 42.0383C46.4007 41.9949 46.3758 41.9559 46.3434 41.9242Z" fill="url(#paint21_linear)"/>
<path d="M37.2208 41.5395L36.9925 41.3168C36.9196 41.2473 36.8269 41.2039 36.7283 41.1929C36.6297 41.182 36.5303 41.2041 36.4448 41.256L34.8863 42.1875C34.8467 42.2098 34.8128 42.2416 34.7876 42.2803C34.7624 42.319 34.7465 42.3634 34.7414 42.4097C34.7363 42.4561 34.742 42.5031 34.7582 42.5466C34.7743 42.5902 34.8004 42.6291 34.8341 42.66L35.0689 42.8828C35.1403 42.9527 35.2319 42.9965 35.3296 43.0075C35.4274 43.0185 35.5259 42.996 35.6101 42.9435L37.1686 42.0188C37.2083 41.9957 37.2421 41.9632 37.2673 41.924C37.2925 41.8847 37.3083 41.8398 37.3134 41.793C37.3184 41.7462 37.3127 41.6988 37.2966 41.6547C37.2805 41.6106 37.2545 41.5712 37.2208 41.5395Z" fill="url(#paint22_linear)"/>
<path d="M38.4467 42.714L38.1793 42.525C38.1061 42.4563 38.014 42.4129 37.9159 42.4008C37.8177 42.3887 37.7184 42.4085 37.6316 42.4575L36.0731 43.389C36.0345 43.4131 36.0018 43.446 35.9774 43.4852C35.9531 43.5245 35.9378 43.569 35.9327 43.6153C35.9277 43.6617 35.933 43.7086 35.9483 43.7525C35.9636 43.7963 35.9885 43.836 36.0209 43.8683L36.2557 44.091C36.3287 44.1606 36.4213 44.204 36.5199 44.2149C36.6185 44.2259 36.7179 44.2037 36.8034 44.1518L38.3945 43.2C38.4343 43.1762 38.4681 43.143 38.4932 43.1032C38.5184 43.0634 38.5341 43.018 38.5392 42.9707C38.5443 42.9234 38.5385 42.8755 38.5225 42.831C38.5064 42.7864 38.4804 42.7463 38.4467 42.714Z" fill="url(#paint23_linear)"/>
<path d="M39.6661 43.875L39.4313 43.6522C39.3581 43.5835 39.266 43.5401 39.1678 43.528C39.0697 43.5159 38.9703 43.5357 38.8836 43.5847L37.3316 44.55C37.292 44.5722 37.2581 44.6041 37.2329 44.6427C37.2077 44.6814 37.1918 44.7258 37.1867 44.7722C37.1816 44.8186 37.1873 44.8655 37.2035 44.9091C37.2196 44.9527 37.2457 44.9916 37.2794 45.0225L37.5272 45.225C37.6002 45.2945 37.6928 45.3379 37.7914 45.3489C37.89 45.3598 37.9894 45.3377 38.075 45.2857L39.6139 44.361C39.6561 44.3394 39.6924 44.3072 39.7194 44.2674C39.7464 44.2275 39.7633 44.1812 39.7685 44.1328C39.7737 44.0844 39.767 44.0354 39.7491 43.9903C39.7312 43.9453 39.7027 43.9056 39.6661 43.875Z" fill="url(#paint24_linear)"/>
<path d="M40.8854 45.063L40.6572 44.8402C40.585 44.7697 40.4928 44.725 40.3941 44.7128C40.2955 44.7007 40.1957 44.7217 40.1095 44.7727L38.551 45.7042C38.5114 45.7265 38.4775 45.7583 38.4523 45.797C38.4271 45.8357 38.4112 45.8801 38.4061 45.9264C38.401 45.9728 38.4067 46.0198 38.4229 46.0633C38.439 46.1069 38.4651 46.1458 38.4988 46.1767L38.7271 46.3995C38.7993 46.4701 38.8915 46.5148 38.9902 46.5269C39.0888 46.5391 39.1886 46.5181 39.2748 46.467L40.8333 45.5355C40.8729 45.5132 40.9068 45.4814 40.932 45.4428C40.9572 45.4041 40.9731 45.3597 40.9782 45.3133C40.9833 45.2669 40.9776 45.22 40.9614 45.1764C40.9453 45.1328 40.9192 45.0939 40.8854 45.063Z" fill="url(#paint25_linear)"/>
<path d="M39.34 40.2367L39.1118 40.0072C39.0388 39.9377 38.9462 39.8943 38.8476 39.8833C38.749 39.8724 38.6496 39.8945 38.5641 39.9465L37.912 40.3312C37.8723 40.3543 37.8384 40.3868 37.8133 40.426C37.7881 40.4653 37.7723 40.5102 37.7672 40.557C37.7621 40.6038 37.7679 40.6512 37.784 40.6953C37.8001 40.7394 37.8261 40.7789 37.8598 40.8105L38.0946 41.0332C38.166 41.1032 38.2576 41.147 38.3553 41.1579C38.453 41.1689 38.5516 41.1464 38.6358 41.094L39.2879 40.7092C39.3275 40.687 39.3614 40.6552 39.3866 40.6165C39.4118 40.5778 39.4277 40.5334 39.4328 40.487C39.4379 40.4407 39.4321 40.3937 39.416 40.3501C39.3999 40.3066 39.3738 40.2677 39.34 40.2367Z" fill="url(#paint26_linear)"/>
<path d="M40.5659 41.4113L40.3312 41.1751C40.2582 41.1056 40.1656 41.0621 40.067 41.0512C39.9684 41.0403 39.869 41.0624 39.7834 41.1143L39.1314 41.4991C39.0929 41.5224 39.0601 41.5546 39.0358 41.5933C39.0114 41.6319 38.9961 41.6759 38.991 41.7218C38.986 41.7677 38.9913 41.8141 39.0066 41.8575C39.0219 41.9008 39.0468 41.9399 39.0792 41.9716L39.314 42.1943C39.3856 42.2659 39.478 42.3112 39.5769 42.3234C39.6758 42.3356 39.7758 42.314 39.8617 42.2618L40.5138 41.8771C40.5511 41.8536 40.5828 41.8216 40.6064 41.7835C40.63 41.7455 40.6449 41.7023 40.6499 41.6574C40.6549 41.6125 40.65 41.567 40.6354 41.5243C40.6209 41.4817 40.5971 41.443 40.5659 41.4113Z" fill="url(#paint27_linear)"/>
<path d="M41.7853 42.579L41.5506 42.3562C41.4776 42.2867 41.385 42.2433 41.2864 42.2323C41.1878 42.2214 41.0884 42.2435 41.0028 42.2955L40.3508 42.6802C40.3111 42.7025 40.2773 42.7343 40.252 42.773C40.2268 42.8116 40.211 42.856 40.2058 42.9024C40.2007 42.9488 40.2065 42.9957 40.2226 43.0393C40.2388 43.0829 40.2648 43.1218 40.2986 43.1527L40.5268 43.3755C40.599 43.4461 40.6913 43.4907 40.7899 43.5029C40.8886 43.515 40.9883 43.494 41.0746 43.443L41.7266 43.0582C41.7657 43.0348 41.799 43.0023 41.824 42.9634C41.849 42.9244 41.8649 42.88 41.8706 42.8336C41.8763 42.7873 41.8715 42.7402 41.8567 42.696C41.8419 42.6518 41.8175 42.6118 41.7853 42.579Z" fill="url(#paint28_linear)"/>
<path d="M43.0047 43.7535L42.77 43.5307C42.6983 43.4617 42.6072 43.4179 42.51 43.4058C42.4127 43.3937 42.3143 43.4138 42.2287 43.4632L41.5767 43.8547C41.537 43.877 41.5032 43.9088 41.4779 43.9475C41.4527 43.9862 41.4369 44.0306 41.4317 44.0769C41.4266 44.1233 41.4324 44.1703 41.4485 44.2138C41.4647 44.2574 41.4907 44.2963 41.5245 44.3272L41.7658 44.55C41.839 44.6187 41.9311 44.6621 42.0292 44.6742C42.1274 44.6863 42.2267 44.6665 42.3135 44.6175L42.9656 44.226C43.0043 44.2025 43.0371 44.1698 43.0611 44.1305C43.0851 44.0912 43.0996 44.0465 43.1034 44.0002C43.1072 43.9539 43.1003 43.9073 43.0831 43.8644C43.0659 43.8215 43.0391 43.7834 43.0047 43.7535Z" fill="url(#paint29_linear)"/>
<path d="M41.0093 39.2309L40.7746 39.0082C40.7045 38.9362 40.6132 38.8904 40.5152 38.8782C40.4171 38.8659 40.318 38.8879 40.2334 38.9407L39.5813 39.3254C39.5416 39.3485 39.5078 39.381 39.4826 39.4202C39.4574 39.4595 39.4416 39.5044 39.4365 39.5512C39.4314 39.598 39.4372 39.6454 39.4533 39.6895C39.4694 39.7336 39.4954 39.7731 39.5291 39.8047L39.7574 40.0274C39.8303 40.097 39.9229 40.1404 40.0216 40.1513C40.1202 40.1623 40.2196 40.1401 40.3051 40.0882L40.9572 39.7034C40.9968 39.6812 41.0307 39.6494 41.0559 39.6107C41.0811 39.572 41.097 39.5276 41.1021 39.4812C41.1072 39.4349 41.1015 39.3879 41.0853 39.3443C41.0692 39.3008 41.0431 39.2619 41.0093 39.2309Z" fill="url(#paint30_linear)"/>
<path d="M42.2287 40.4055L42.0005 40.176C41.9275 40.1065 41.8349 40.0631 41.7363 40.0522C41.6377 40.0412 41.5383 40.0634 41.4528 40.1153L40.7876 40.5C40.748 40.5223 40.7141 40.5541 40.6889 40.5928C40.6637 40.6315 40.6478 40.6759 40.6427 40.7222C40.6376 40.7686 40.6434 40.8156 40.6595 40.8591C40.6757 40.9027 40.7017 40.9416 40.7355 40.9725L40.9702 41.2021C41.0416 41.272 41.1332 41.3158 41.231 41.3268C41.3287 41.3377 41.4272 41.3153 41.5115 41.2628L42.1635 40.8781C42.2041 40.8571 42.2391 40.8262 42.2656 40.7882C42.2921 40.7501 42.3093 40.7059 42.3157 40.6595C42.3221 40.613 42.3176 40.5657 42.3024 40.5214C42.2873 40.4772 42.262 40.4374 42.2287 40.4055Z" fill="url(#paint31_linear)"/>
<path d="M43.4547 41.58L43.2199 41.3505C43.1469 41.281 43.0543 41.2375 42.9557 41.2266C42.8571 41.2157 42.7577 41.2378 42.6722 41.2897L42.0201 41.6745C41.9816 41.6978 41.9488 41.73 41.9245 41.7687C41.9001 41.8073 41.8848 41.8514 41.8797 41.8972C41.8747 41.9431 41.88 41.9895 41.8953 42.0329C41.9106 42.0762 41.9355 42.1153 41.9679 42.147L42.2027 42.3697C42.2749 42.4403 42.3671 42.485 42.4658 42.4971C42.5644 42.5093 42.6642 42.4883 42.7504 42.4372L43.4025 42.0525C43.441 42.0292 43.4737 41.997 43.4981 41.9583C43.5225 41.9196 43.5378 41.8756 43.5428 41.8298C43.5479 41.7839 43.5426 41.7374 43.5273 41.6941C43.512 41.6507 43.4871 41.6117 43.4547 41.58Z" fill="url(#paint32_linear)"/>
<path d="M44.7001 42.7478L44.4393 42.525C44.3663 42.4555 44.2737 42.4121 44.1751 42.4012C44.0765 42.3902 43.9771 42.4124 43.8916 42.4643L43.2395 42.849C43.1998 42.8713 43.166 42.9031 43.1408 42.9418C43.1155 42.9805 43.0997 43.0249 43.0946 43.0712C43.0894 43.1176 43.0952 43.1646 43.1113 43.2081C43.1275 43.2517 43.1536 43.2906 43.1873 43.3215L43.4155 43.5443C43.4888 43.613 43.5809 43.6565 43.679 43.6685C43.7772 43.6806 43.8765 43.6608 43.9633 43.6118L44.6154 43.227C44.6564 43.2061 44.692 43.1755 44.7196 43.1377C44.7471 43.0999 44.7657 43.056 44.774 43.0095C44.7822 42.9629 44.7798 42.915 44.767 42.8696C44.7542 42.8241 44.7313 42.7824 44.7001 42.7478Z" fill="url(#paint33_linear)"/>
<path d="M42.6787 38.2252L42.4439 38.0025C42.3717 37.9319 42.2795 37.8872 42.1808 37.8751C42.0822 37.8629 41.9824 37.8839 41.8962 37.935L41.2441 38.3265C41.2056 38.3498 41.1729 38.382 41.1485 38.4207C41.1241 38.4593 41.1088 38.5033 41.1038 38.5492C41.0987 38.5951 41.104 38.6415 41.1193 38.6849C41.1346 38.7282 41.1595 38.7673 41.1919 38.799L41.4267 39.0217C41.4997 39.0912 41.5923 39.1347 41.6909 39.1456C41.7895 39.1565 41.8889 39.1344 41.9744 39.0825L42.6265 38.6977C42.665 38.6744 42.6978 38.6422 42.7221 38.6035C42.7465 38.5649 42.7618 38.5209 42.7669 38.475C42.7719 38.4291 42.7666 38.3827 42.7513 38.3393C42.736 38.296 42.7111 38.2569 42.6787 38.2252Z" fill="url(#paint34_linear)"/>
<path d="M43.8981 39.3998L43.6633 39.1703C43.5919 39.1003 43.5003 39.0565 43.4026 39.0456C43.3049 39.0346 43.2063 39.0571 43.1221 39.1095L42.47 39.4943C42.4303 39.5173 42.3965 39.5498 42.3713 39.5891C42.3461 39.6283 42.3304 39.6732 42.3253 39.7201C42.3202 39.7669 42.3259 39.8143 42.342 39.8584C42.3581 39.9024 42.3841 39.9419 42.4179 39.9735L42.6461 40.1963C42.7191 40.2658 42.8117 40.3092 42.9103 40.3202C43.0089 40.3311 43.1083 40.309 43.1938 40.257L43.8459 39.8723C43.8855 39.85 43.9194 39.8182 43.9446 39.7795C43.9699 39.7409 43.9857 39.6965 43.9908 39.6501C43.996 39.6037 43.9902 39.5568 43.974 39.5132C43.9579 39.4696 43.9318 39.4307 43.8981 39.3998Z" fill="url(#paint35_linear)"/>
<path d="M45.1175 40.5743L44.8892 40.3447C44.8163 40.2752 44.7236 40.2318 44.625 40.2209C44.5264 40.2099 44.427 40.2321 44.3415 40.284L43.6894 40.6687C43.6498 40.691 43.6159 40.7228 43.5907 40.7615C43.5654 40.8002 43.5496 40.8446 43.5445 40.8909C43.5394 40.9373 43.5451 40.9843 43.5613 41.0278C43.5774 41.0714 43.6035 41.1103 43.6372 41.1413L43.872 41.3708C43.9434 41.4407 44.035 41.4845 44.1327 41.4955C44.2305 41.5064 44.329 41.484 44.4132 41.4315L45.0653 41.0468C45.1049 41.0245 45.1388 40.9927 45.164 40.954C45.1892 40.9153 45.2051 40.8709 45.2102 40.8246C45.2153 40.7782 45.2096 40.7312 45.1934 40.6877C45.1773 40.6441 45.1512 40.6052 45.1175 40.5743Z" fill="url(#paint36_linear)"/>
<path d="M46.3434 41.7421L46.1086 41.5193C46.0356 41.4498 45.943 41.4064 45.8444 41.3954C45.7458 41.3845 45.6464 41.4066 45.5609 41.4586L44.9088 41.8433C44.8703 41.8666 44.8375 41.8988 44.8132 41.9375C44.7888 41.9762 44.7735 42.0202 44.7684 42.066C44.7634 42.1119 44.7687 42.1584 44.784 42.2017C44.7993 42.2451 44.8242 42.2841 44.8566 42.3158L45.0914 42.5386C45.1636 42.6091 45.2558 42.6538 45.3545 42.666C45.4531 42.6781 45.5529 42.6571 45.6391 42.6061L46.2912 42.2213C46.3298 42.1973 46.3626 42.1644 46.3869 42.1251C46.4112 42.0859 46.4265 42.0414 46.4316 41.995C46.4366 41.9487 46.4313 41.9017 46.416 41.8579C46.4007 41.814 46.3758 41.7744 46.3434 41.7421Z" fill="url(#paint37_linear)"/>
<g style="mix-blend-mode:screen">
<path style="mix-blend-mode:screen" d="M40.9572 39.7035L40.3051 40.0883C40.2196 40.1402 40.1202 40.1623 40.0215 40.1514C39.9229 40.1405 39.8303 40.097 39.7573 40.0275L39.5291 39.8048C39.4928 39.7704 39.4658 39.7267 39.4509 39.6782C39.436 39.6296 39.4338 39.5778 39.4444 39.528C39.454 39.5924 39.4838 39.6517 39.5291 39.6968L39.7573 39.9195C39.8306 39.9883 39.9227 40.0317 40.0208 40.0438C40.119 40.0559 40.2183 40.036 40.3051 39.987L40.9572 39.6023C40.9915 39.58 41.0209 39.5504 41.0433 39.5155C41.0658 39.4806 41.0809 39.4412 41.0876 39.3998C41.0995 39.4582 41.0933 39.519 41.0699 39.5735C41.0465 39.6281 41.007 39.6736 40.9572 39.7035Z" fill="url(#paint38_radial)"/>
<path style="mix-blend-mode:screen" d="M39.327 42.2011L39.0922 41.9783C39.0565 41.9437 39.0303 41.8997 39.0166 41.851C39.0028 41.8023 39.0019 41.7507 39.014 41.7016C39.0194 41.7678 39.0471 41.8299 39.0922 41.8771L39.327 42.0998C39.3999 42.1693 39.4926 42.2128 39.5912 42.2237C39.6898 42.2346 39.7892 42.2125 39.8747 42.1606L40.5268 41.7758C40.5615 41.7557 40.5913 41.7275 40.614 41.6936C40.6366 41.6597 40.6514 41.6208 40.6572 41.5801C40.6672 41.6384 40.6601 41.6985 40.6369 41.7526C40.6137 41.8067 40.5753 41.8524 40.5268 41.8838L39.8747 42.2686C39.7888 42.3207 39.6888 42.3424 39.5899 42.3302C39.491 42.318 39.3987 42.2726 39.327 42.2011Z" fill="url(#paint39_radial)"/>
<path style="mix-blend-mode:screen" d="M39.2879 40.7093L38.6358 41.094C38.5515 41.1465 38.453 41.169 38.3553 41.158C38.2575 41.147 38.166 41.1032 38.0945 41.0333L37.8598 40.8038C37.8246 40.7701 37.7987 40.7273 37.785 40.6799C37.7712 40.6324 37.77 40.5819 37.7815 40.5338C37.7855 40.5984 37.8136 40.6589 37.8598 40.7025L38.0945 40.9253C38.1663 40.9943 38.2573 41.0381 38.3545 41.0502C38.4518 41.0623 38.5503 41.0422 38.6358 40.9928L39.2879 40.6013C39.3232 40.5811 39.3538 40.5531 39.3775 40.5193C39.4012 40.4854 39.4173 40.4466 39.4248 40.4055C39.4342 40.4645 39.4261 40.5251 39.4017 40.5793C39.3772 40.6335 39.3376 40.6788 39.2879 40.7093Z" fill="url(#paint40_radial)"/>
<path style="mix-blend-mode:screen" d="M43.8459 39.8724L43.1938 40.2571C43.1083 40.309 43.0089 40.3312 42.9103 40.3202C42.8116 40.3093 42.719 40.2659 42.6461 40.1964L42.4178 39.9736C42.382 39.9388 42.3554 39.8951 42.3406 39.8467C42.3257 39.7982 42.3231 39.7466 42.3331 39.6969C42.3427 39.7612 42.3725 39.8205 42.4178 39.8656L42.6461 40.0884C42.7193 40.1571 42.8114 40.2005 42.9095 40.2126C43.0077 40.2247 43.107 40.2049 43.1938 40.1559L43.8459 39.7711C43.8802 39.7488 43.9096 39.7192 43.9321 39.6843C43.9545 39.6494 43.9696 39.61 43.9763 39.5686C43.9882 39.627 43.982 39.6878 43.9586 39.7423C43.9352 39.7969 43.8958 39.8424 43.8459 39.8724Z" fill="url(#paint41_radial)"/>
<path style="mix-blend-mode:screen" d="M42.6265 38.6978L41.9744 39.0825C41.8889 39.1345 41.7895 39.1566 41.6909 39.1457C41.5923 39.1347 41.4997 39.0913 41.4267 39.0218L41.1919 38.799C41.1578 38.7632 41.1327 38.7192 41.1191 38.6709C41.1054 38.6226 41.1036 38.5715 41.1137 38.5223C41.1235 38.5852 41.1507 38.6438 41.1919 38.691L41.4267 38.9138C41.4989 38.9844 41.5912 39.029 41.6898 39.0412C41.7884 39.0534 41.8882 39.0324 41.9744 38.9813L42.6265 38.5965C42.6608 38.5742 42.6902 38.5447 42.7127 38.5098C42.7352 38.4749 42.7502 38.4354 42.7569 38.394C42.7679 38.4524 42.7612 38.5128 42.7379 38.5672C42.7146 38.6215 42.6757 38.6671 42.6265 38.6978Z" fill="url(#paint42_radial)"/>
<path style="mix-blend-mode:screen" d="M42.2157 42.3698L41.9809 42.147C41.9452 42.1124 41.9191 42.0684 41.9053 42.0197C41.8915 41.971 41.8906 41.9194 41.9027 41.8703C41.9081 41.9365 41.9358 41.9986 41.9809 42.0458L42.2157 42.2685C42.2887 42.3381 42.3813 42.3815 42.4799 42.3924C42.5785 42.4033 42.6779 42.3812 42.7634 42.3293L43.4155 41.9445C43.4503 41.9244 43.4801 41.8962 43.5027 41.8623C43.5253 41.8284 43.5401 41.7895 43.5459 41.7488C43.5559 41.8071 43.5489 41.8672 43.5256 41.9213C43.5024 41.9754 43.464 42.0211 43.4155 42.0525L42.7634 42.4373C42.6775 42.4894 42.5775 42.5111 42.4786 42.4989C42.3797 42.4867 42.2874 42.4413 42.2157 42.3698Z" fill="url(#paint43_radial)"/>
<path style="mix-blend-mode:screen" d="M45.0653 41.0468L44.4132 41.4315C44.329 41.484 44.2304 41.5065 44.1327 41.4955C44.035 41.4845 43.9434 41.4407 43.872 41.3708L43.6372 41.1413C43.602 41.1077 43.5762 41.0649 43.5624 41.0174C43.5486 40.9699 43.5475 40.9194 43.559 40.8713C43.5629 40.9359 43.591 40.9964 43.6372 41.04L43.872 41.2628C43.9437 41.3319 44.0347 41.3756 44.132 41.3877C44.2292 41.3999 44.3277 41.3798 44.4132 41.3303L45.0653 40.9388C45.1006 40.9186 45.1312 40.8906 45.1549 40.8568C45.1786 40.8229 45.1947 40.7841 45.2022 40.743C45.2116 40.8021 45.2035 40.8626 45.1791 40.9168C45.1547 40.971 45.115 41.0163 45.0653 41.0468Z" fill="url(#paint44_radial)"/>
<path style="mix-blend-mode:screen" d="M40.9963 41.1751L40.7876 40.9726C40.7524 40.939 40.7266 40.8962 40.7128 40.8487C40.6991 40.8012 40.6979 40.7507 40.7094 40.7026C40.7134 40.7672 40.7414 40.8277 40.7876 40.8713L41.0224 41.0941C41.0941 41.1632 41.1851 41.2069 41.2824 41.219C41.3797 41.2312 41.4781 41.2111 41.5636 41.1616L42.2157 40.7701C42.2511 40.7499 42.2817 40.7219 42.3053 40.6881C42.329 40.6542 42.3452 40.6154 42.3526 40.5743C42.362 40.6334 42.354 40.6939 42.3295 40.7481C42.3051 40.8023 42.2654 40.8476 42.2157 40.8781L41.5636 41.2628C41.474 41.3188 41.3683 41.3407 41.2647 41.3247C41.1612 41.3087 41.0662 41.2558 40.9963 41.1751Z" fill="url(#paint45_radial)"/>
<path style="mix-blend-mode:screen" d="M37.2794 44.9011L37.5077 45.1238C37.5809 45.1926 37.673 45.236 37.7711 45.2481C37.8693 45.2602 37.9687 45.2403 38.0554 45.1913L39.6139 44.2598C39.6475 44.2383 39.6764 44.2098 39.6989 44.1761C39.7213 44.1424 39.7368 44.1043 39.7443 44.0641C39.7568 44.1215 39.7509 44.1817 39.7273 44.2353C39.7038 44.2889 39.664 44.3331 39.6139 44.3611L38.0554 45.2926C37.9716 45.3399 37.8756 45.3589 37.7808 45.3468C37.6861 45.3347 37.5974 45.2921 37.5272 45.2251L37.299 45.0023C37.2632 44.969 37.2365 44.9265 37.2216 44.8791C37.2067 44.8317 37.2042 44.7811 37.2142 44.7323C37.2184 44.7943 37.2412 44.8533 37.2794 44.9011Z" fill="url(#paint46_radial)"/>
<path style="mix-blend-mode:screen" d="M36.0535 43.7265L36.2883 43.9493C36.3615 44.018 36.4536 44.0614 36.5517 44.0735C36.6499 44.0856 36.7493 44.0658 36.836 44.0168L38.3945 43.0853C38.4281 43.0637 38.457 43.0352 38.4795 43.0015C38.5019 42.9678 38.5174 42.9297 38.5249 42.8895C38.5349 42.9478 38.5278 43.0079 38.5046 43.0621C38.4814 43.1162 38.443 43.1619 38.3945 43.1933L36.836 44.118C36.7505 44.17 36.6511 44.1921 36.5525 44.1812C36.4539 44.1702 36.3613 44.1268 36.2883 44.0573L36.0535 43.8345C36.0183 43.7995 35.9926 43.7555 35.9789 43.7069C35.9651 43.6584 35.9639 43.607 35.9753 43.5578C35.9822 43.6216 36.0097 43.6811 36.0535 43.7265Z" fill="url(#paint47_radial)"/>
<path style="mix-blend-mode:screen" d="M34.8341 42.525L35.0689 42.7477C35.1395 42.8187 35.2307 42.8638 35.3285 42.876C35.4263 42.8882 35.5252 42.8668 35.6101 42.8152L37.1686 41.8837C37.2039 41.8636 37.2345 41.8356 37.2582 41.8017C37.2819 41.7679 37.298 41.729 37.3055 41.688C37.3149 41.747 37.3068 41.8076 37.2824 41.8618C37.258 41.916 37.2183 41.9613 37.1686 41.9917L35.6101 42.9165C35.5259 42.969 35.4274 42.9914 35.3296 42.9805C35.2319 42.9695 35.1403 42.9257 35.0689 42.8557L34.8341 42.633C34.7989 42.5979 34.7732 42.5539 34.7595 42.5054C34.7457 42.4568 34.7445 42.4054 34.7559 42.3562C34.7599 42.4209 34.7879 42.4814 34.8341 42.525Z" fill="url(#paint48_radial)"/>
<path style="mix-blend-mode:screen" d="M38.4988 46.0756L38.7271 46.2983C38.8 46.3678 38.8927 46.4113 38.9913 46.4222C39.0899 46.4331 39.1893 46.411 39.2748 46.3591L40.8333 45.4343C40.8683 45.4121 40.8985 45.3826 40.9221 45.3478C40.9456 45.3129 40.962 45.2735 40.9702 45.2318C40.9796 45.2908 40.9715 45.3514 40.9471 45.4056C40.9227 45.4598 40.883 45.5051 40.8333 45.5356L39.2748 46.4671C39.1886 46.5181 39.0888 46.5391 38.9902 46.527C38.8915 46.5148 38.7993 46.4701 38.7271 46.3996L38.4988 46.1768C38.4631 46.1421 38.4369 46.0982 38.4232 46.0495C38.4094 46.0008 38.4085 45.9492 38.4206 45.9001C38.4217 45.9332 38.4292 45.9658 38.4427 45.996C38.4561 46.0261 38.4752 46.0532 38.4988 46.0756Z" fill="url(#paint49_radial)"/>
<path style="mix-blend-mode:screen" d="M44.8697 42.2146L45.1044 42.4374C45.1774 42.5069 45.27 42.5503 45.3686 42.5612C45.4672 42.5722 45.5666 42.55 45.6522 42.4981L46.3042 42.1134C46.339 42.0932 46.3688 42.0651 46.3914 42.0311C46.414 41.9972 46.4288 41.9584 46.4347 41.9176C46.4447 41.9759 46.4376 42.036 46.4143 42.0901C46.3911 42.1443 46.3528 42.19 46.3042 42.2214L45.6522 42.6061C45.5659 42.6572 45.4662 42.6782 45.3675 42.666C45.2689 42.6539 45.1766 42.6092 45.1044 42.5386L44.8697 42.3159C44.8339 42.2812 44.8078 42.2372 44.794 42.1885C44.7803 42.1399 44.7794 42.0883 44.7914 42.0391C44.7968 42.1053 44.8245 42.1674 44.8697 42.2146Z" fill="url(#paint50_radial)"/>
<path style="mix-blend-mode:screen" d="M40.5464 43.3755L40.3181 43.1528C40.2818 43.1184 40.2548 43.0747 40.2399 43.0262C40.225 42.9776 40.2228 42.9258 40.2334 42.876C40.2411 42.9429 40.2711 43.005 40.3181 43.0515L40.5464 43.2743C40.6193 43.3438 40.712 43.3872 40.8106 43.3981C40.9092 43.4091 41.0086 43.3869 41.0941 43.335L41.7462 42.9503C41.7798 42.9287 41.8087 42.9002 41.8312 42.8665C41.8536 42.8328 41.8691 42.7947 41.8766 42.7545C41.8866 42.8128 41.8795 42.8729 41.8563 42.927C41.8331 42.9812 41.7947 43.0269 41.7462 43.0583L41.0941 43.443C41.0079 43.4941 40.9081 43.5151 40.8095 43.5029C40.7108 43.4908 40.6186 43.4461 40.5464 43.3755Z" fill="url(#paint51_radial)"/>
<path style="mix-blend-mode:screen" d="M43.2069 43.2001L43.4351 43.4228C43.5081 43.4923 43.6007 43.5358 43.6993 43.5467C43.7979 43.5576 43.8973 43.5355 43.9828 43.4836L44.6349 43.0988C44.6685 43.0773 44.6974 43.0487 44.7199 43.0151C44.7423 42.9814 44.7578 42.9432 44.7653 42.9031C44.7753 42.9614 44.7683 43.0215 44.745 43.0756C44.7218 43.1297 44.6834 43.1754 44.6349 43.2068L43.9828 43.5916C43.8961 43.6406 43.7967 43.6604 43.6985 43.6483C43.6004 43.6362 43.5083 43.5928 43.4351 43.5241L43.2069 43.3013C43.1705 43.267 43.1435 43.2233 43.1286 43.1747C43.1138 43.1261 43.1115 43.0743 43.1221 43.0246C43.1298 43.0915 43.1598 43.1535 43.2069 43.2001Z" fill="url(#paint52_radial)"/>
<path style="mix-blend-mode:screen" d="M41.5375 44.2261L41.7658 44.4488C41.8387 44.5183 41.9313 44.5618 42.03 44.5727C42.1286 44.5836 42.228 44.5615 42.3135 44.5096L42.9656 44.1248C42.9999 44.1033 43.0297 44.0749 43.0532 44.0413C43.0767 44.0077 43.0935 43.9695 43.1025 43.9291C43.1124 43.9872 43.1045 44.047 43.08 44.1002C43.0554 44.1535 43.0154 44.1975 42.9656 44.2261L42.3135 44.6176C42.2267 44.6666 42.1274 44.6864 42.0292 44.6743C41.9311 44.6622 41.839 44.6188 41.7658 44.5501L41.5375 44.3273C41.5023 44.2923 41.4766 44.2483 41.4629 44.1997C41.4491 44.1512 41.4479 44.0998 41.4593 44.0506C41.4647 44.1168 41.4924 44.1789 41.5375 44.2261Z" fill="url(#paint53_radial)"/>
</g>
<path d="M22.425 25.3058V45.6908L43.0569 33.3586V12.9871L22.425 25.3058Z" fill="url(#paint54_linear)"/>
<path d="M40.2595 29.4772V17.5162L28.8089 24.3607V36.3352L40.2595 29.4772Z" fill="url(#paint55_linear)"/>
<path d="M39.5422 29.0453V18.8055L29.5262 24.7928V35.0393L39.5422 29.0453Z" fill="url(#paint56_linear)"/>
<path d="M40.2595 33.0076V30.5911L28.8089 37.4356V39.8656L40.2595 33.0076Z" fill="url(#paint57_linear)"/>
<path d="M39.5943 32.6025V31.7858L29.4806 37.8405V38.664L39.5943 32.6025Z" fill="url(#paint58_linear)"/>
<path d="M27.7591 39.5212V36.1327L20.4623 40.4932V43.8952L27.7591 39.5212Z" fill="url(#paint59_linear)"/>
<path d="M27.7591 33.0548V29.6595L20.4623 34.0268V37.422L27.7591 33.0548Z" fill="url(#paint60_linear)"/>
<path d="M27.3352 38.7854V38.0699L20.8861 41.9242V42.6464L27.3352 38.7854Z" fill="url(#paint61_radial)"/>
<path d="M27.3352 38.0633V37.3005L20.8861 41.1548V41.9243L27.3352 38.0633Z" fill="url(#paint62_linear)"/>
<path d="M27.3352 32.103V31.3402L20.8861 35.1945V35.964L27.3352 32.103Z" fill="url(#paint63_linear)"/>
<path d="M54.7813 43.6455V47.4255L26.4223 64.368V60.6218L54.7813 43.6455Z" fill="url(#paint64_linear)"/>
<path d="M26.4223 60.6217L20.7492 24.921L18.33 23.2605V59.4202L26.4223 64.368V60.6217Z" fill="#4FACFE"/>
<path d="M47.6932 11.0565L43.0178 13.6755L43.0569 33.3585L52.649 42.525L52.7599 42.633L47.6932 11.0565Z" fill="url(#paint65_linear)"/>
<path d="M49.1473 7.95825L54.7813 43.6455L26.3897 60.6218L20.7492 24.921L49.1473 7.95825ZM27.8439 57.5235L52.7599 42.6263L47.6932 11.0565L22.7772 25.9403L27.8439 57.5235Z" fill="#1987ED"/>
<path style="mix-blend-mode:color-dodge" d="M26.3897 60.6218L20.4493 24.7658L18.33 23.2605L20.9905 24.4553L49.1408 7.95825L21.1731 24.9548L26.3897 60.6218Z" fill="url(#paint66_radial)"/>
<path style="mix-blend-mode:color-dodge" d="M24.929 58.8263C25.9528 60.642 33.4452 58.0905 41.668 53.1293C49.8907 48.168 55.7268 42.6735 54.7096 40.8578C53.6923 39.042 46.1869 41.5935 37.9641 46.575C29.7414 51.5565 23.9053 57.0105 24.929 58.8263Z" fill="url(#paint67_radial)"/>
<path d="M33.693 27.729V24.7725L35.421 23.7397V26.6962L36.6535 25.9605L34.5603 30.4425L32.4671 28.4647L33.693 27.729Z" fill="url(#paint68_linear)"/>
<path d="M47.1259 67.1017C51.6904 64.4017 56.2159 59.8185 59.9784 53.9662H60.0306C63.7996 55.3162 68.2924 54.54 72.8896 51.7387L73.0656 51.6307L72.8179 60.5205C71.9441 74.2972 67.4056 80.298 60.0958 93.1095L59.9197 93.2175C52.6099 89.1675 48.0649 88.5667 47.1976 75.8295L46.9498 67.2367L47.1259 67.1017Z" fill="#4FACFE"/>
<path d="M45.5804 65.7113C50.145 63.0113 54.6704 58.428 58.4329 52.5758H58.4851C62.2541 53.9258 66.747 53.1428 71.3441 50.3415L71.5202 50.2335L73.0135 51.651L72.8896 51.732C68.2924 54.5333 63.7996 55.3095 60.0305 53.9595H59.9784C56.2159 59.8118 51.723 64.4018 47.1259 67.095L46.9498 67.1963L47.1976 75.789C47.7649 84.105 49.8972 87.264 53.3402 89.5388C49.0364 86.9063 46.2912 83.7473 45.6522 74.4053L45.4044 65.8125L45.5804 65.7113Z" fill="url(#paint69_linear)"/>
<path d="M45.4044 65.8192L45.5804 65.7112C50.145 63.0112 54.6704 58.4279 58.433 52.5757H58.4851L60.0305 53.9324H59.9784C56.2159 59.7847 51.723 64.3747 47.1259 67.0679L46.9498 67.1692L45.4044 65.8192Z" fill="url(#paint70_linear)"/>
<path d="M46.9498 67.203L47.1976 75.7957C47.7649 84.1117 49.8972 87.2707 53.3402 89.5455C49.0365 86.913 46.2912 83.754 45.6522 74.412L45.4044 65.8192L46.9498 67.203Z" fill="url(#paint71_linear)"/>
<path d="M47.6019 67.446C52.0947 64.8135 56.4898 60.3248 60.174 54.621H60.2197C63.9039 55.971 68.2989 55.1745 72.7918 52.434L72.9613 52.3328L74.4285 53.6693L74.3046 53.7435C69.8118 56.484 65.4167 57.2468 61.7325 55.9238L61.6803 55.9575C58.0026 61.6748 53.6076 66.1635 49.1082 68.7825L48.9387 68.8838L49.1799 77.2875C49.7407 85.3875 51.8274 88.479 55.1921 90.7335C50.9862 88.1618 48.2996 85.0703 47.6736 75.9308L47.4258 67.527L47.6019 67.446Z" fill="url(#paint72_linear)"/>
<path d="M47.4258 67.5405L47.6019 67.446C52.0947 64.8135 56.4898 60.3247 60.174 54.621H60.2197L61.7325 55.971L61.6803 56.0047C58.0026 61.722 53.6076 66.2107 49.1082 68.8297L48.9387 68.931L47.4258 67.5405Z" fill="url(#paint73_linear)"/>
<path d="M48.9387 68.8973L49.1799 77.301C49.7407 85.401 51.8274 88.4925 55.1921 90.747C50.9862 88.1753 48.2996 85.0838 47.6736 75.9443L47.4258 67.5405L48.9387 68.8973Z" fill="url(#paint74_linear)"/>
<path style="mix-blend-mode:color-dodge" d="M46.9433 66.9668C51.5405 64.2668 56.0333 59.6835 59.8023 53.8313H59.848C63.617 55.1813 68.1098 54.3983 72.707 51.597L72.8831 51.489V51.9345C68.3185 54.675 63.8778 55.431 60.1479 54.0945L60.0958 54.1283C56.3267 59.9738 51.8339 64.5705 47.2367 67.257L47.0607 67.365L47.3085 75.9308C47.7584 82.5593 49.206 85.887 51.5209 88.1348C49.043 85.887 47.491 82.5593 47.0215 75.6608L46.7738 67.068L46.9433 66.9668Z" fill="url(#paint75_radial)"/>
<path style="mix-blend-mode:multiply" opacity="0.7" d="M59.7893 99.9675C52.8459 99.9675 47.2172 97.4833 47.2172 94.419C47.2172 91.3546 52.8459 88.8705 59.7893 88.8705C66.7327 88.8705 72.3614 91.3546 72.3614 94.419C72.3614 97.4833 66.7327 99.9675 59.7893 99.9675Z" fill="url(#paint76_radial)"/>
<path d="M50.0602 69.8625C54.6574 67.1625 59.1502 62.5725 62.9193 56.727L62.9584 56.7C66.7274 58.05 71.2202 57.267 75.8174 54.4657L76 54.351L75.7522 63.2475C74.8784 77.0242 70.3399 83.025 63.0301 95.85L62.8541 95.958C55.5442 91.908 51.0058 91.3072 50.132 78.57L49.8842 69.9772L50.0602 69.8625Z" fill="url(#paint77_linear)"/>
<path d="M48.5148 68.472C53.0794 65.772 57.6048 61.1888 61.3738 55.3365H61.4195C65.1885 56.6865 69.6814 55.9035 74.2785 53.1023L74.4546 52.9943L75.9478 54.3848L75.824 54.459C71.2268 57.2603 66.7339 58.05 62.9584 56.7L62.9128 56.7338C59.1437 62.5793 54.6509 67.176 50.0537 69.8693L49.8777 69.9705L50.1255 78.5633C50.6928 86.8793 52.8251 90.0383 56.2746 92.313C51.9708 89.6805 49.2191 86.5215 48.58 77.1728L48.3322 68.58L48.5148 68.472Z" fill="#4FACFE"/>
<path d="M48.3388 68.5733L48.5148 68.472C53.0794 65.772 57.6048 61.1888 61.3738 55.3365H61.4195L62.9584 56.7L62.9128 56.7338C59.1437 62.5793 54.6509 67.176 50.0537 69.8693L49.8777 69.9706L48.3388 68.5733Z" fill="url(#paint78_linear)"/>
<path d="M49.8842 69.9637L50.1319 78.5565C50.6993 86.8725 52.8316 90.0315 56.2811 92.3062C51.9773 89.6737 49.2256 86.5147 48.5865 77.166L48.3387 68.5732L49.8842 69.9637Z" fill="url(#paint79_linear)"/>
<path d="M63.8517 90.0045C69.5248 80.2643 72.3744 75.3638 73.0656 64.6718L73.2221 59.0558C69.577 60.75 66.0884 61.3035 62.9584 60.6555C60.0999 64.7659 56.6237 68.3756 52.662 71.3475L52.8185 76.7475C53.5097 86.6228 56.3593 88.1078 62.0324 91.071L62.9388 91.5435C63.2518 91.0373 63.5518 90.5108 63.8517 90.0045Z" fill="url(#paint80_linear)"/>
<path d="M62.9584 60.6555C60.0999 64.7658 56.6237 68.3756 52.662 71.3475L52.8186 76.7475C53.5098 86.6228 56.3593 88.1078 62.0324 91.071L62.9388 91.5435L62.9584 60.6555Z" fill="url(#paint81_linear)"/>
<path style="mix-blend-mode:color-dodge" d="M49.8776 69.7275C54.4748 67.0275 58.9676 62.4442 62.7367 56.592H62.7888C66.5513 57.942 71.0507 57.1657 75.6414 54.3645L75.8174 54.2565L75.8044 54.675C71.2398 57.4222 66.8057 58.1782 63.0692 56.8417H63.0171C59.2546 62.694 54.7617 67.284 50.1646 69.9772L49.9885 70.0852L50.2363 78.678C50.6862 85.3065 52.1404 88.6342 54.4487 90.882C51.9708 88.6342 50.4254 85.3065 49.9494 78.408L49.7016 69.8152L49.8776 69.7275Z" fill="url(#paint82_radial)"/>
<path style="mix-blend-mode:color-dodge" d="M62.9584 60.6555C66.1079 61.3305 69.5966 60.7635 73.2417 59.0558V59.4C69.6813 61.02 66.2775 61.533 63.1997 60.8985C60.347 65.0053 56.8775 68.6127 52.9229 71.5838L53.0794 76.9838C53.4641 82.4985 54.5205 85.3943 56.3398 87.3923C54.3444 85.3673 53.2098 82.485 52.812 76.7408L52.6555 71.3408C56.619 68.3714 60.0974 64.764 62.9584 60.6555Z" fill="url(#paint83_radial)"/>
</g>
<defs>
<linearGradient id="paint0_linear" x1="92.4324" y1="46.98" x2="-19.6924" y2="22.6938" gradientUnits="userSpaceOnUse">
<stop stop-color="#25054D"/>
<stop offset="1" stop-color="#45108A"/>
</linearGradient>
<linearGradient id="paint1_linear" x1="40.8072" y1="58.347" x2="38.3205" y2="54.0734" gradientUnits="userSpaceOnUse">
<stop stop-color="white"/>
<stop offset="1"/>
</linearGradient>
<linearGradient id="paint2_linear" x1="-9563.53" y1="-4454.26" x2="-9563.53" y2="9006.19" gradientUnits="userSpaceOnUse">
<stop stop-color="#00F2FE"/>
<stop offset="1" stop-color="#4FACFE"/>
</linearGradient>
<linearGradient id="paint3_linear" x1="-2222.35" y1="650.24" x2="-1723.17" y2="1763.22" gradientUnits="userSpaceOnUse">
<stop stop-color="#9F79C8"/>
<stop offset="0.14" stop-color="#A580CB"/>
<stop offset="0.33" stop-color="#B492D3"/>
<stop offset="0.55" stop-color="#CDB0E1"/>
<stop offset="0.58" stop-color="#D1B4E3"/>
<stop offset="0.76" stop-color="#DBC4E9"/>
<stop offset="1" stop-color="#EBDEF3"/>
</linearGradient>
<linearGradient id="paint4_linear" x1="32.3106" y1="25.5487" x2="41.8409" y2="43.1046" gradientUnits="userSpaceOnUse">
<stop offset="0.03" stop-color="#9B6DB8"/>
<stop offset="0.51" stop-color="#A178C2"/>
<stop offset="0.99" stop-color="#A988D1"/>
</linearGradient>
<linearGradient id="paint5_linear" x1="-934.111" y1="518.681" x2="-858.241" y2="713.748" gradientUnits="userSpaceOnUse">
<stop offset="0.03" stop-color="#9B6DB8"/>
<stop offset="0.51" stop-color="#A178C2"/>
<stop offset="0.99" stop-color="#A988D1"/>
</linearGradient>
<linearGradient id="paint6_linear" x1="34.958" y1="40.1625" x2="36.176" y2="42.4095" gradientUnits="userSpaceOnUse">
<stop stop-color="#684392"/>
<stop offset="1" stop-color="#3D065F"/>
</linearGradient>
<linearGradient id="paint7_linear" x1="-118.609" y1="153.963" x2="-116.056" y2="160.837" gradientUnits="userSpaceOnUse">
<stop stop-color="#684392"/>
<stop offset="1" stop-color="#3D065F"/>
</linearGradient>
<linearGradient id="paint8_linear" x1="-112.995" y1="158.391" x2="-110.444" y2="165.274" gradientUnits="userSpaceOnUse">
<stop stop-color="#684392"/>
<stop offset="1" stop-color="#3D065F"/>
</linearGradient>
<linearGradient id="paint9_linear" x1="-108.115" y1="163.498" x2="-105.568" y2="170.422" gradientUnits="userSpaceOnUse">
<stop stop-color="#684392"/>
<stop offset="1" stop-color="#3D065F"/>
</linearGradient>
<linearGradient id="paint10_linear" x1="-58.9404" y1="113.321" x2="-57.1004" y2="117.899" gradientUnits="userSpaceOnUse">
<stop stop-color="#684392"/>
<stop offset="1" stop-color="#3D065F"/>
</linearGradient>
<linearGradient id="paint11_linear" x1="-54.453" y1="116.391" x2="-52.6249" y2="120.952" gradientUnits="userSpaceOnUse">
<stop stop-color="#684392"/>
<stop offset="1" stop-color="#3D065F"/>
</linearGradient>
<linearGradient id="paint12_linear" x1="-50.2334" y1="119.846" x2="-48.4033" y2="124.401" gradientUnits="userSpaceOnUse">
<stop stop-color="#684392"/>
<stop offset="1" stop-color="#3D065F"/>
</linearGradient>
<linearGradient id="paint13_linear" x1="-45.8938" y1="123.212" x2="-44.065" y2="127.766" gradientUnits="userSpaceOnUse">
<stop stop-color="#684392"/>
<stop offset="1" stop-color="#3D065F"/>
</linearGradient>
<linearGradient id="paint14_linear" x1="-52.9971" y1="110.404" x2="-51.1697" y2="114.977" gradientUnits="userSpaceOnUse">
<stop stop-color="#684392"/>
<stop offset="1" stop-color="#3D065F"/>
</linearGradient>
<linearGradient id="paint15_linear" x1="-50.2186" y1="115.155" x2="-48.3437" y2="119.816" gradientUnits="userSpaceOnUse">
<stop stop-color="#684392"/>
<stop offset="1" stop-color="#3D065F"/>
</linearGradient>
<linearGradient id="paint16_linear" x1="-44.1803" y1="116.942" x2="-42.3485" y2="121.494" gradientUnits="userSpaceOnUse">
<stop stop-color="#684392"/>
<stop offset="1" stop-color="#3D065F"/>
</linearGradient>
<linearGradient id="paint17_linear" x1="-39.9259" y1="120.334" x2="-38.0958" y2="124.888" gradientUnits="userSpaceOnUse">
<stop stop-color="#684392"/>
<stop offset="1" stop-color="#3D065F"/>
</linearGradient>
<linearGradient id="paint18_linear" x1="-46.94" y1="107.513" x2="-45.097" y2="112.077" gradientUnits="userSpaceOnUse">
<stop stop-color="#684392"/>
<stop offset="1" stop-color="#3D065F"/>
</linearGradient>
<linearGradient id="paint19_linear" x1="-42.7138" y1="110.892" x2="-40.8864" y2="115.466" gradientUnits="userSpaceOnUse">
<stop stop-color="#684392"/>
<stop offset="1" stop-color="#3D065F"/>
</linearGradient>
<linearGradient id="paint20_linear" x1="-38.364" y1="114.199" x2="-36.5281" y2="118.772" gradientUnits="userSpaceOnUse">
<stop stop-color="#684392"/>
<stop offset="1" stop-color="#3D065F"/>
</linearGradient>
<linearGradient id="paint21_linear" x1="-33.9073" y1="117.429" x2="-32.0756" y2="121.981" gradientUnits="userSpaceOnUse">
<stop stop-color="#684392"/>
<stop offset="1" stop-color="#3D065F"/>
</linearGradient>
<linearGradient id="paint22_linear" x1="34.958" y1="39.9803" x2="36.176" y2="42.2272" gradientUnits="userSpaceOnUse">
<stop offset="0.04" stop-color="#9F19AB"/>
<stop offset="0.24" stop-color="#AE25B1"/>
<stop offset="0.65" stop-color="#D744BF"/>
<stop offset="1" stop-color="#FF63CE"/>
</linearGradient>
<linearGradient id="paint23_linear" x1="36.1774" y1="41.1548" x2="37.3954" y2="43.4017" gradientUnits="userSpaceOnUse">
<stop offset="0.04" stop-color="#FFA98C"/>
<stop offset="0.32" stop-color="#FFB892"/>
<stop offset="0.86" stop-color="#FEE1A3"/>
<stop offset="1" stop-color="#FEECA8"/>
</linearGradient>
<linearGradient id="paint24_linear" x1="37.3968" y1="42.3292" x2="38.6147" y2="44.5693" gradientUnits="userSpaceOnUse">
<stop offset="0.04" stop-color="#138BBD"/>
<stop offset="0.23" stop-color="#169AC7"/>
<stop offset="0.59" stop-color="#1FC3DF"/>
<stop offset="1" stop-color="#2AF6FF"/>
</linearGradient>
<linearGradient id="paint25_linear" x1="38.6227" y1="43.5037" x2="39.8339" y2="45.7441" gradientUnits="userSpaceOnUse">
<stop stop-color="#F4E4FF"/>
<stop offset="0.4" stop-color="#E8D4F6"/>
<stop offset="1" stop-color="#D1B4E3"/>
</linearGradient>
<linearGradient id="paint26_linear" x1="-58.9305" y1="112.843" x2="-57.0882" y2="117.423" gradientUnits="userSpaceOnUse">
<stop stop-color="#F4E4FF"/>
<stop offset="0.4" stop-color="#E8D4F6"/>
<stop offset="1" stop-color="#D1B4E3"/>
</linearGradient>
<linearGradient id="paint27_linear" x1="-54.2178" y1="116.133" x2="-52.3746" y2="120.704" gradientUnits="userSpaceOnUse">
<stop stop-color="#F4E4FF"/>
<stop offset="0.4" stop-color="#E8D4F6"/>
<stop offset="1" stop-color="#D1B4E3"/>
</linearGradient>
<linearGradient id="paint28_linear" x1="-50.233" y1="119.44" x2="-48.3989" y2="124.011" gradientUnits="userSpaceOnUse">
<stop stop-color="#F4E4FF"/>
<stop offset="0.4" stop-color="#E8D4F6"/>
<stop offset="1" stop-color="#D1B4E3"/>
</linearGradient>
<linearGradient id="paint29_linear" x1="-46.1631" y1="122.755" x2="-44.3358" y2="127.315" gradientUnits="userSpaceOnUse">
<stop stop-color="#F4E4FF"/>
<stop offset="0.4" stop-color="#E8D4F6"/>
<stop offset="1" stop-color="#D1B4E3"/>
</linearGradient>
<linearGradient id="paint30_linear" x1="-52.9876" y1="109.894" x2="-51.159" y2="114.456" gradientUnits="userSpaceOnUse">
<stop stop-color="#F4E4FF"/>
<stop offset="0.4" stop-color="#E8D4F6"/>
<stop offset="1" stop-color="#D1B4E3"/>
</linearGradient>
<linearGradient id="paint31_linear" x1="-49.1122" y1="113.332" x2="-47.2765" y2="117.919" gradientUnits="userSpaceOnUse">
<stop stop-color="#F4E4FF"/>
<stop offset="0.4" stop-color="#E8D4F6"/>
<stop offset="1" stop-color="#D1B4E3"/>
</linearGradient>
<linearGradient id="paint32_linear" x1="-44.1801" y1="116.532" x2="-42.3443" y2="121.102" gradientUnits="userSpaceOnUse">
<stop stop-color="#F4E4FF"/>
<stop offset="0.4" stop-color="#E8D4F6"/>
<stop offset="1" stop-color="#D1B4E3"/>
</linearGradient>
<linearGradient id="paint33_linear" x1="-40.8041" y1="119.742" x2="-38.991" y2="124.318" gradientUnits="userSpaceOnUse">
<stop stop-color="#F4E4FF"/>
<stop offset="0.4" stop-color="#E8D4F6"/>
<stop offset="1" stop-color="#D1B4E3"/>
</linearGradient>
<linearGradient id="paint34_linear" x1="-46.9396" y1="106.848" x2="-45.1029" y2="111.406" gradientUnits="userSpaceOnUse">
<stop stop-color="#F4E4FF"/>
<stop offset="0.4" stop-color="#E8D4F6"/>
<stop offset="1" stop-color="#D1B4E3"/>
</linearGradient>
<linearGradient id="paint35_linear" x1="-42.7047" y1="110.431" x2="-40.8739" y2="114.995" gradientUnits="userSpaceOnUse">
<stop stop-color="#F4E4FF"/>
<stop offset="0.4" stop-color="#E8D4F6"/>
<stop offset="1" stop-color="#D1B4E3"/>
</linearGradient>
<linearGradient id="paint36_linear" x1="-38.3722" y1="113.821" x2="-36.53" y2="118.401" gradientUnits="userSpaceOnUse">
<stop stop-color="#F4E4FF"/>
<stop offset="0.4" stop-color="#E8D4F6"/>
<stop offset="1" stop-color="#D1B4E3"/>
</linearGradient>
<linearGradient id="paint37_linear" x1="-33.9077" y1="117.02" x2="-32.072" y2="121.59" gradientUnits="userSpaceOnUse">
<stop stop-color="#F4E4FF"/>
<stop offset="0.4" stop-color="#E8D4F6"/>
<stop offset="1" stop-color="#D1B4E3"/>
</linearGradient>
<radialGradient id="paint38_radial" cx="0" cy="0" r="1" gradientUnits="userSpaceOnUse" gradientTransform="translate(-49.623 83.8542) rotate(180) scale(1.60604 0.731729)">
<stop stop-color="white"/>
<stop offset="1"/>
</radialGradient>
<radialGradient id="paint39_radial" cx="0" cy="0" r="1" gradientUnits="userSpaceOnUse" gradientTransform="translate(-51.2019 88.4116) rotate(180) scale(1.60641 0.730801)">
<stop stop-color="white"/>
<stop offset="1"/>
</radialGradient>
<radialGradient id="paint40_radial" cx="0" cy="0" r="1" gradientUnits="userSpaceOnUse" gradientTransform="translate(-55.4795 86.0337) rotate(180) scale(1.60525 0.732529)">
<stop stop-color="white"/>
<stop offset="1"/>
</radialGradient>
<radialGradient id="paint41_radial" cx="0" cy="0" r="1" gradientUnits="userSpaceOnUse" gradientTransform="translate(-39.3681 84.2116) rotate(180) scale(1.60544 0.731729)">
<stop stop-color="white"/>
<stop offset="1"/>
</radialGradient>
<radialGradient id="paint42_radial" cx="0" cy="0" r="1" gradientUnits="userSpaceOnUse" gradientTransform="translate(-43.6686 81.7243) rotate(180) scale(1.60516 0.731726)">
<stop stop-color="white"/>
<stop offset="1"/>
</radialGradient>
<radialGradient id="paint43_radial" cx="0" cy="0" r="1" gradientUnits="userSpaceOnUse" gradientTransform="translate(-40.9765 88.7686) rotate(180) scale(1.60641 0.730801)">
<stop stop-color="white"/>
<stop offset="1"/>
</radialGradient>
<radialGradient id="paint44_radial" cx="0" cy="0" r="1" gradientUnits="userSpaceOnUse" gradientTransform="translate(-35.0397 86.7491) rotate(180) scale(1.60525 0.732532)">
<stop stop-color="white"/>
<stop offset="1"/>
</radialGradient>
<radialGradient id="paint45_radial" cx="0" cy="0" r="1" gradientUnits="userSpaceOnUse" gradientTransform="translate(-45.2204 86.4076) rotate(180) scale(1.60525 0.732788)">
<stop stop-color="white"/>
<stop offset="1"/>
</radialGradient>
<radialGradient id="paint46_radial" cx="0" cy="0" r="1" gradientUnits="userSpaceOnUse" gradientTransform="translate(-106.571 129.264) rotate(180) scale(3.94089 1.99367)">
<stop stop-color="white"/>
<stop offset="1"/>
</radialGradient>
<radialGradient id="paint47_radial" cx="0" cy="0" r="1" gradientUnits="userSpaceOnUse" gradientTransform="translate(-113.716 126.376) rotate(180) scale(3.97072 2.00626)">
<stop stop-color="white"/>
<stop offset="1"/>
</radialGradient>
<radialGradient id="paint48_radial" cx="0" cy="0" r="1" gradientUnits="userSpaceOnUse" gradientTransform="translate(-119.689 122.974) rotate(180) scale(3.96978 2.00754)">
<stop stop-color="white"/>
<stop offset="1"/>
</radialGradient>
<radialGradient id="paint49_radial" cx="0" cy="0" r="1" gradientUnits="userSpaceOnUse" gradientTransform="translate(-101.671 133.492) rotate(180) scale(3.9709 2.0127)">
<stop stop-color="white"/>
<stop offset="1"/>
</radialGradient>
<radialGradient id="paint50_radial" cx="0" cy="0" r="1" gradientUnits="userSpaceOnUse" gradientTransform="translate(-30.751 89.0235) rotate(180) scale(1.6064 0.729217)">
<stop stop-color="white"/>
<stop offset="1"/>
</radialGradient>
<radialGradient id="paint51_radial" cx="0" cy="0" r="1" gradientUnits="userSpaceOnUse" gradientTransform="translate(-46.785 90.7924) rotate(180) scale(1.60459 0.729213)">
<stop stop-color="white"/>
<stop offset="1"/>
</radialGradient>
<radialGradient id="paint52_radial" cx="0" cy="0" r="1" gradientUnits="userSpaceOnUse" gradientTransform="translate(-36.5683 90.9251) rotate(180) scale(1.60459 0.726246)">
<stop stop-color="white"/>
<stop offset="1"/>
</radialGradient>
<radialGradient id="paint53_radial" cx="0" cy="0" r="1" gradientUnits="userSpaceOnUse" gradientTransform="translate(-42.511 93.0665) rotate(180) scale(1.60543 0.726242)">
<stop stop-color="white"/>
<stop offset="1"/>
</radialGradient>
<linearGradient id="paint54_linear" x1="-1577.78" y1="782.506" x2="-174.916" y2="2226.46" gradientUnits="userSpaceOnUse">
<stop stop-color="#9F79C8"/>
<stop offset="0.14" stop-color="#A580CB"/>
<stop offset="0.33" stop-color="#B492D3"/>
<stop offset="0.55" stop-color="#CDB0E1"/>
<stop offset="0.58" stop-color="#D1B4E3"/>
<stop offset="0.76" stop-color="#DBC4E9"/>
<stop offset="1" stop-color="#EBDEF3"/>
</linearGradient>
<linearGradient id="paint55_linear" x1="28.7046" y1="35.9235" x2="40.8449" y2="18.4172" gradientUnits="userSpaceOnUse">
<stop offset="0.04" stop-color="#1E1F21"/>
<stop offset="0.24" stop-color="#101012"/>
<stop offset="0.27" stop-color="#0E0E0F"/>
<stop offset="0.35" stop-color="#131415"/>
<stop offset="0.45" stop-color="#232326"/>
<stop offset="0.56" stop-color="#3C3D41"/>
<stop offset="0.69" stop-color="#5D6066"/>
<stop offset="1" stop-color="#37383C"/>
</linearGradient>
<linearGradient id="paint56_linear" x1="28.3264" y1="38.745" x2="40.9697" y2="16.2696" gradientUnits="userSpaceOnUse">
<stop offset="0.03" stop-color="#7C1DC9"/>
<stop offset="0.21" stop-color="#6E41D2"/>
<stop offset="0.62" stop-color="#4C9BE8"/>
<stop offset="1" stop-color="#2AF6FF"/>
</linearGradient>
<linearGradient id="paint57_linear" x1="-706.659" y1="489.772" x2="-664.12" y2="575.359" gradientUnits="userSpaceOnUse">
<stop offset="0.03" stop-color="#9B6DB8"/>
<stop offset="0.51" stop-color="#A178C2"/>
<stop offset="0.99" stop-color="#A988D1"/>
</linearGradient>
<linearGradient id="paint58_linear" x1="-610.519" y1="382.989" x2="-598.725" y2="411.22" gradientUnits="userSpaceOnUse">
<stop stop-color="#25054D"/>
<stop offset="1" stop-color="#45108A"/>
</linearGradient>
<linearGradient id="paint59_linear" x1="-568.315" y1="469.513" x2="-515.548" y2="550.358" gradientUnits="userSpaceOnUse">
<stop offset="0.03" stop-color="#9B6DB8"/>
<stop offset="0.51" stop-color="#A178C2"/>
<stop offset="0.99" stop-color="#A988D1"/>
</linearGradient>
<linearGradient id="paint60_linear" x1="-568.315" y1="388.597" x2="-515.548" y2="469.442" gradientUnits="userSpaceOnUse">
<stop offset="0.03" stop-color="#9B6DB8"/>
<stop offset="0.51" stop-color="#A178C2"/>
<stop offset="0.99" stop-color="#A988D1"/>
</linearGradient>
<radialGradient id="paint61_radial" cx="0" cy="0" r="1" gradientUnits="userSpaceOnUse" gradientTransform="translate(24.8899 39.1162) rotate(180) scale(2.76482 2.862)">
<stop stop-color="#2AF6FF"/>
<stop offset="1" stop-color="#138BBD"/>
</radialGradient>
<linearGradient id="paint62_linear" x1="-489.558" y1="304.276" x2="-482.68" y2="319.946" gradientUnits="userSpaceOnUse">
<stop stop-color="#25054D"/>
<stop offset="1" stop-color="#45108A"/>
</linearGradient>
<linearGradient id="paint63_linear" x1="-489.558" y1="257.488" x2="-482.685" y2="273.199" gradientUnits="userSpaceOnUse">
<stop stop-color="#25054D"/>
<stop offset="1" stop-color="#45108A"/>
</linearGradient>
<linearGradient id="paint64_linear" x1="-8792.94" y1="-4957.94" x2="-8792.94" y2="10134.7" gradientUnits="userSpaceOnUse">
<stop stop-color="#00F2FE"/>
<stop offset="1" stop-color="#4FACFE"/>
</linearGradient>
<linearGradient id="paint65_linear" x1="-332.734" y1="1267.17" x2="-883.32" y2="1324.67" gradientUnits="userSpaceOnUse">
<stop stop-color="#9F79C8"/>
<stop offset="0.14" stop-color="#A580CB"/>
<stop offset="0.33" stop-color="#B492D3"/>
<stop offset="0.55" stop-color="#CDB0E1"/>
<stop offset="0.58" stop-color="#D1B4E3"/>
<stop offset="0.76" stop-color="#DBC4E9"/>
<stop offset="1" stop-color="#EBDEF3"/>
</linearGradient>
<radialGradient id="paint66_radial" cx="0" cy="0" r="1" gradientUnits="userSpaceOnUse" gradientTransform="translate(-2176.02 1678.44) rotate(180) scale(627 1071.7)">
<stop stop-color="white"/>
<stop offset="1"/>
</radialGradient>
<radialGradient id="paint67_radial" cx="0" cy="0" r="1" gradientUnits="userSpaceOnUse" gradientTransform="translate(31.9306 59.9947) rotate(148.959) scale(17.2989 3.72896)">
<stop stop-color="#972A74"/>
<stop offset="0.04" stop-color="#8A266A"/>
<stop offset="0.19" stop-color="#601B4A"/>
<stop offset="0.35" stop-color="#3D112F"/>
<stop offset="0.51" stop-color="#230A1B"/>
<stop offset="0.67" stop-color="#0F040C"/>
<stop offset="0.83" stop-color="#040103"/>
<stop offset="1"/>
</radialGradient>
<linearGradient id="paint68_linear" x1="32.2128" y1="31.3267" x2="37.3028" y2="22.1038" gradientUnits="userSpaceOnUse">
<stop offset="0.17" stop-color="#D4D1D8"/>
<stop offset="1" stop-color="white"/>
</linearGradient>
<linearGradient id="paint69_linear" x1="-8540.75" y1="-9436.48" x2="-8540.75" y2="19190.3" gradientUnits="userSpaceOnUse">
<stop stop-color="#00F2FE"/>
<stop offset="1" stop-color="#4FACFE"/>
</linearGradient>
<linearGradient id="paint70_linear" x1="23276.7" y1="1078.94" x2="22695.6" y2="1670.4" gradientUnits="userSpaceOnUse">
<stop offset="0.04" stop-color="#6B24D6"/>
<stop offset="0.29" stop-color="#7733DC"/>
<stop offset="0.79" stop-color="#975CED"/>
<stop offset="1" stop-color="#A56EF4"/>
</linearGradient>
<linearGradient id="paint71_linear" x1="12477.2" y1="2764.21" x2="12124.2" y2="2831.26" gradientUnits="userSpaceOnUse">
<stop offset="0.04" stop-color="#6B24D6"/>
<stop offset="0.29" stop-color="#7733DC"/>
<stop offset="0.79" stop-color="#975CED"/>
<stop offset="1" stop-color="#A56EF4"/>
</linearGradient>
<linearGradient id="paint72_linear" x1="42735" y1="3898.55" x2="41609.8" y2="4037.36" gradientUnits="userSpaceOnUse">
<stop offset="0.04" stop-color="#FFA98C"/>
<stop offset="0.32" stop-color="#FFB892"/>
<stop offset="0.86" stop-color="#FEE1A3"/>
<stop offset="1" stop-color="#FEECA8"/>
</linearGradient>
<linearGradient id="paint73_linear" x1="21760.2" y1="1106.26" x2="21203" y2="1671.95" gradientUnits="userSpaceOnUse">
<stop offset="0.04" stop-color="#FFA98C"/>
<stop offset="0.32" stop-color="#FFB892"/>
<stop offset="0.86" stop-color="#FEE1A3"/>
<stop offset="1" stop-color="#FEECA8"/>
</linearGradient>
<linearGradient id="paint74_linear" x1="11190.4" y1="2757.87" x2="10852.7" y2="2822.07" gradientUnits="userSpaceOnUse">
<stop offset="0.04" stop-color="#FFA98C"/>
<stop offset="0.32" stop-color="#FFB892"/>
<stop offset="0.86" stop-color="#FEE1A3"/>
<stop offset="1" stop-color="#FEECA8"/>
</linearGradient>
<radialGradient id="paint75_radial" cx="0" cy="0" r="1" gradientUnits="userSpaceOnUse" gradientTransform="translate(40258.5 3841.03) rotate(180) scale(622.968 874.368)">
<stop stop-color="white"/>
<stop offset="1"/>
</radialGradient>
<radialGradient id="paint76_radial" cx="0" cy="0" r="1" gradientUnits="userSpaceOnUse" gradientTransform="translate(59.7893 91.248) rotate(180) scale(12.5721 5.59602)">
<stop stop-color="#231F20"/>
<stop offset="0.06" stop-color="#353132"/>
<stop offset="0.32" stop-color="#7C7A7A"/>
<stop offset="0.55" stop-color="#B4B3B3"/>
<stop offset="0.75" stop-color="#DDDCDC"/>
<stop offset="0.91" stop-color="#F6F6F6"/>
<stop offset="1" stop-color="white"/>
</radialGradient>
<linearGradient id="paint77_linear" x1="-8071.88" y1="-9987.92" x2="-8071.88" y2="20315.3" gradientUnits="userSpaceOnUse">
<stop stop-color="#00F2FE"/>
<stop offset="1" stop-color="#4FACFE"/>
</linearGradient>
<linearGradient id="paint78_linear" x1="23335.2" y1="1144.25" x2="22752.4" y2="1735.63" gradientUnits="userSpaceOnUse">
<stop offset="0.04" stop-color="#6B24D6"/>
<stop offset="0.29" stop-color="#7733DC"/>
<stop offset="0.79" stop-color="#975CED"/>
<stop offset="1" stop-color="#A56EF4"/>
</linearGradient>
<linearGradient id="paint79_linear" x1="12526.2" y1="2864.8" x2="12172.9" y2="2931.94" gradientUnits="userSpaceOnUse">
<stop offset="0.04" stop-color="#6B24D6"/>
<stop offset="0.29" stop-color="#7733DC"/>
<stop offset="0.79" stop-color="#975CED"/>
<stop offset="1" stop-color="#A56EF4"/>
</linearGradient>
<linearGradient id="paint80_linear" x1="32031.4" y1="4202.87" x2="31140.4" y2="3621.12" gradientUnits="userSpaceOnUse">
<stop offset="0.04" stop-color="#FFA98C"/>
<stop offset="0.32" stop-color="#FFB892"/>
<stop offset="0.86" stop-color="#FEE1A3"/>
<stop offset="1" stop-color="#FEECA8"/>
</linearGradient>
<linearGradient id="paint81_linear" x1="15094.4" y1="4270.07" x2="15626.9" y2="4080.7" gradientUnits="userSpaceOnUse">
<stop offset="0.04" stop-color="#FFA98C"/>
<stop offset="0.32" stop-color="#FFB892"/>
<stop offset="0.86" stop-color="#FEE1A3"/>
<stop offset="1" stop-color="#FEECA8"/>
</linearGradient>
<radialGradient id="paint82_radial" cx="0" cy="0" r="1" gradientUnits="userSpaceOnUse" gradientTransform="translate(40389.5 3991.13) rotate(180) scale(623.124 873.884)">
<stop stop-color="white"/>
<stop offset="1"/>
</radialGradient>
<radialGradient id="paint83_radial" cx="0" cy="0" r="1" gradientUnits="userSpaceOnUse" gradientTransform="translate(31635.2 3133.57) rotate(180) scale(382.285 526.209)">
<stop stop-color="white"/>
<stop offset="1"/>
</radialGradient>
<clipPath id="clip0">
<rect width="76" height="108" fill="white" transform="matrix(-1 0 0 1 76 0)"/>
</clipPath>
</defs>
</svg>
