<svg width="24" height="24" viewBox="0 0 24 24" fill="none" xmlns="http://www.w3.org/2000/svg">
<path d="M16.4042 7.38676C15.1171 6.1671 13.379 5.54057 11.6098 5.65853C8.22346 5.86304 5.57082 8.64954 5.5331 12.0418C5.50525 14.4669 6.98256 16.669 8.93381 17.7561V20.9338C8.93381 22.6272 10.3066 24 12 24C13.6934 24 15.0662 22.6272 15.0662 20.9338V17.7839C17.125 16.609 18.4161 14.4396 18.4669 12.0697C18.4427 10.2936 17.6982 8.60349 16.4042 7.38676ZM12 22.8293C11.0587 22.7874 10.2774 22.0878 10.1324 21.1568H13.8676C13.7226 22.0878 12.9413 22.7874 12 22.8293ZM13.9512 20.0418H10.0488V19.2056H13.9512V20.0418ZM14.23 16.9199C14.0515 17.0228 13.9443 17.2157 13.9512 17.4216V18.0906H10.0488V17.4216C10.0599 17.2074 9.95303 17.0041 9.77008 16.892C7.85761 16.0548 6.6292 14.1573 6.64814 12.0697C6.69856 9.27207 8.8748 6.97498 11.6656 6.77352H12C14.928 6.78835 17.3065 9.14204 17.352 12.0697C17.3531 14.1589 16.1321 16.0557 14.23 16.9199Z" fill="#D4EB47"/>
<path d="M12 4.12541C12.3079 4.12541 12.5575 3.87582 12.5575 3.56792V0.557492C12.5575 0.249588 12.3079 0 12 0C11.6921 0 11.4425 0.249588 11.4425 0.557492V3.56792C11.4425 3.87582 11.6921 4.12541 12 4.12541Z" fill="#D4EB47"/>
<path d="M3.77701 11.1219H0.766537C0.458634 11.1219 0.209045 11.3715 0.209045 11.6794C0.209045 11.9873 0.458634 12.2369 0.766537 12.2369H3.77696C4.08486 12.2369 4.33445 11.9873 4.33445 11.6794C4.33445 11.3715 4.08492 11.1219 3.77701 11.1219Z" fill="#D4EB47"/>
<path d="M23.2334 11.1219H20.223C19.9151 11.1219 19.6655 11.3715 19.6655 11.6794C19.6655 11.9873 19.9151 12.2369 20.223 12.2369H23.2334C23.5413 12.2369 23.7909 11.9873 23.7909 11.6794C23.7909 11.3715 23.5413 11.1219 23.2334 11.1219Z" fill="#D4EB47"/>
<path d="M3.66552 4.23692L5.81188 6.35539C6.00961 6.57093 6.34467 6.58534 6.56017 6.38756C6.57137 6.37731 6.58209 6.36654 6.59234 6.35539C6.80789 6.15766 6.82229 5.8226 6.62451 5.6071C6.61427 5.5959 6.60349 5.58517 6.59234 5.57493L4.44603 3.45647C4.26132 3.21013 3.91185 3.16025 3.66552 3.34496C3.41919 3.52967 3.3693 3.87913 3.55401 4.12547C3.5857 4.16767 3.62326 4.20523 3.66552 4.23692Z" fill="#D4EB47"/>
<path d="M17.4076 6.35538C17.5106 6.46043 17.6508 6.52051 17.7979 6.52265C17.9449 6.52056 18.0852 6.46043 18.1881 6.35538L20.3344 4.23692C20.5808 4.05221 20.6307 3.70274 20.4459 3.45641C20.2612 3.21007 19.9118 3.16019 19.6654 3.3449C19.6232 3.37659 19.5856 3.41415 19.5539 3.45641L17.4076 5.57487C17.192 5.7726 17.1776 6.10766 17.3754 6.32316C17.3857 6.33441 17.3965 6.34514 17.4076 6.35538Z" fill="#D4EB47"/>
</svg>
