<svg width="48" height="48" viewBox="0 0 48 48" fill="none" xmlns="http://www.w3.org/2000/svg">
<path d="M43.5 15.0003H42V10.5003C42 9.66929 41.328 9.00029 40.5 9.00029H4.5C2.019 9.00029 0 11.0193 0 13.5003V40.5003C0 42.9813 2.019 45.0003 4.5 45.0003H43.5C44.328 45.0003 45 44.3283 45 43.5003V16.5003C45 15.6693 44.328 15.0003 43.5 15.0003Z" fill="#BC6DF4"/>
<path d="M4.5 12.0003H39V15.0003H4.5C3.672 15.0003 3 14.3283 3 13.5003C3 12.6723 3.672 12.0003 4.5 12.0003Z" fill="#FAFAFA"/>
<path d="M46.5 33.0003H37.5C35.016 33.0003 33 30.9843 33 28.5003C33 26.0133 35.016 24.0003 37.5 24.0003H46.5C47.328 24.0003 48 24.6723 48 25.5003V31.5003C48 32.3283 47.328 33.0003 46.5 33.0003Z" fill="#AA42F5"/>
<path d="M38.427 15.0003L32.841 3.82829C32.469 3.08729 31.569 2.79029 30.828 3.15629L7.146 15.0003H38.427Z" fill="#BBF514"/>
<path d="M3 15.0003H32.427L26.841 3.8283C26.469 3.0873 25.569 2.7903 24.828 3.1593L3 14.0733V15.0003Z" fill="#81ECEC"/>
</svg>
